{"glyphs":{"0":{"ha":853,"x_min":0,"x_max":0,"o":"m 764 456 b 429 931 764 783 647 931 b 89 453 208 931 89 779 b 424 -21 89 125 206 -21 b 764 456 644 -21 764 129 z m 278 456 b 426 756 278 690 319 756 b 556 651 493 756 535 729 l 279 397 b 278 456 278 415 278 435 z m 575 453 b 426 153 575 218 533 153 b 297 256 361 153 319 179 l 574 510 b 575 453 575 492 575 474 z "},"1":{"ha":853,"x_min":0,"x_max":0,"o":"m 132 0 l 746 0 l 746 167 l 554 167 l 554 924 l 478 924 l 132 757 l 132 564 l 353 671 l 353 167 l 132 167 z "},"2":{"ha":853,"x_min":0,"x_max":0,"o":"m 99 0 l 776 0 l 776 167 l 351 167 l 351 172 l 543 347 b 746 674 721 510 746 579 b 456 931 746 836 625 931 b 75 733 333 931 236 881 l 182 599 b 442 757 325 729 378 757 b 543 665 510 757 543 722 b 361 404 543 608 524 558 l 99 156 z "},"3":{"ha":853,"x_min":0,"x_max":0,"o":"m 97 743 l 472 743 l 472 739 l 228 492 l 269 386 b 419 403 336 399 383 403 b 557 313 514 403 557 368 b 276 182 557 240 488 199 l 106 169 l 124 -14 l 297 -3 b 761 310 632 19 761 136 b 503 549 761 418 685 535 l 503 553 l 719 776 l 719 910 l 97 910 z "},"4":{"ha":853,"x_min":0,"x_max":0,"o":"m 53 210 l 471 210 l 471 0 l 657 0 l 657 210 l 828 210 l 828 367 l 657 367 l 657 910 l 403 910 l 53 343 z m 488 786 l 488 346 l 225 346 l 225 353 z "},"5":{"ha":853,"x_min":0,"x_max":0,"o":"m 753 326 b 493 588 753 492 638 588 b 301 536 421 588 357 571 l 317 743 l 697 743 l 697 910 l 151 910 l 122 419 l 126 413 l 269 385 b 438 436 324 415 382 436 b 551 336 507 436 551 401 b 257 176 551 244 489 197 l 92 161 l 111 -14 l 272 0 b 753 326 626 31 753 143 z "},"6":{"ha":853,"x_min":0,"x_max":0,"o":"m 769 300 b 474 606 769 499 663 606 b 385 596 447 606 417 603 b 503 729 417 640 456 685 l 694 907 l 693 910 l 436 910 l 329 801 b 85 310 156 626 85 482 b 417 -21 85 125 200 -21 b 769 300 625 -21 769 108 z m 286 315 b 314 460 286 361 294 410 b 414 471 347 468 379 471 b 565 303 511 471 565 417 b 419 142 565 197 508 142 b 286 315 340 142 286 207 z "},"7":{"ha":853,"x_min":0,"x_max":0,"o":"m 396 0 l 747 735 l 747 910 l 83 910 l 83 743 l 554 743 l 554 736 l 165 3 l 165 0 z "},"8":{"ha":853,"x_min":0,"x_max":0,"o":"m 425 -21 b 768 242 622 -21 768 79 b 572 464 768 349 690 428 l 572 471 b 744 679 678 506 744 578 b 429 931 744 836 613 931 b 108 676 246 931 108 835 b 279 471 108 576 174 504 l 279 464 b 85 239 160 426 85 344 b 425 -21 85 76 232 -21 z m 426 528 b 297 650 354 528 297 569 b 428 778 297 732 354 778 b 556 653 504 778 556 735 b 426 528 556 572 500 528 z m 426 131 b 275 265 338 131 275 181 b 426 400 275 349 336 400 b 578 268 517 400 578 351 b 426 131 578 182 514 131 z "},"9":{"ha":853,"x_min":0,"x_max":0,"o":"m 524 108 b 768 600 697 283 768 428 b 436 931 768 785 653 931 b 83 610 228 931 83 801 b 379 304 83 411 190 304 b 468 314 406 304 436 307 b 350 181 436 269 397 225 l 158 3 l 160 0 l 417 0 z m 567 594 b 539 450 567 549 558 500 b 439 439 506 442 474 439 b 288 607 342 439 288 493 b 433 768 288 713 344 768 b 567 594 513 768 567 703 z "},"A":{"ha":853,"x_min":0,"x_max":0,"o":"m 238 0 l 288 175 l 554 175 l 604 0 l 814 0 l 550 910 l 300 910 l 39 0 z m 328 332 l 421 694 l 514 332 z "},"B":{"ha":853,"x_min":0,"x_max":0,"o":"m 108 910 l 108 0 l 464 0 b 797 231 715 0 797 86 b 564 467 797 361 711 444 l 564 472 b 765 697 704 508 765 596 b 474 910 765 824 685 910 z m 440 757 b 564 654 528 757 564 725 b 413 533 564 585 524 540 l 307 526 l 307 757 z m 415 381 b 597 258 556 371 597 331 b 451 151 597 190 560 151 l 307 151 l 307 389 z "},"C":{"ha":853,"x_min":0,"x_max":0,"o":"m 465 -21 b 807 96 565 -21 683 13 l 718 235 b 493 146 618 169 547 146 b 274 456 378 146 274 229 b 503 764 274 663 382 764 b 708 679 558 764 608 750 l 796 819 b 499 931 683 900 599 931 b 69 453 242 931 69 728 b 465 -21 69 142 224 -21 z "},"D":{"ha":853,"x_min":0,"x_max":0,"o":"m 104 910 l 104 0 l 249 0 b 789 463 635 0 789 193 b 276 910 789 740 624 910 z m 343 740 b 585 460 490 731 585 653 b 319 169 585 263 500 183 l 304 168 l 304 743 z "},"E":{"ha":853,"x_min":0,"x_max":0,"o":"m 121 910 l 121 0 l 753 0 l 753 167 l 322 167 l 322 375 l 707 375 l 707 542 l 322 542 l 322 743 l 751 743 l 751 910 z "},"F":{"ha":853,"x_min":0,"x_max":0,"o":"m 132 910 l 132 0 l 333 0 l 333 328 l 711 328 l 711 494 l 333 494 l 333 743 l 750 743 l 750 910 z "},"G":{"ha":853,"x_min":0,"x_max":0,"o":"m 690 744 l 707 910 b 557 924 644 919 610 924 b 68 449 236 924 68 740 b 500 -21 68 126 224 -21 b 776 18 592 -21 686 -6 l 776 519 l 429 519 l 429 365 l 588 365 l 588 153 b 524 146 564 149 544 146 b 274 456 346 146 274 231 b 574 754 274 661 376 754 b 690 744 611 754 642 751 z "},"H":{"ha":853,"x_min":0,"x_max":0,"o":"m 104 910 l 104 0 l 304 0 l 304 375 l 549 375 l 549 0 l 749 0 l 749 910 l 549 910 l 549 542 l 304 542 l 304 910 z "},"I":{"ha":853,"x_min":0,"x_max":0,"o":"m 157 111 l 157 0 l 696 0 l 696 111 l 528 146 l 528 764 l 696 799 l 696 910 l 157 910 l 157 799 l 328 764 l 328 146 z "},"J":{"ha":853,"x_min":0,"x_max":0,"o":"m 457 -21 b 754 271 649 -21 754 97 l 754 910 l 553 910 l 553 289 b 443 164 553 204 515 164 b 164 325 383 164 313 203 l 42 178 b 457 -21 225 18 329 -21 z "},"K":{"ha":853,"x_min":0,"x_max":0,"o":"m 310 910 l 108 910 l 108 0 l 310 0 l 310 435 l 593 0 l 839 0 l 839 3 l 524 471 l 833 907 l 833 910 l 600 910 l 310 476 z "},"L":{"ha":853,"x_min":0,"x_max":0,"o":"m 121 910 l 121 0 l 768 0 l 768 165 l 322 165 l 322 910 z "},"M":{"ha":853,"x_min":0,"x_max":0,"o":"m 739 910 l 551 910 l 429 543 l 307 910 l 114 910 l 72 0 l 254 0 l 274 633 l 411 229 l 439 229 l 576 640 l 596 0 l 781 0 z "},"N":{"ha":853,"x_min":0,"x_max":0,"o":"m 286 0 l 278 565 l 558 0 l 750 0 l 750 910 l 567 910 l 575 347 l 296 910 l 103 910 l 103 0 z "},"O":{"ha":853,"x_min":0,"x_max":0,"o":"m 783 456 b 429 931 783 783 649 931 b 69 453 207 931 69 779 b 424 -21 69 125 204 -21 b 783 456 646 -21 783 129 z m 274 456 b 426 764 274 697 331 764 b 579 453 521 764 579 696 b 426 146 579 211 522 146 b 274 456 332 146 274 214 z "},"P":{"ha":853,"x_min":0,"x_max":0,"o":"m 108 910 l 108 0 l 310 0 l 310 296 l 422 296 b 800 606 660 296 800 399 b 429 910 800 792 672 910 z m 443 743 b 596 603 546 743 596 693 b 436 458 596 513 543 458 l 310 458 l 310 743 z "},"Q":{"ha":853,"x_min":0,"x_max":0,"o":"m 871 -160 l 669 90 b 783 454 740 168 783 290 b 429 931 783 785 649 931 b 69 451 207 931 69 781 b 424 -15 69 128 204 -15 b 540 4 465 -15 504 -8 l 689 -271 z m 274 454 b 426 764 274 699 331 764 b 579 451 521 764 579 696 b 426 144 579 204 532 144 b 274 454 332 144 274 213 z "},"R":{"ha":853,"x_min":0,"x_max":0,"o":"m 835 6 l 646 246 b 500 369 597 308 556 340 l 500 379 b 769 644 696 414 769 508 b 456 910 769 811 672 910 l 108 910 l 108 0 l 308 0 l 308 329 b 444 215 371 317 399 288 l 585 0 l 835 0 z m 424 751 b 568 626 525 751 568 711 b 342 475 568 554 535 501 l 308 471 l 308 751 z "},"S":{"ha":853,"x_min":0,"x_max":0,"o":"m 419 147 b 117 210 343 147 247 169 l 81 42 b 415 -19 206 1 311 -19 b 765 260 650 -19 765 101 b 540 526 765 408 703 478 l 449 554 b 310 676 329 590 310 622 b 443 761 310 726 344 761 b 707 721 508 761 594 746 l 729 890 b 449 926 632 911 551 926 b 110 661 228 926 110 804 b 333 392 110 521 175 442 l 419 364 b 564 244 546 324 564 300 b 419 147 564 183 528 147 z "},"T":{"ha":853,"x_min":0,"x_max":0,"o":"m 54 743 l 326 743 l 326 0 l 526 0 l 526 743 l 799 743 l 799 910 l 54 910 z "},"U":{"ha":853,"x_min":0,"x_max":0,"o":"m 560 314 b 426 164 560 206 513 164 b 294 314 339 164 294 210 l 294 910 l 93 910 l 93 317 b 421 -21 93 86 197 -21 b 760 317 649 -21 760 82 l 760 910 l 560 910 z "},"V":{"ha":853,"x_min":0,"x_max":0,"o":"m 39 910 l 304 0 l 551 0 l 814 910 l 617 910 l 432 233 l 249 910 z "},"W":{"ha":853,"x_min":0,"x_max":0,"o":"m 692 0 l 803 910 l 615 910 l 561 331 l 444 738 l 411 738 l 293 322 l 238 910 l 50 910 l 160 0 l 324 0 l 424 418 l 522 0 z "},"X":{"ha":853,"x_min":0,"x_max":0,"o":"m 31 0 l 246 0 l 422 315 l 596 0 l 822 0 l 538 469 l 800 910 l 583 910 l 428 621 l 274 910 l 49 910 l 314 464 z "},"Y":{"ha":853,"x_min":0,"x_max":0,"o":"m 832 910 l 614 910 l 429 575 l 246 910 l 21 910 l 326 383 l 326 0 l 526 0 l 526 385 z "},"Z":{"ha":853,"x_min":0,"x_max":0,"o":"m 74 0 l 781 0 l 781 175 l 332 175 l 332 181 l 767 767 l 767 910 l 88 910 l 88 733 l 499 733 l 499 726 l 74 143 z "},"a":{"ha":853,"x_min":0,"x_max":0,"o":"m 721 207 l 721 454 b 406 681 721 610 639 681 b 131 660 354 681 263 676 l 149 501 b 396 524 267 517 351 524 b 531 450 510 524 531 501 l 531 418 l 301 396 b 61 182 115 376 61 311 b 265 -15 61 53 144 -15 b 525 71 368 -15 457 17 l 542 71 b 696 -1 564 26 610 4 l 808 -8 l 825 140 l 763 146 b 721 207 728 149 721 161 z m 326 131 b 256 196 279 131 256 157 b 354 278 256 242 275 267 l 531 301 l 531 213 b 326 131 436 146 374 131 z "},"b":{"ha":853,"x_min":0,"x_max":0,"o":"m 306 986 l 104 986 l 104 0 l 126 0 l 222 32 b 414 -11 282 3 347 -11 b 792 350 660 -11 792 147 b 507 681 792 564 665 681 b 306 600 431 681 365 657 z m 426 515 b 583 335 522 515 583 449 b 399 156 583 238 519 156 b 306 179 368 156 340 161 l 306 471 b 426 515 350 503 388 515 z "},"c":{"ha":853,"x_min":0,"x_max":0,"o":"m 468 511 b 681 433 524 511 575 504 l 774 576 b 458 681 638 665 551 681 b 76 331 239 681 76 522 b 438 -19 76 118 219 -19 b 781 88 551 -19 644 4 l 690 224 b 457 150 579 163 522 150 b 288 332 363 150 288 215 b 468 511 288 438 361 511 z "},"d":{"ha":853,"x_min":0,"x_max":0,"o":"m 346 -15 b 561 79 428 -15 497 11 l 574 0 l 749 0 l 749 986 l 547 986 l 547 639 b 403 669 504 663 458 669 b 61 315 203 669 61 524 b 346 -15 61 101 188 -15 z m 269 331 b 444 508 269 438 336 508 b 547 481 478 508 510 503 l 547 193 b 426 150 503 163 465 150 b 269 331 331 150 269 215 z "},"e":{"ha":853,"x_min":0,"x_max":0,"o":"m 532 139 b 276 267 363 146 296 175 l 765 267 b 774 353 769 288 774 318 b 438 683 774 547 642 683 b 79 326 215 683 79 521 b 465 -15 79 108 185 -11 l 633 -18 l 640 135 z m 439 533 b 582 401 522 533 575 482 l 276 401 b 439 533 296 488 354 533 z "},"f":{"ha":853,"x_min":0,"x_max":0,"o":"m 94 469 l 300 469 l 300 0 l 500 0 l 500 469 l 728 469 l 728 639 l 493 639 l 493 708 b 603 818 493 785 517 811 l 788 831 l 774 1000 l 585 988 b 300 689 364 972 300 914 l 300 639 l 94 639 z "},"g":{"ha":853,"x_min":0,"x_max":0,"o":"m 61 335 b 339 18 61 131 192 18 b 550 97 422 18 489 39 l 550 14 b 393 -150 550 -92 508 -143 l 179 -162 l 186 -332 l 414 -321 b 750 18 681 -307 750 -208 l 750 671 l 735 671 l 621 643 b 440 681 564 668 503 681 b 61 335 194 681 61 528 z m 269 350 b 456 514 269 438 335 514 b 550 490 486 514 515 508 l 550 226 b 426 183 506 196 467 183 b 269 350 332 183 269 243 z "},"h":{"ha":853,"x_min":0,"x_max":0,"o":"m 310 986 l 108 986 l 108 0 l 310 0 l 310 389 b 485 488 389 454 444 488 b 550 417 532 488 550 464 l 550 0 l 751 0 l 751 454 b 561 678 751 603 693 678 b 310 563 483 678 411 646 z "},"i":{"ha":853,"x_min":0,"x_max":0,"o":"m 443 803 b 589 922 532 803 589 846 b 444 1043 589 1001 538 1043 b 300 922 354 1043 300 993 b 443 803 300 844 353 803 z m 129 169 l 129 0 l 767 0 l 767 169 l 547 169 l 547 663 l 157 663 l 157 493 l 346 493 l 346 169 z "},"j":{"ha":853,"x_min":0,"x_max":0,"o":"m 544 803 b 690 919 633 803 690 844 b 546 1036 690 996 639 1036 b 401 918 456 1036 401 988 b 544 803 401 843 456 803 z m 650 8 l 650 663 l 147 663 l 147 493 l 449 493 l 449 -10 b 318 -144 449 -103 417 -137 l 140 -156 l 147 -328 l 333 -319 b 650 8 568 -308 650 -239 z "},"k":{"ha":853,"x_min":0,"x_max":0,"o":"m 314 986 l 114 986 l 114 0 l 314 0 l 314 303 l 560 0 l 818 0 l 818 3 l 517 340 l 814 660 l 814 663 l 567 663 l 314 363 z "},"l":{"ha":853,"x_min":0,"x_max":0,"o":"m 299 283 b 576 0 299 74 367 10 l 758 -8 l 765 164 l 614 172 b 499 297 528 176 499 208 l 499 986 l 78 986 l 78 817 l 299 817 z "},"m":{"ha":853,"x_min":0,"x_max":0,"o":"m 194 663 l 57 663 l 57 0 l 228 0 l 228 417 b 304 451 261 444 283 451 b 351 400 336 451 351 435 l 351 0 l 510 0 l 510 419 b 582 451 542 444 564 451 b 631 397 614 451 631 436 l 631 0 l 801 0 l 801 518 b 694 668 801 625 771 668 b 540 535 635 668 607 651 l 506 535 b 407 668 506 632 472 668 b 240 535 346 668 307 651 l 211 535 z "},"n":{"ha":853,"x_min":0,"x_max":0,"o":"m 283 663 l 108 663 l 108 0 l 310 0 l 310 389 b 485 488 389 454 444 488 b 550 417 532 488 550 464 l 550 0 l 751 0 l 751 454 b 561 678 751 603 693 678 b 294 550 479 678 404 642 z "},"o":{"ha":853,"x_min":0,"x_max":0,"o":"m 424 -21 b 788 332 638 -21 788 128 b 429 683 788 540 639 683 b 65 331 215 683 65 533 b 424 -21 65 121 214 -21 z m 426 146 b 274 332 329 146 274 207 b 426 517 274 461 335 517 b 579 331 524 517 579 454 b 426 146 579 201 519 146 z "},"p":{"ha":853,"x_min":0,"x_max":0,"o":"m 104 -319 l 306 -319 l 306 54 b 478 -7 363 6 417 -7 b 792 347 650 -7 792 135 b 514 678 792 560 663 678 b 293 575 426 678 360 646 l 279 663 l 104 663 z m 426 513 b 583 332 522 513 583 446 b 403 156 583 233 519 156 b 306 185 374 156 343 163 l 306 469 b 426 513 350 500 386 513 z "},"q":{"ha":853,"x_min":0,"x_max":0,"o":"m 61 313 b 346 -18 61 99 188 -18 b 547 63 422 -18 488 6 l 547 -319 l 749 -319 l 749 663 l 726 663 l 631 631 b 439 674 571 660 506 674 b 61 313 193 674 61 515 z m 269 328 b 454 507 269 425 333 507 b 547 483 485 507 513 501 l 547 190 b 426 147 503 160 465 147 b 269 328 331 147 269 214 z "},"r":{"ha":853,"x_min":0,"x_max":0,"o":"m 78 169 l 78 0 l 594 0 l 594 169 l 419 169 l 419 326 b 672 456 532 435 561 446 l 792 467 l 775 669 l 656 660 b 407 479 583 654 529 636 l 396 663 l 106 663 l 106 493 l 219 493 l 219 169 z "},"s":{"ha":853,"x_min":0,"x_max":0,"o":"m 750 199 b 538 401 750 303 713 367 l 394 429 b 321 481 338 442 321 450 b 443 525 321 510 346 525 b 693 499 494 525 582 517 l 710 660 b 450 682 610 675 511 682 b 115 469 211 682 115 597 b 318 276 115 371 151 308 l 465 249 b 546 190 529 235 546 221 b 413 138 546 160 517 138 b 125 167 358 138 253 146 l 107 6 b 406 -19 207 -10 288 -19 b 750 199 633 -19 750 79 z "},"t":{"ha":853,"x_min":0,"x_max":0,"o":"m 274 275 b 535 0 274 68 319 10 l 747 -8 l 763 164 l 583 175 b 474 296 496 181 474 206 l 474 493 l 729 493 l 729 663 l 469 663 l 469 889 l 276 889 l 276 663 l 69 663 l 69 493 l 274 493 z "},"u":{"ha":853,"x_min":0,"x_max":0,"o":"m 744 0 l 744 663 l 543 663 l 543 274 b 368 175 464 208 408 175 b 303 246 321 175 303 199 l 303 663 l 101 663 l 101 208 b 292 -15 101 60 160 -15 b 558 113 374 -15 449 19 l 568 0 z "},"v":{"ha":853,"x_min":0,"x_max":0,"o":"m 47 663 l 301 0 l 553 0 l 806 663 l 594 663 l 431 178 l 267 663 z "},"w":{"ha":853,"x_min":0,"x_max":0,"o":"m 697 0 l 814 663 l 621 663 l 561 247 l 436 589 l 417 589 l 292 244 l 233 663 l 40 663 l 154 0 l 331 0 l 422 272 l 514 0 z "},"x":{"ha":853,"x_min":0,"x_max":0,"o":"m 49 0 l 282 0 l 424 224 l 565 0 l 806 0 l 549 340 l 785 663 l 551 663 l 429 467 l 306 663 l 64 663 l 301 338 z "},"y":{"ha":853,"x_min":0,"x_max":0,"o":"m 496 -126 l 807 663 l 594 663 l 433 208 l 268 663 l 47 663 l 326 -32 l 308 -78 b 171 -150 286 -133 265 -147 l 44 -157 l 49 -328 l 239 -319 b 496 -126 383 -312 436 -278 z "},"z":{"ha":853,"x_min":0,"x_max":0,"o":"m 107 0 l 749 0 l 749 157 l 378 157 l 378 161 l 726 524 l 726 663 l 122 663 l 122 506 l 457 506 l 457 501 l 107 138 z "},".":{"ha":853,"x_min":0,"x_max":0,"o":"m 425 -21 b 597 131 535 -21 597 31 b 426 281 597 233 543 281 b 256 129 314 281 256 222 b 425 -21 256 29 313 -21 z "},",":{"ha":853,"x_min":0,"x_max":0,"o":"m 110 -237 l 292 -237 b 607 222 471 -107 564 14 l 307 222 b 110 -235 286 35 246 -50 z "},":":{"ha":853,"x_min":0,"x_max":0,"o":"m 425 406 b 597 544 535 406 597 451 b 426 682 597 639 543 682 b 256 543 314 682 256 629 b 425 406 256 450 315 406 z m 425 -21 b 597 118 535 -21 597 26 b 426 257 597 213 543 257 b 256 118 314 257 256 203 b 425 -21 256 25 315 -21 z "},";":{"ha":853,"x_min":0,"x_max":0,"o":"m 447 406 b 619 544 557 406 619 451 b 450 682 619 639 567 682 b 279 543 336 682 279 629 b 447 406 279 450 338 406 z m 101 -237 l 282 -237 b 599 222 463 -107 554 14 l 299 222 b 101 -235 278 35 238 -50 z "},"?":{"ha":853,"x_min":0,"x_max":0,"o":"m 435 385 b 507 501 453 467 457 478 l 596 543 b 769 758 710 597 769 646 b 457 1007 769 904 690 1007 b 85 961 347 1007 260 999 l 115 788 b 438 840 271 828 368 840 b 564 758 528 840 564 808 b 454 664 564 721 547 707 l 361 621 b 271 525 290 588 271 563 b 299 385 271 496 276 467 z m 357 -21 b 526 101 478 -21 526 18 b 360 224 526 183 489 224 b 190 101 231 224 190 178 b 357 -21 190 19 232 -21 z "},"!":{"ha":853,"x_min":0,"x_max":0,"o":"m 358 385 l 494 385 l 611 986 l 243 986 z m 415 -21 b 585 101 536 -21 585 18 b 418 224 585 183 547 224 b 249 101 289 224 249 178 b 415 -21 249 19 290 -21 z "},"¿":{"ha":853,"x_min":0,"x_max":0,"o":"m 503 1007 b 333 885 382 1007 333 968 b 500 763 333 803 371 763 b 669 885 629 763 669 808 b 503 1007 669 967 628 1007 z m 425 601 b 353 485 407 519 403 508 l 264 443 b 90 228 150 389 90 340 b 403 -21 90 82 169 -21 b 775 25 513 -21 600 -12 l 744 199 b 422 146 589 158 492 146 b 296 228 332 146 296 178 b 406 322 296 265 313 279 l 499 365 b 589 461 569 399 589 424 b 561 601 589 490 583 519 z "},"¡":{"ha":853,"x_min":0,"x_max":0,"o":"m 439 1007 b 269 885 318 1007 269 968 b 436 763 269 803 307 763 b 606 885 565 763 606 808 b 439 1007 606 967 564 1007 z m 496 601 l 360 601 l 243 0 l 611 0 z "},"…":{"ha":853,"x_min":0,"x_max":0,"o":"m 426 -21 b 521 104 489 -21 521 15 b 429 225 521 185 494 225 b 332 104 364 225 332 178 b 426 -21 332 11 369 -21 z m 711 -21 b 806 104 774 -21 806 15 b 714 225 806 185 779 225 b 617 104 649 225 617 178 b 711 -21 617 11 654 -21 z m 142 -21 b 236 104 204 -21 236 15 b 144 225 236 185 210 225 b 47 104 79 225 47 178 b 142 -21 47 11 85 -21 z "},"‥":{"ha":853,"x_min":0,"x_max":0,"o":"m 211 -21 b 346 131 297 -21 346 31 b 214 281 346 233 304 281 b 81 129 125 281 81 222 b 211 -21 81 29 124 -21 z m 639 -21 b 772 131 724 -21 772 31 b 639 281 772 233 731 281 b 507 129 551 281 507 222 b 639 -21 507 29 550 -21 z "},"“":{"ha":853,"x_min":0,"x_max":0,"o":"m 465 986 l 315 986 b 26 526 160 864 85 735 l 268 526 b 465 983 303 713 343 799 z m 831 986 l 681 986 b 393 526 525 864 451 735 l 635 526 b 831 983 669 713 708 799 z "},"”":{"ha":853,"x_min":0,"x_max":0,"o":"m 388 526 l 538 526 b 826 986 693 649 768 778 l 585 986 b 388 529 550 800 510 714 z m 21 526 l 172 526 b 460 986 328 649 401 778 l 218 986 b 21 529 183 800 143 714 z "},"„":{"ha":853,"x_min":0,"x_max":0,"o":"m 388 -237 l 538 -237 b 826 222 693 -115 768 14 l 585 222 b 388 -235 550 36 510 -50 z m 21 -237 l 172 -237 b 460 222 328 -115 401 14 l 218 222 b 21 -235 183 36 143 -50 z "},"‘":{"ha":853,"x_min":0,"x_max":0,"o":"m 694 986 l 513 986 b 197 529 335 860 239 733 l 496 529 b 694 983 515 710 560 804 z "},"’":{"ha":853,"x_min":0,"x_max":0,"o":"m 158 529 l 340 529 b 656 986 518 654 614 782 l 357 986 b 158 532 338 804 293 711 z "},"‚":{"ha":853,"x_min":0,"x_max":0,"o":"m 158 -236 l 340 -236 b 656 221 518 -111 614 17 l 357 221 b 158 -233 338 39 293 -54 z "},"«":{"ha":853,"x_min":0,"x_max":0,"o":"m 388 -21 l 388 158 l 239 335 l 388 508 l 388 683 l 69 413 l 69 251 z m 769 -21 l 769 158 l 621 335 l 769 508 l 769 683 l 450 413 l 450 251 z "},"»":{"ha":853,"x_min":0,"x_max":0,"o":"m 465 683 l 465 504 l 614 328 l 465 154 l 465 -21 l 783 250 l 783 411 z m 83 683 l 83 504 l 232 328 l 83 154 l 83 -21 l 403 250 l 403 411 z "},"‹":{"ha":853,"x_min":0,"x_max":0,"o":"m 639 -21 l 639 172 l 442 335 l 639 493 l 639 683 l 189 413 l 189 251 z "},"›":{"ha":853,"x_min":0,"x_max":0,"o":"m 214 683 l 214 490 l 411 328 l 214 169 l 214 -21 l 664 250 l 664 411 z "},"(":{"ha":853,"x_min":0,"x_max":0,"o":"m 136 453 b 661 -210 136 207 311 -21 l 771 -83 b 340 457 438 92 340 267 b 771 997 340 647 438 822 l 661 1124 b 136 453 310 935 136 701 z "},")":{"ha":853,"x_min":0,"x_max":0,"o":"m 717 461 b 192 1124 717 707 542 935 l 82 997 b 513 457 415 822 513 647 b 82 -83 513 267 415 92 l 192 -210 b 717 461 543 -21 717 213 z "},"[":{"ha":853,"x_min":0,"x_max":0,"o":"m 214 -206 l 757 -206 l 757 -39 l 415 -39 l 415 942 l 757 942 l 757 1107 l 214 1107 z "},"]":{"ha":853,"x_min":0,"x_max":0,"o":"m 96 942 l 438 942 l 438 -39 l 96 -39 l 96 -206 l 639 -206 l 639 1107 l 96 1107 z "},"{":{"ha":853,"x_min":0,"x_max":0,"o":"m 240 -4 b 440 -153 240 -79 282 -128 l 789 -206 l 814 -37 l 513 6 b 471 36 481 11 471 19 b 504 85 471 44 476 57 l 571 153 b 646 274 633 217 646 243 b 254 446 646 331 621 379 l 254 474 b 646 646 622 540 646 589 b 571 767 646 676 633 703 l 504 835 b 471 883 476 864 471 875 b 513 914 471 900 481 908 l 814 957 l 789 1125 l 440 1072 b 240 924 282 1047 240 999 b 314 782 240 881 258 839 l 381 714 b 414 663 410 683 414 674 b 86 543 414 635 400 617 l 86 376 b 414 257 400 301 414 285 b 381 206 414 247 410 236 l 314 138 b 240 -4 258 81 240 39 z "},"}":{"ha":853,"x_min":0,"x_max":0,"o":"m 613 -4 b 539 138 613 39 594 81 l 472 206 b 439 257 443 236 439 247 b 767 376 439 285 453 301 l 767 543 b 439 663 453 618 439 635 b 472 714 439 672 443 683 l 539 782 b 613 924 594 839 613 881 b 413 1072 613 999 571 1047 l 64 1125 l 39 957 l 340 914 b 382 883 372 908 382 900 b 349 835 382 875 376 863 l 282 767 b 207 646 219 703 207 676 b 599 474 207 589 232 540 l 599 446 b 207 274 232 379 207 331 b 282 153 207 243 219 217 l 349 85 b 382 36 376 57 382 44 b 340 6 382 19 372 11 l 39 -37 l 64 -206 l 413 -153 b 613 -4 571 -128 613 -79 z "},"/":{"ha":853,"x_min":0,"x_max":0,"o":"m 797 1049 l 610 1049 l 56 -139 l 244 -139 z "},"\\":{"ha":853,"x_min":0,"x_max":0,"o":"m 56 1049 l 608 -139 l 797 -139 l 243 1049 z "},"|":{"ha":853,"x_min":0,"x_max":0,"o":"m 517 1049 l 336 1049 l 336 -139 l 517 -139 z "},"-":{"ha":853,"x_min":0,"x_max":0,"o":"m 167 483 l 167 283 l 686 283 l 686 483 z "},"–":{"ha":853,"x_min":0,"x_max":0,"o":"m 111 483 l 111 283 l 742 283 l 742 483 z "},"—":{"ha":853,"x_min":0,"x_max":0,"o":"m 69 483 l 69 283 l 783 283 l 783 483 z "},"·":{"ha":853,"x_min":0,"x_max":0,"o":"m 425 308 b 597 460 535 308 597 360 b 426 610 597 563 543 610 b 256 458 314 610 256 551 b 425 308 256 358 313 308 z "},"•":{"ha":853,"x_min":0,"x_max":0,"o":"m 428 679 b 200 458 278 679 200 586 b 428 239 200 303 296 239 b 653 458 575 239 653 331 b 428 679 653 614 558 679 z "},"_":{"ha":853,"x_min":0,"x_max":0,"o":"m 108 -36 l 108 -224 l 744 -224 l 744 -36 z "},"&":{"ha":853,"x_min":0,"x_max":0,"o":"m 664 910 b 460 929 567 925 503 929 b 192 703 292 929 192 826 b 263 507 192 638 211 583 l 265 503 b 61 238 104 447 61 374 b 311 -19 61 72 160 -19 b 543 96 418 -19 476 10 l 603 -1 l 810 -1 l 650 247 l 794 518 l 649 578 l 553 383 l 407 610 b 372 701 379 653 372 676 b 476 776 372 749 410 776 b 646 761 517 776 564 772 z m 242 261 b 340 388 242 324 253 358 l 458 210 b 344 146 422 154 390 146 b 242 261 281 146 242 181 z "},"@":{"ha":853,"x_min":0,"x_max":0,"o":"m 683 -83 l 668 -11 b 481 -33 589 -29 529 -33 b 167 444 271 -33 167 82 b 456 931 167 826 276 931 b 683 715 589 931 658 900 l 557 715 b 283 449 375 715 283 640 b 519 179 283 261 358 179 b 778 497 686 179 778 249 b 464 1007 778 918 672 1007 b 83 438 229 1007 83 871 b 474 -110 83 33 211 -110 b 683 -83 542 -110 600 -101 z m 415 447 b 554 596 415 557 456 596 l 693 596 b 694 494 694 565 694 531 b 525 299 694 336 649 299 b 415 447 454 299 415 338 z "},"℗":{"ha":853,"x_min":0,"x_max":0,"o":"m 774 456 b 426 1007 774 875 642 1007 b 79 456 213 1007 79 875 b 426 -97 79 36 213 -97 b 774 456 642 -97 774 36 z m 149 456 b 426 944 149 840 254 944 b 704 456 600 944 704 840 b 426 -35 704 71 600 -35 b 149 456 254 -35 149 71 z m 290 764 l 290 146 l 404 146 l 404 338 l 415 338 b 613 549 544 338 613 394 b 431 764 613 707 554 764 z m 428 658 b 499 546 478 658 499 636 b 422 447 499 467 475 447 l 404 447 l 404 658 z "},"©":{"ha":853,"x_min":0,"x_max":0,"o":"m 774 456 b 426 1007 774 875 642 1007 b 79 456 213 1007 79 875 b 426 -97 79 36 213 -97 b 774 456 642 -97 774 36 z m 149 456 b 426 944 149 840 254 944 b 704 456 600 944 704 840 b 426 -35 704 71 600 -35 b 149 456 254 -35 149 71 z m 432 135 b 618 263 490 135 553 147 l 539 317 b 440 246 500 250 469 246 b 360 456 393 246 360 313 b 444 664 360 586 396 664 b 536 567 476 664 493 654 l 622 622 b 444 775 561 751 515 775 b 244 453 329 775 244 649 b 432 135 244 256 311 135 z "},"®":{"ha":853,"x_min":0,"x_max":0,"o":"m 94 646 b 426 289 94 431 222 289 b 758 649 628 289 758 432 b 426 1007 758 869 629 1007 b 94 646 224 1007 94 867 z m 426 338 b 150 649 258 338 150 457 b 426 957 150 840 256 957 b 704 646 599 957 704 839 b 426 338 704 456 599 338 z m 592 479 l 517 575 b 458 625 497 600 481 613 l 458 628 b 565 733 536 642 565 679 b 440 839 565 800 526 839 l 301 839 l 301 476 l 388 476 l 388 606 b 431 563 406 599 415 588 l 486 476 l 592 476 z m 428 771 b 479 726 464 771 479 756 b 394 671 479 700 468 681 l 388 669 l 388 771 z "},"℠":{"ha":853,"x_min":0,"x_max":0,"o":"m 197 632 b 63 667 164 632 113 646 l 44 585 b 197 551 101 561 150 551 b 344 678 288 551 344 596 b 246 808 344 751 318 779 l 197 828 b 149 876 158 843 149 853 b 201 915 149 897 164 915 b 318 892 232 915 269 908 l 332 974 b 201 996 281 989 246 996 b 61 875 104 996 61 936 b 149 750 61 817 83 776 l 196 731 b 256 676 242 713 256 700 b 197 632 256 649 236 632 z m 779 986 l 675 986 l 606 825 l 533 986 l 429 986 l 413 561 l 503 561 l 499 907 l 590 694 l 619 694 l 708 911 l 706 561 l 794 561 z "},"™":{"ha":853,"x_min":0,"x_max":0,"o":"m 51 890 l 160 890 l 160 561 l 263 561 l 263 890 l 368 890 l 368 986 l 51 986 z m 779 986 l 675 986 l 606 825 l 533 986 l 429 986 l 413 561 l 503 561 l 499 907 l 590 694 l 619 694 l 708 911 l 706 561 l 794 561 z "},"*":{"ha":853,"x_min":0,"x_max":0,"o":"m 143 324 l 272 213 b 428 479 332 281 351 385 b 585 213 504 385 525 281 l 714 324 b 474 517 656 393 558 426 b 778 561 589 551 693 532 l 719 724 b 457 572 635 694 569 618 b 514 875 463 693 514 785 l 342 875 b 399 572 342 785 393 696 b 136 724 286 618 221 694 l 79 561 b 383 517 164 532 267 551 b 143 324 299 426 201 393 z "},"†":{"ha":853,"x_min":0,"x_max":0,"o":"m 749 582 l 749 740 b 463 689 654 740 557 699 b 513 986 469 789 513 889 l 340 986 b 393 689 340 889 385 788 b 104 740 296 697 194 740 l 104 582 b 394 638 193 582 296 628 b 340 0 390 425 340 211 l 513 0 b 461 638 513 211 465 425 b 749 582 557 628 654 582 z "},"‡":{"ha":853,"x_min":0,"x_max":0,"o":"m 728 249 l 728 407 b 461 356 639 407 550 365 l 461 638 b 749 582 558 628 658 582 l 749 740 b 463 689 656 740 558 699 b 513 986 469 789 513 888 l 340 986 b 393 689 340 888 386 788 b 104 740 297 697 203 740 l 104 582 b 394 638 200 582 297 628 l 394 356 b 126 407 306 365 218 407 l 126 249 b 393 304 218 249 306 294 b 344 0 388 203 344 101 l 508 0 b 461 303 508 100 468 203 b 728 249 550 293 639 249 z "},"§":{"ha":853,"x_min":0,"x_max":0,"o":"m 64 251 b 276 21 64 168 106 90 l 447 -49 b 519 -114 510 -74 519 -89 b 401 -168 519 -144 497 -168 b 122 -128 332 -168 240 -154 l 100 -297 b 396 -333 203 -319 288 -333 b 719 -103 625 -333 719 -233 b 607 96 719 -4 678 53 b 790 342 757 179 790 250 b 578 572 790 425 749 503 l 407 642 b 335 707 344 667 335 682 b 453 761 335 738 357 761 b 732 721 522 761 614 747 l 754 890 b 458 926 651 913 567 926 b 135 696 229 926 135 826 b 247 497 135 597 176 540 b 64 251 97 414 64 343 z m 361 201 b 265 297 279 235 265 263 b 378 439 265 328 268 367 l 493 392 b 589 296 575 358 589 331 b 476 154 589 265 586 226 z "},"¶":{"ha":853,"x_min":0,"x_max":0,"o":"m 408 332 l 408 767 l 533 767 l 533 0 l 719 0 l 719 910 l 438 910 b 92 621 203 910 92 811 b 403 332 92 447 206 332 z "},"+":{"ha":853,"x_min":0,"x_max":0,"o":"m 86 378 l 335 378 l 335 110 l 517 110 l 517 378 l 767 378 l 767 539 l 517 539 l 517 807 l 335 807 l 335 539 l 86 539 z "},"÷":{"ha":853,"x_min":0,"x_max":0,"o":"m 426 672 b 572 781 521 672 572 706 b 428 890 572 854 528 890 b 283 781 332 890 283 849 b 426 672 283 706 331 672 z m 86 378 l 765 378 l 765 539 l 86 539 z m 426 31 b 572 138 521 31 572 63 b 428 247 572 211 528 247 b 283 138 332 247 283 206 b 426 31 283 63 331 31 z "},"−":{"ha":853,"x_min":0,"x_max":0,"o":"m 86 378 l 765 378 l 765 539 l 86 539 z "},"=":{"ha":853,"x_min":0,"x_max":0,"o":"m 113 533 l 740 533 l 740 694 l 113 694 z m 113 224 l 740 224 l 740 383 l 113 383 z "},"≠":{"ha":853,"x_min":0,"x_max":0,"o":"m 113 224 l 250 224 l 147 0 l 301 0 l 389 224 l 740 224 l 740 383 l 446 371 l 481 460 l 521 543 l 740 533 l 740 694 l 593 694 l 696 910 l 542 910 l 454 694 l 113 694 l 113 533 l 394 546 l 360 460 l 321 374 l 113 383 z "},"~":{"ha":853,"x_min":0,"x_max":0,"o":"m 806 606 l 651 647 b 565 467 601 492 588 467 b 451 542 549 467 539 475 b 269 639 350 618 324 639 b 47 314 175 639 122 589 l 201 272 b 288 453 251 428 265 453 b 401 378 304 453 315 444 b 583 281 501 301 529 281 b 806 606 678 281 731 331 z "},"≈":{"ha":853,"x_min":0,"x_max":0,"o":"m 796 765 l 653 811 b 572 654 597 667 592 654 b 456 729 554 654 544 664 b 265 826 343 813 299 826 b 56 544 185 826 146 792 l 199 499 b 279 656 254 643 260 656 b 396 581 297 656 307 646 b 586 483 508 497 553 483 b 796 765 667 483 706 518 z m 796 372 l 653 418 b 572 261 597 274 592 261 b 456 336 554 261 544 271 b 265 433 343 419 299 433 b 56 151 185 433 146 399 l 199 106 b 279 263 254 250 260 263 b 396 188 297 263 307 253 b 586 90 508 104 553 90 b 796 372 667 90 706 125 z "},"×":{"ha":853,"x_min":0,"x_max":0,"o":"m 186 100 l 426 349 l 664 101 l 789 224 l 540 461 l 789 701 l 667 821 l 426 574 l 189 821 l 64 697 l 313 461 l 64 221 z "},"<":{"ha":853,"x_min":0,"x_max":0,"o":"m 756 72 l 756 260 l 279 446 l 756 631 l 756 818 l 81 538 l 81 356 z "},">":{"ha":853,"x_min":0,"x_max":0,"o":"m 772 356 l 772 538 l 97 818 l 97 631 l 574 446 l 97 260 l 97 72 z "},"≤":{"ha":853,"x_min":0,"x_max":0,"o":"m 728 267 l 728 454 l 325 599 l 728 742 l 728 929 l 108 690 l 108 508 z m 108 0 l 728 0 l 728 161 l 108 161 z "},"≥":{"ha":853,"x_min":0,"x_max":0,"o":"m 125 267 l 744 508 l 744 690 l 125 929 l 125 742 l 528 599 l 125 454 z m 744 0 l 744 161 l 125 161 l 125 0 z "},"±":{"ha":853,"x_min":0,"x_max":0,"o":"m 86 508 l 335 508 l 335 268 l 517 268 l 517 508 l 765 508 l 765 669 l 517 669 l 517 910 l 335 910 l 335 669 l 86 669 z m 765 0 l 765 160 l 86 160 l 86 0 z "},"^":{"ha":853,"x_min":0,"x_max":0,"o":"m 44 376 l 240 376 l 425 792 l 608 376 l 808 376 l 553 910 l 300 910 z "},"µ":{"ha":853,"x_min":0,"x_max":0,"o":"m 347 -15 b 558 110 413 -15 464 21 l 568 0 l 744 0 l 744 663 l 543 663 l 543 274 b 368 175 464 208 408 175 b 303 246 321 175 303 199 l 303 663 l 101 663 l 101 -319 l 315 -319 l 315 -293 l 268 11 b 347 -15 292 -6 318 -15 z "},"#":{"ha":853,"x_min":0,"x_max":0,"o":"m 47 194 l 196 194 l 161 -17 l 285 -17 l 321 194 l 444 194 l 410 -17 l 535 -17 l 571 194 l 761 194 l 761 388 l 603 388 l 626 531 l 806 531 l 806 724 l 660 724 l 693 925 l 568 925 l 533 724 l 408 724 l 443 925 l 318 925 l 285 724 l 92 724 l 92 531 l 253 531 l 229 388 l 47 388 z m 489 307 l 314 307 l 364 608 l 539 608 z "},"%":{"ha":853,"x_min":0,"x_max":0,"o":"m 54 686 b 261 440 54 535 122 440 b 474 688 403 440 474 536 b 263 931 474 839 403 931 b 54 686 124 931 54 838 z m 572 525 l 833 908 l 833 917 l 653 917 l 500 525 z m 261 826 b 356 686 326 826 356 774 b 263 547 356 596 328 547 b 171 688 197 547 171 597 b 261 826 171 774 196 826 z m 379 222 b 590 -21 379 71 450 -21 b 799 224 729 -21 799 72 b 592 469 799 375 731 469 b 379 222 450 469 379 374 z m 281 385 l 19 1 l 19 -7 l 200 -7 l 353 385 z m 592 83 b 497 224 526 83 497 136 b 590 363 497 314 525 363 b 682 222 656 363 682 313 b 592 83 682 136 657 83 z "},"\"":{"ha":853,"x_min":0,"x_max":0,"o":"m 546 499 l 724 499 l 747 986 l 522 986 z m 161 499 l 339 499 l 363 986 l 138 986 z "},"'":{"ha":853,"x_min":0,"x_max":0,"o":"m 324 499 l 529 499 l 553 986 l 300 986 z "},"ª":{"ha":853,"x_min":0,"x_max":0,"o":"m 650 614 l 650 796 b 399 961 650 910 585 961 b 188 946 360 961 289 958 l 200 824 b 392 839 292 835 357 839 b 504 793 486 839 504 825 l 504 772 l 322 757 b 136 596 178 744 136 693 b 296 451 136 501 201 451 b 500 514 376 451 447 472 l 513 514 b 632 461 529 482 565 464 l 715 457 l 726 565 l 681 569 b 650 614 656 572 650 581 z m 340 565 b 286 606 304 565 286 582 b 361 664 286 639 300 657 l 504 682 l 504 626 b 340 565 432 575 379 565 z m 165 335 l 165 224 l 700 224 l 700 335 z "},"º":{"ha":853,"x_min":0,"x_max":0,"o":"m 422 451 b 696 707 583 451 696 560 b 426 961 696 857 585 961 b 151 706 264 961 151 853 b 422 451 151 554 263 451 z m 424 579 b 310 707 350 579 310 621 b 424 833 310 796 354 833 b 539 706 497 833 539 792 b 424 579 539 617 494 579 z m 167 335 l 167 224 l 701 224 l 701 335 z "},"°":{"ha":853,"x_min":0,"x_max":0,"o":"m 129 676 b 426 394 129 506 253 394 b 724 678 600 394 724 508 b 428 961 724 849 601 961 b 129 676 254 961 129 847 z m 426 821 b 565 676 504 821 565 763 b 428 535 565 592 507 535 b 289 678 346 535 289 593 b 426 821 289 763 344 821 z "},"$":{"ha":853,"x_min":0,"x_max":0,"o":"m 414 165 b 111 225 338 165 242 186 l 75 57 b 369 1 183 25 278 6 l 369 -197 l 496 -197 l 496 6 b 760 268 672 31 760 135 b 535 528 760 413 697 481 l 443 554 b 304 669 324 589 304 618 b 438 744 304 715 339 744 b 701 707 503 744 589 731 l 724 875 b 496 908 643 892 575 904 l 496 1106 l 369 1106 l 369 906 b 104 653 196 882 104 776 b 328 393 104 518 171 442 l 414 365 b 558 254 539 325 558 306 b 414 165 558 199 522 165 z "},"£":{"ha":853,"x_min":0,"x_max":0,"o":"m 79 0 l 782 0 l 782 167 l 317 167 b 481 363 433 268 469 319 l 697 363 l 697 471 l 474 471 b 394 567 461 499 438 529 b 325 675 331 622 325 642 b 444 764 325 724 371 764 b 706 647 513 764 556 742 l 799 799 b 425 931 631 897 544 931 b 121 686 228 931 121 807 b 228 507 121 615 146 576 b 290 453 256 483 276 467 l 100 453 l 100 347 l 294 347 b 79 156 264 315 204 261 z "},"¥":{"ha":853,"x_min":0,"x_max":0,"o":"m 106 172 l 333 172 l 333 0 l 519 0 l 519 172 l 747 172 l 747 278 l 519 278 l 519 393 l 747 393 l 747 499 l 553 499 l 832 910 l 614 910 l 429 611 l 246 910 l 21 910 l 299 499 l 106 499 l 106 393 l 333 393 l 333 278 l 106 278 z "},"€":{"ha":853,"x_min":0,"x_max":0,"o":"m 56 285 l 179 285 b 532 -21 196 117 318 -21 b 776 13 621 -21 692 -6 l 754 182 b 526 144 657 160 583 144 b 378 290 424 144 383 203 l 596 290 l 596 396 l 376 396 l 376 514 l 596 514 l 596 619 l 378 619 b 526 761 385 704 425 761 b 754 724 583 761 657 746 l 776 893 b 532 926 692 911 621 926 b 179 625 319 926 199 792 l 56 625 l 56 514 l 176 514 l 176 396 l 56 396 z "},"₦":{"ha":853,"x_min":0,"x_max":0,"o":"m 297 0 l 289 265 l 413 265 l 471 0 l 715 0 l 715 265 l 822 265 l 822 371 l 715 371 l 715 547 l 822 547 l 822 653 l 715 653 l 715 910 l 556 910 l 564 653 l 438 653 l 382 910 l 136 910 l 136 653 l 31 653 l 31 547 l 136 547 l 136 371 l 31 371 l 31 265 l 136 265 l 136 0 z m 269 832 l 289 832 l 399 333 l 286 333 z m 453 585 l 567 585 l 583 78 l 564 78 z "},"₱":{"ha":853,"x_min":0,"x_max":0,"o":"m 31 554 l 136 554 l 136 0 l 338 0 l 338 296 l 381 296 b 735 554 576 296 711 394 l 832 554 l 832 660 l 735 660 b 396 910 713 813 594 910 l 136 910 l 136 660 l 31 660 z m 410 743 b 535 603 494 743 535 693 b 403 458 535 513 492 458 l 338 458 l 338 743 z "},"₺":{"ha":853,"x_min":0,"x_max":0,"o":"m 39 182 l 136 243 l 136 0 l 417 0 b 799 325 626 0 750 97 l 618 360 b 414 165 586 221 519 165 l 338 165 l 338 350 l 600 499 l 600 614 l 338 463 l 338 590 l 600 743 l 600 860 l 338 707 l 338 910 l 136 910 l 136 601 l 39 543 l 39 426 l 136 485 l 136 357 l 39 299 z "},"₽":{"ha":853,"x_min":0,"x_max":0,"o":"m 29 163 l 136 163 l 136 0 l 333 0 l 333 163 l 593 163 l 593 268 l 333 268 l 333 393 l 469 393 b 818 644 725 393 818 474 b 506 910 818 811 719 910 l 136 910 l 136 499 l 29 499 l 29 393 l 136 393 l 136 268 l 29 268 z m 476 743 b 621 624 576 743 621 706 b 449 499 621 546 572 499 l 333 499 l 333 743 z "},"₹":{"ha":853,"x_min":0,"x_max":0,"o":"m 83 568 l 453 568 b 310 428 447 471 403 428 l 83 428 l 83 290 l 481 0 l 767 0 l 767 3 l 388 276 l 388 282 b 653 568 556 306 646 403 l 775 568 l 775 685 l 653 685 l 653 804 l 775 804 l 775 910 l 83 910 l 83 804 l 453 804 l 453 685 l 83 685 z "},"฿":{"ha":853,"x_min":0,"x_max":0,"o":"m 496 -197 l 496 0 b 797 231 722 7 797 93 b 564 467 797 361 711 444 l 564 472 b 765 697 704 508 765 596 b 496 910 765 819 690 904 l 496 1106 l 369 1106 l 369 910 l 108 910 l 108 0 l 369 0 l 369 -197 z m 440 757 b 564 654 528 757 564 725 b 413 533 564 585 524 540 l 307 526 l 307 757 z m 415 381 b 597 258 556 371 597 331 b 451 151 597 190 560 151 l 307 151 l 307 389 z "},"₩":{"ha":853,"x_min":0,"x_max":0,"o":"m 418 519 l 433 519 l 519 0 l 711 0 l 731 436 l 833 436 l 833 542 l 735 542 l 751 910 l 638 910 l 626 533 l 517 533 l 485 728 l 368 728 l 336 533 l 226 533 l 217 910 l 101 910 l 117 542 l 19 542 l 19 436 l 122 436 l 140 0 l 333 0 z m 618 211 l 571 211 l 531 453 l 625 453 z m 235 211 l 229 453 l 322 453 l 282 211 z "},"¢":{"ha":853,"x_min":0,"x_max":0,"o":"m 408 -197 l 535 -197 l 535 7 b 778 107 610 19 683 49 l 688 243 b 454 169 576 182 519 169 b 285 343 360 169 285 231 b 465 511 285 442 358 511 b 678 433 521 511 572 504 l 771 576 b 535 675 674 640 601 665 l 535 878 l 408 878 l 408 678 b 74 342 214 658 74 514 b 408 0 74 143 206 11 z "},"₫":{"ha":853,"x_min":0,"x_max":0,"o":"m 322 -15 b 528 79 400 -15 467 13 l 540 0 l 715 0 l 715 678 l 822 678 l 822 783 l 715 783 l 715 910 l 514 910 l 514 783 l 336 783 l 336 678 l 514 678 l 514 532 b 374 565 471 557 428 565 b 61 274 193 565 61 444 b 322 -15 61 86 176 -15 z m 269 289 b 406 425 269 371 321 425 b 514 393 442 425 472 417 l 514 193 b 394 150 469 163 433 150 b 269 289 318 150 269 200 z m 83 -262 l 707 -262 l 707 -140 l 83 -140 z "},"½":{"ha":853,"x_min":0,"x_max":0,"o":"m 7 382 l 404 382 l 404 493 l 276 493 l 276 910 l 225 910 l 7 813 l 7 686 l 146 749 l 146 493 l 7 493 z m 440 281 l 853 593 l 751 704 l 415 311 l 0 -1 l 101 -112 z m 407 -319 l 828 -319 l 828 -207 l 583 -207 l 583 -204 l 685 -128 b 817 72 797 -42 817 10 b 647 225 817 168 742 225 b 397 113 568 225 500 194 l 458 18 b 633 108 557 97 597 108 b 685 57 665 108 685 89 b 579 -79 685 24 676 0 l 407 -221 z "},"⅓":{"ha":853,"x_min":0,"x_max":0,"o":"m 7 382 l 404 382 l 404 493 l 276 493 l 276 910 l 225 910 l 7 813 l 7 686 l 146 749 l 146 493 l 7 493 z m 440 281 l 853 593 l 751 704 l 415 311 l 0 -1 l 101 -112 z m 421 101 l 647 101 l 647 99 l 510 -36 l 533 -101 b 621 -92 572 -94 600 -92 b 717 -143 688 -92 717 -112 b 538 -214 717 -182 674 -204 l 425 -222 l 436 -333 l 550 -326 b 846 -143 764 -314 846 -246 b 686 4 846 -74 804 -7 l 686 7 l 808 124 l 808 208 l 421 208 z "},"⅔":{"ha":853,"x_min":0,"x_max":0,"o":"m 7 382 l 428 382 l 428 494 l 183 494 l 183 497 l 285 574 b 417 774 397 660 417 711 b 247 926 417 869 342 926 b -3 814 168 926 100 896 l 58 719 b 233 810 157 799 197 810 b 285 758 265 810 285 790 b 179 622 285 725 276 701 l 7 481 z m 440 281 l 853 593 l 751 704 l 415 311 l 0 -1 l 101 -112 z m 421 101 l 647 101 l 647 99 l 510 -36 l 533 -101 b 621 -92 572 -94 600 -92 b 717 -143 688 -92 717 -112 b 538 -214 717 -182 674 -204 l 425 -222 l 436 -333 l 550 -326 b 846 -143 764 -314 846 -246 b 686 4 846 -74 804 -7 l 686 7 l 808 124 l 808 208 l 421 208 z "},"¼":{"ha":853,"x_min":0,"x_max":0,"o":"m 7 382 l 404 382 l 404 493 l 276 493 l 276 910 l 225 910 l 7 813 l 7 686 l 146 749 l 146 493 l 7 493 z m 440 281 l 853 593 l 751 704 l 415 311 l 0 -1 l 101 -112 z m 350 -197 l 597 -197 l 597 -319 l 715 -319 l 715 -197 l 815 -197 l 815 -96 l 715 -96 l 715 208 l 576 208 l 350 -110 z m 606 125 l 606 -108 l 453 -108 l 453 -101 z "},"¾":{"ha":853,"x_min":0,"x_max":0,"o":"m 13 803 l 239 803 l 239 800 l 101 665 l 125 600 b 213 610 164 607 192 610 b 308 558 279 610 308 589 b 129 488 308 519 265 497 l 17 479 l 28 368 l 142 375 b 438 558 356 388 438 456 b 278 706 438 628 396 694 l 278 708 l 400 825 l 400 910 l 13 910 z m 440 281 l 853 593 l 751 704 l 415 311 l 0 -1 l 101 -112 z m 350 -197 l 597 -197 l 597 -319 l 715 -319 l 715 -197 l 815 -197 l 815 -96 l 715 -96 l 715 208 l 576 208 l 350 -110 z m 606 125 l 606 -108 l 453 -108 l 453 -101 z "},"⅕":{"ha":853,"x_min":0,"x_max":0,"o":"m 7 382 l 404 382 l 404 493 l 276 493 l 276 910 l 225 910 l 7 813 l 7 686 l 146 749 l 146 493 l 7 493 z m 440 281 l 853 593 l 751 704 l 415 311 l 0 -1 l 101 -112 z m 450 208 l 433 -87 l 436 -90 l 525 -106 b 638 -79 571 -87 606 -79 b 713 -136 683 -79 713 -94 b 519 -215 713 -176 672 -203 l 415 -224 l 428 -333 l 526 -325 b 838 -135 754 -306 838 -242 b 669 22 838 -35 764 22 b 544 -8 621 22 581 15 l 553 104 l 801 104 l 801 208 z "},"⅖":{"ha":853,"x_min":0,"x_max":0,"o":"m 7 382 l 428 382 l 428 494 l 183 494 l 183 497 l 285 574 b 417 774 397 660 417 711 b 247 926 417 869 342 926 b -3 814 168 926 100 896 l 58 719 b 233 810 157 799 197 810 b 285 758 265 810 285 790 b 179 622 285 725 276 701 l 7 481 z m 440 281 l 853 593 l 751 704 l 415 311 l 0 -1 l 101 -112 z m 450 208 l 433 -87 l 436 -90 l 525 -106 b 638 -79 571 -87 606 -79 b 713 -136 683 -79 713 -94 b 519 -215 713 -176 672 -203 l 415 -224 l 428 -333 l 526 -325 b 838 -135 754 -306 838 -242 b 669 22 838 -35 764 22 b 544 -8 621 22 581 15 l 553 104 l 801 104 l 801 208 z "},"⅗":{"ha":853,"x_min":0,"x_max":0,"o":"m 13 803 l 239 803 l 239 800 l 101 665 l 125 600 b 213 610 164 607 192 610 b 308 558 279 610 308 589 b 129 488 308 519 265 497 l 17 479 l 28 368 l 142 375 b 438 558 356 388 438 456 b 278 706 438 628 396 694 l 278 708 l 400 825 l 400 910 l 13 910 z m 440 281 l 853 593 l 751 704 l 415 311 l 0 -1 l 101 -112 z m 450 208 l 433 -87 l 436 -90 l 525 -106 b 638 -79 571 -87 606 -79 b 713 -136 683 -79 713 -94 b 519 -215 713 -176 672 -203 l 415 -224 l 428 -333 l 526 -325 b 838 -135 754 -306 838 -242 b 669 22 838 -35 764 22 b 544 -8 621 22 581 15 l 553 104 l 801 104 l 801 208 z "},"⅘":{"ha":853,"x_min":0,"x_max":0,"o":"m 7 504 l 254 504 l 254 382 l 372 382 l 372 504 l 472 504 l 472 606 l 372 606 l 372 910 l 233 910 l 7 592 z m 263 826 l 263 593 l 110 593 l 110 600 z m 440 281 l 853 593 l 751 704 l 415 311 l 0 -1 l 101 -112 z m 450 208 l 433 -87 l 436 -90 l 525 -106 b 638 -79 571 -87 606 -79 b 713 -136 683 -79 713 -94 b 519 -215 713 -176 672 -203 l 415 -224 l 428 -333 l 526 -325 b 838 -135 754 -306 838 -242 b 669 22 838 -35 764 22 b 544 -8 621 22 581 15 l 553 104 l 801 104 l 801 208 z "},"⅙":{"ha":853,"x_min":0,"x_max":0,"o":"m 7 382 l 404 382 l 404 493 l 276 493 l 276 910 l 225 910 l 7 813 l 7 686 l 146 749 l 146 493 l 7 493 z m 440 281 l 853 593 l 751 704 l 415 311 l 0 -1 l 101 -112 z m 804 -150 b 611 29 804 -36 733 29 b 564 24 597 29 581 28 b 635 101 583 49 607 75 l 746 207 l 746 208 l 583 208 l 519 143 b 365 -146 415 35 365 -43 b 578 -340 365 -256 440 -340 b 804 -150 711 -340 804 -262 z m 496 -143 b 513 -65 496 -118 501 -92 b 576 -57 535 -58 554 -57 b 671 -149 638 -57 671 -87 b 579 -232 671 -203 636 -232 b 496 -143 529 -232 496 -199 z "},"⅚":{"ha":853,"x_min":0,"x_max":0,"o":"m 53 910 l 36 614 l 39 611 l 128 596 b 240 622 174 614 208 622 b 315 565 286 622 315 607 b 122 486 315 525 275 499 l 18 478 l 31 368 l 129 376 b 440 567 357 396 440 460 b 272 724 440 667 367 724 b 147 693 224 724 183 717 l 156 806 l 404 806 l 404 910 z m 440 281 l 853 593 l 751 704 l 415 311 l 0 -1 l 101 -112 z m 804 -150 b 611 29 804 -36 733 29 b 564 24 597 29 581 28 b 635 101 583 49 607 75 l 746 207 l 746 208 l 583 208 l 519 143 b 365 -146 415 35 365 -43 b 578 -340 365 -256 440 -340 b 804 -150 711 -340 804 -262 z m 496 -143 b 513 -65 496 -118 501 -92 b 576 -57 535 -58 554 -57 b 671 -149 638 -57 671 -87 b 579 -232 671 -203 636 -232 b 496 -143 529 -232 496 -199 z "},"⅛":{"ha":853,"x_min":0,"x_max":0,"o":"m 7 382 l 404 382 l 404 493 l 276 493 l 276 910 l 225 910 l 7 813 l 7 686 l 146 749 l 146 493 l 7 493 z m 440 281 l 853 593 l 751 704 l 415 311 l 0 -1 l 101 -112 z m 617 -340 b 838 -185 744 -340 838 -281 b 715 -49 838 -121 788 -71 l 715 -46 b 822 79 781 -25 822 19 b 619 229 822 172 738 229 b 414 78 501 229 414 172 b 521 -46 414 18 456 -26 l 521 -49 b 399 -186 447 -72 399 -122 b 617 -340 399 -282 493 -340 z m 618 -6 b 536 61 572 -6 536 18 b 619 132 536 106 572 132 b 700 64 668 132 700 107 b 618 -6 700 19 665 -6 z m 618 -244 b 524 -168 563 -244 524 -215 b 618 -93 524 -122 561 -93 b 713 -167 675 -93 713 -121 b 618 -244 713 -214 674 -244 z "},"⅜":{"ha":853,"x_min":0,"x_max":0,"o":"m 13 803 l 239 803 l 239 800 l 101 665 l 125 600 b 213 610 164 607 192 610 b 308 558 279 610 308 589 b 129 488 308 519 265 497 l 17 479 l 28 368 l 142 375 b 438 558 356 388 438 456 b 278 706 438 628 396 694 l 278 708 l 400 825 l 400 910 l 13 910 z m 440 281 l 853 593 l 751 704 l 415 311 l 0 -1 l 101 -112 z m 617 -340 b 838 -185 744 -340 838 -281 b 715 -49 838 -121 788 -71 l 715 -46 b 822 79 781 -25 822 19 b 619 229 822 172 738 229 b 414 78 501 229 414 172 b 521 -46 414 18 456 -26 l 521 -49 b 399 -186 447 -72 399 -122 b 617 -340 399 -282 493 -340 z m 618 -6 b 536 61 572 -6 536 18 b 619 132 536 106 572 132 b 700 64 668 132 700 107 b 618 -6 700 19 665 -6 z m 618 -244 b 524 -168 563 -244 524 -215 b 618 -93 524 -122 561 -93 b 713 -167 675 -93 713 -121 b 618 -244 713 -214 674 -244 z "},"⅝":{"ha":853,"x_min":0,"x_max":0,"o":"m 53 910 l 36 614 l 39 611 l 128 596 b 240 622 174 614 208 622 b 315 565 286 622 315 607 b 122 486 315 525 275 499 l 18 478 l 31 368 l 129 376 b 440 567 357 396 440 460 b 272 724 440 667 367 724 b 147 693 224 724 183 717 l 156 806 l 404 806 l 404 910 z m 440 281 l 853 593 l 751 704 l 415 311 l 0 -1 l 101 -112 z m 617 -340 b 838 -185 744 -340 838 -281 b 715 -49 838 -121 788 -71 l 715 -46 b 822 79 781 -25 822 19 b 619 229 822 172 738 229 b 414 78 501 229 414 172 b 521 -46 414 18 456 -26 l 521 -49 b 399 -186 447 -72 399 -122 b 617 -340 399 -282 493 -340 z m 618 -6 b 536 61 572 -6 536 18 b 619 132 536 106 572 132 b 700 64 668 132 700 107 b 618 -6 700 19 665 -6 z m 618 -244 b 524 -168 563 -244 524 -215 b 618 -93 524 -122 561 -93 b 713 -167 675 -93 713 -121 b 618 -244 713 -214 674 -244 z "},"⅞":{"ha":853,"x_min":0,"x_max":0,"o":"m 246 382 l 463 794 l 463 910 l 51 910 l 51 800 l 338 800 l 338 796 l 99 385 l 99 382 z m 440 281 l 853 593 l 751 704 l 415 311 l 0 -1 l 101 -112 z m 617 -340 b 838 -185 744 -340 838 -281 b 715 -49 838 -121 788 -71 l 715 -46 b 822 79 781 -25 822 19 b 619 229 822 172 738 229 b 414 78 501 229 414 172 b 521 -46 414 18 456 -26 l 521 -49 b 399 -186 447 -72 399 -122 b 617 -340 399 -282 493 -340 z m 618 -6 b 536 61 572 -6 536 18 b 619 132 536 106 572 132 b 700 64 668 132 700 107 b 618 -6 700 19 665 -6 z m 618 -244 b 524 -168 563 -244 524 -215 b 618 -93 524 -122 561 -93 b 713 -167 675 -93 713 -121 b 618 -244 713 -214 674 -244 z "},"⁰":{"ha":853,"x_min":0,"x_max":0,"o":"m 650 724 b 428 1007 650 919 571 1007 b 203 722 283 1007 203 918 b 425 438 203 525 282 438 b 650 724 569 438 650 528 z m 326 724 b 426 889 326 854 356 889 b 508 846 467 889 493 878 l 328 676 b 326 724 326 690 326 707 z m 526 722 b 426 554 526 590 497 554 b 344 600 386 554 360 565 l 525 769 b 526 722 526 756 526 740 z "},"¹":{"ha":853,"x_min":0,"x_max":0,"o":"m 233 458 l 631 458 l 631 569 l 503 569 l 503 986 l 451 986 l 233 889 l 233 763 l 372 825 l 372 569 l 233 569 z "},"²":{"ha":853,"x_min":0,"x_max":0,"o":"m 222 458 l 643 458 l 643 571 l 399 571 l 399 574 l 500 650 b 632 850 613 736 632 788 b 463 1003 632 946 557 1003 b 213 890 383 1003 315 972 l 274 796 b 449 886 372 875 413 886 b 500 835 481 886 500 867 b 394 699 500 801 492 778 l 222 557 z "},"³":{"ha":853,"x_min":0,"x_max":0,"o":"m 226 879 l 453 879 l 453 876 l 315 742 l 339 676 b 426 686 378 683 406 686 b 522 635 493 686 522 665 b 343 564 522 596 479 574 l 231 556 l 242 444 l 356 451 b 651 635 569 464 651 532 b 492 782 651 704 610 771 l 492 785 l 614 901 l 614 986 l 226 986 z "},"⁴":{"ha":853,"x_min":0,"x_max":0,"o":"m 207 581 l 454 581 l 454 458 l 572 458 l 572 581 l 672 581 l 672 682 l 572 682 l 572 986 l 433 986 l 207 668 z m 463 903 l 463 669 l 310 669 l 310 676 z "},"⁵":{"ha":853,"x_min":0,"x_max":0,"o":"m 244 986 l 228 690 l 231 688 l 319 672 b 432 699 365 690 400 699 b 507 642 478 699 507 683 b 314 563 507 601 467 575 l 210 554 l 222 444 l 321 453 b 632 643 549 472 632 536 b 464 800 632 743 558 800 b 339 769 415 800 375 793 l 347 882 l 596 882 l 596 986 z "},"⁶":{"ha":853,"x_min":0,"x_max":0,"o":"m 647 628 b 454 807 647 742 576 807 b 407 801 440 807 424 806 b 478 879 426 826 450 853 l 589 985 l 589 986 l 426 986 l 363 921 b 208 632 258 813 208 735 b 421 438 208 522 283 438 b 647 628 554 438 647 515 z m 339 635 b 356 713 339 660 344 686 b 419 721 378 719 397 721 b 514 629 481 721 514 690 b 422 546 514 575 479 546 b 339 635 372 546 339 579 z "},"⁷":{"ha":853,"x_min":0,"x_max":0,"o":"m 404 458 l 621 871 l 621 986 l 210 986 l 210 876 l 496 876 l 496 872 l 257 461 l 257 458 z "},"⁸":{"ha":853,"x_min":0,"x_max":0,"o":"m 425 438 b 646 593 553 438 646 497 b 524 729 646 657 596 707 l 524 732 b 631 857 589 753 631 797 b 428 1007 631 950 546 1007 b 222 856 310 1007 222 950 b 329 732 222 796 264 751 l 329 729 b 207 592 256 706 207 656 b 425 438 207 496 301 438 z m 426 772 b 344 839 381 772 344 796 b 428 910 344 883 381 910 b 508 842 476 910 508 885 b 426 772 508 797 474 772 z m 426 533 b 332 610 371 533 332 563 b 426 685 332 656 369 685 b 521 611 483 685 521 657 b 426 533 521 564 482 533 z "},"⁹":{"ha":853,"x_min":0,"x_max":0,"o":"m 489 524 b 643 813 593 632 643 710 b 431 1007 643 922 568 1007 b 204 817 297 1007 204 929 b 397 638 204 703 275 638 b 444 643 411 638 428 639 b 374 565 425 618 401 592 l 263 460 l 263 458 l 425 458 z m 513 810 b 496 732 513 785 507 758 b 432 724 474 725 454 724 b 338 815 371 724 338 754 b 429 899 338 869 372 899 b 513 810 479 899 513 865 z "},"₀":{"ha":853,"x_min":0,"x_max":0,"o":"m 650 -54 b 428 229 650 142 571 229 b 203 -56 283 229 203 140 b 425 -340 203 -253 282 -340 b 650 -54 569 -340 650 -250 z m 326 -54 b 426 111 326 76 356 111 b 508 68 467 111 493 100 l 328 -101 b 326 -54 326 -87 326 -71 z m 526 -56 b 426 -224 526 -187 497 -224 b 344 -178 386 -224 360 -212 l 525 -8 b 526 -56 526 -22 526 -37 z "},"₁":{"ha":853,"x_min":0,"x_max":0,"o":"m 233 -319 l 631 -319 l 631 -208 l 503 -208 l 503 208 l 451 208 l 233 111 l 233 -15 l 372 47 l 372 -208 l 233 -208 z "},"₂":{"ha":853,"x_min":0,"x_max":0,"o":"m 222 -319 l 643 -319 l 643 -207 l 399 -207 l 399 -204 l 500 -128 b 632 72 613 -42 632 10 b 463 225 632 168 557 225 b 213 113 383 225 315 194 l 274 18 b 449 108 372 97 413 108 b 500 57 481 108 500 89 b 394 -79 500 24 492 0 l 222 -221 z "},"₃":{"ha":853,"x_min":0,"x_max":0,"o":"m 226 101 l 453 101 l 453 99 l 315 -36 l 339 -101 b 426 -92 378 -94 406 -92 b 522 -143 493 -92 522 -112 b 343 -214 522 -182 479 -204 l 231 -222 l 242 -333 l 356 -326 b 651 -143 569 -314 651 -246 b 492 4 651 -74 610 -7 l 492 7 l 614 124 l 614 208 l 226 208 z "},"₄":{"ha":853,"x_min":0,"x_max":0,"o":"m 207 -197 l 454 -197 l 454 -319 l 572 -319 l 572 -197 l 672 -197 l 672 -96 l 572 -96 l 572 208 l 433 208 l 207 -110 z m 463 125 l 463 -108 l 310 -108 l 310 -101 z "},"₅":{"ha":853,"x_min":0,"x_max":0,"o":"m 244 208 l 228 -87 l 231 -90 l 319 -106 b 432 -79 365 -87 400 -79 b 507 -136 478 -79 507 -94 b 314 -215 507 -176 467 -203 l 210 -224 l 222 -333 l 321 -325 b 632 -135 549 -306 632 -242 b 464 22 632 -35 558 22 b 339 -8 415 22 375 15 l 347 104 l 596 104 l 596 208 z "},"₆":{"ha":853,"x_min":0,"x_max":0,"o":"m 647 -150 b 454 29 647 -36 576 29 b 407 24 440 29 424 28 b 478 101 426 49 450 75 l 589 207 l 589 208 l 426 208 l 363 143 b 208 -146 258 35 208 -43 b 421 -340 208 -256 283 -340 b 647 -150 554 -340 647 -262 z m 339 -143 b 356 -65 339 -118 344 -92 b 419 -57 378 -58 397 -57 b 514 -149 481 -57 514 -87 b 422 -232 514 -203 479 -232 b 339 -143 372 -232 339 -199 z "},"₇":{"ha":853,"x_min":0,"x_max":0,"o":"m 404 -319 l 621 93 l 621 208 l 210 208 l 210 99 l 496 99 l 496 94 l 257 -317 l 257 -319 z "},"₈":{"ha":853,"x_min":0,"x_max":0,"o":"m 425 -340 b 646 -185 553 -340 646 -281 b 524 -49 646 -121 596 -71 l 524 -46 b 631 79 589 -25 631 19 b 428 229 631 172 546 229 b 222 78 310 229 222 172 b 329 -46 222 18 264 -26 l 329 -49 b 207 -186 256 -72 207 -122 b 425 -340 207 -282 301 -340 z m 426 -6 b 344 61 381 -6 344 18 b 428 132 344 106 381 132 b 508 64 476 132 508 107 b 426 -6 508 19 474 -6 z m 426 -244 b 332 -168 371 -244 332 -215 b 426 -93 332 -122 369 -93 b 521 -167 483 -93 521 -121 b 426 -244 521 -214 482 -244 z "},"₉":{"ha":853,"x_min":0,"x_max":0,"o":"m 489 -254 b 643 35 593 -146 643 -68 b 431 229 643 144 568 229 b 204 39 297 229 204 151 b 397 -140 204 -75 275 -140 b 444 -135 411 -140 428 -139 b 374 -212 425 -160 401 -186 l 263 -318 l 263 -319 l 425 -319 z m 513 32 b 496 -46 513 7 507 -19 b 432 -54 474 -53 454 -54 b 338 38 371 -54 338 -24 b 429 121 338 92 372 121 b 513 32 479 121 513 88 z "},"ʹ":{"ha":853,"x_min":0,"x_max":0,"o":"m 324 499 l 529 499 l 553 986 l 300 986 z "},"ʺ":{"ha":853,"x_min":0,"x_max":0,"o":"m 546 499 l 724 499 l 747 986 l 522 986 z m 161 499 l 339 499 l 363 986 l 138 986 z "},"ʻ":{"ha":853,"x_min":0,"x_max":0,"o":"m 694 986 l 513 986 b 197 529 335 860 239 733 l 496 529 b 694 983 515 710 560 804 z "},"ʼ":{"ha":853,"x_min":0,"x_max":0,"o":"m 158 529 l 340 529 b 656 986 518 654 614 782 l 357 986 b 158 532 338 804 293 711 z "},"ʿ":{"ha":853,"x_min":0,"x_max":0,"o":"m 581 1007 b 214 729 326 1007 214 886 b 581 438 214 564 326 438 l 581 576 b 375 729 421 576 375 638 b 581 868 375 813 422 868 z "},"ʾ":{"ha":853,"x_min":0,"x_max":0,"o":"m 272 438 b 639 729 526 438 639 564 b 272 1007 639 886 526 1007 l 272 868 b 478 729 431 868 478 813 b 272 576 478 638 432 576 z "},"ˈ":{"ha":853,"x_min":0,"x_max":0,"o":"m 515 449 l 515 993 l 338 993 l 338 449 z "},"ˌ":{"ha":853,"x_min":0,"x_max":0,"o":"m 515 -319 l 515 225 l 338 225 l 338 -319 z "},"´":{"ha":853,"x_min":0,"x_max":0,"o":"m 283 876 l 342 768 l 675 928 l 607 1057 z "},"˝":{"ha":853,"x_min":0,"x_max":0,"o":"m 133 853 l 217 768 l 431 960 l 328 1058 z m 479 853 l 563 768 l 775 960 l 674 1058 z "},"`":{"ha":853,"x_min":0,"x_max":0,"o":"m 569 876 l 246 1057 l 178 928 l 511 768 z "},"ˆ":{"ha":853,"x_min":0,"x_max":0,"o":"m 165 846 l 231 768 l 426 911 l 622 768 l 688 846 l 469 1053 l 383 1053 z "},"ˇ":{"ha":853,"x_min":0,"x_max":0,"o":"m 688 975 l 622 1053 l 426 910 l 231 1053 l 165 975 l 383 768 l 469 768 z "},"˘":{"ha":853,"x_min":0,"x_max":0,"o":"m 426 900 b 268 1049 367 900 308 932 l 151 1007 b 426 768 199 831 313 768 b 701 1007 540 768 654 831 l 585 1049 b 426 900 546 933 486 900 z "},"˜":{"ha":853,"x_min":0,"x_max":0,"o":"m 399 844 b 533 768 471 782 501 768 b 718 1014 590 768 640 786 l 604 1054 b 533 913 563 928 549 913 b 453 969 521 913 511 919 b 318 1046 381 1031 351 1046 b 133 800 261 1046 211 1028 l 250 760 b 318 901 292 886 303 901 b 399 844 331 901 340 896 z "},"¯":{"ha":853,"x_min":0,"x_max":0,"o":"m 189 824 l 664 824 l 664 960 l 189 960 z "},"¨":{"ha":853,"x_min":0,"x_max":0,"o":"m 265 796 b 369 894 329 796 369 831 b 267 994 369 960 333 994 b 164 894 203 994 164 953 b 265 796 164 831 201 796 z m 585 796 b 689 894 649 796 689 831 b 586 994 689 960 653 994 b 483 894 522 994 483 953 b 585 796 483 831 521 796 z "},"˙":{"ha":853,"x_min":0,"x_max":0,"o":"m 426 796 b 538 901 494 796 538 833 b 428 1008 538 971 499 1008 b 318 901 360 1008 318 964 b 426 796 318 833 358 796 z "},"˚":{"ha":853,"x_min":0,"x_max":0,"o":"m 425 768 b 644 961 549 768 644 838 b 428 1151 644 1078 551 1151 b 208 960 303 1151 208 1079 b 425 768 208 838 303 768 z m 426 878 b 329 958 368 878 329 896 b 425 1042 329 1019 368 1042 b 524 963 486 1042 524 1021 b 426 878 524 901 485 878 z "},"ꞈ":{"ha":853,"x_min":0,"x_max":0,"o":"m 165 -312 l 231 -390 l 426 -247 l 622 -390 l 688 -312 l 469 -106 l 383 -106 z "},"ˍ":{"ha":853,"x_min":0,"x_max":0,"o":"m 189 -297 l 664 -297 l 664 -161 l 189 -161 z "},"¸":{"ha":853,"x_min":0,"x_max":0,"o":"m 390 29 l 333 -142 l 342 -156 b 518 -204 482 -162 518 -176 b 265 -272 518 -240 476 -254 l 292 -368 b 644 -201 600 -342 644 -294 b 443 -79 644 -140 604 -97 l 476 29 z "},"˛":{"ha":853,"x_min":0,"x_max":0,"o":"m 258 -219 b 388 -319 258 -282 299 -315 l 522 -325 l 536 -196 l 460 -190 b 403 -147 414 -187 403 -175 b 489 10 403 -132 406 -108 l 406 18 b 258 -219 292 -111 258 -174 z "},"Á":{"ha":853,"x_min":0,"x_max":0,"o":"m 278 1125 l 331 1015 l 674 1163 l 610 1293 z m 238 0 l 288 175 l 554 175 l 604 0 l 814 0 l 550 910 l 300 910 l 39 0 z m 328 332 l 421 694 l 514 332 z "},"À":{"ha":853,"x_min":0,"x_max":0,"o":"m 550 1125 l 218 1293 l 154 1163 l 497 1015 z m 238 0 l 288 175 l 554 175 l 604 0 l 814 0 l 550 910 l 300 910 l 39 0 z m 328 332 l 421 694 l 514 332 z "},"Â":{"ha":853,"x_min":0,"x_max":0,"o":"m 138 1099 l 194 1001 l 414 1118 l 636 1001 l 692 1099 l 443 1264 l 385 1264 z m 238 0 l 288 175 l 554 175 l 604 0 l 814 0 l 550 910 l 300 910 l 39 0 z m 328 332 l 421 694 l 514 332 z "},"Ậ":{"ha":853,"x_min":0,"x_max":0,"o":"m 138 1099 l 194 1001 l 414 1118 l 636 1001 l 692 1099 l 443 1264 l 385 1264 z m 238 0 l 288 175 l 554 175 l 604 0 l 814 0 l 550 910 l 300 910 l 39 0 z m 328 332 l 421 694 l 514 332 z m 414 -339 b 525 -233 482 -339 525 -301 b 415 -126 525 -164 486 -126 b 306 -233 347 -126 306 -171 b 414 -339 306 -301 346 -339 z "},"Ấ":{"ha":853,"x_min":0,"x_max":0,"o":"m 519 1335 l 572 1225 l 799 1318 l 735 1449 z m 138 1099 l 194 1001 l 414 1106 l 636 1001 l 692 1099 l 443 1250 l 385 1250 z m 238 0 l 288 175 l 554 175 l 604 0 l 814 0 l 550 910 l 300 910 l 39 0 z m 328 332 l 421 694 l 514 332 z "},"Ầ":{"ha":853,"x_min":0,"x_max":0,"o":"m 749 1342 l 533 1456 l 469 1325 l 696 1232 z m 138 1099 l 194 1001 l 414 1106 l 636 1001 l 692 1099 l 443 1250 l 385 1250 z m 238 0 l 288 175 l 554 175 l 604 0 l 814 0 l 550 910 l 300 910 l 39 0 z m 328 332 l 421 694 l 514 332 z "},"Ẩ":{"ha":853,"x_min":0,"x_max":0,"o":"m 572 1240 b 836 1399 768 1274 836 1333 b 539 1524 836 1457 778 1497 l 467 1428 l 467 1425 b 664 1376 643 1401 664 1392 b 531 1322 664 1360 647 1349 l 531 1319 z m 138 1099 l 194 1001 l 414 1106 l 636 1001 l 692 1099 l 443 1250 l 385 1250 z m 238 0 l 288 175 l 554 175 l 604 0 l 814 0 l 550 910 l 300 910 l 39 0 z m 328 332 l 421 694 l 514 332 z "},"Ẫ":{"ha":853,"x_min":0,"x_max":0,"o":"m 428 1475 b 304 1522 357 1517 335 1522 b 144 1325 256 1522 207 1508 l 250 1285 b 321 1392 289 1375 301 1392 b 418 1347 336 1392 351 1386 b 542 1300 489 1306 511 1300 b 701 1497 590 1300 639 1314 l 596 1538 b 525 1431 557 1447 544 1431 b 428 1475 510 1431 494 1436 z m 138 1099 l 194 1001 l 414 1106 l 636 1001 l 692 1099 l 443 1250 l 385 1250 z m 238 0 l 288 175 l 554 175 l 604 0 l 814 0 l 550 910 l 300 910 l 39 0 z m 328 332 l 421 694 l 514 332 z "},"Ǎ":{"ha":853,"x_min":0,"x_max":0,"o":"m 692 1181 l 635 1278 l 415 1161 l 193 1278 l 138 1181 l 386 1015 l 444 1015 z m 238 0 l 288 175 l 554 175 l 604 0 l 814 0 l 550 910 l 300 910 l 39 0 z m 328 332 l 421 694 l 514 332 z "},"Ă":{"ha":853,"x_min":0,"x_max":0,"o":"m 414 1147 b 256 1282 354 1147 293 1175 l 139 1240 b 414 1015 183 1074 300 1015 b 689 1240 528 1015 644 1074 l 572 1282 b 414 1147 536 1176 474 1147 z m 238 0 l 288 175 l 554 175 l 604 0 l 814 0 l 550 910 l 300 910 l 39 0 z m 328 332 l 421 694 l 514 332 z "},"Ặ":{"ha":853,"x_min":0,"x_max":0,"o":"m 414 1147 b 256 1282 354 1147 293 1175 l 139 1240 b 414 1015 183 1074 300 1015 b 689 1240 528 1015 644 1074 l 572 1282 b 414 1147 536 1176 474 1147 z m 238 0 l 288 175 l 554 175 l 604 0 l 814 0 l 550 910 l 300 910 l 39 0 z m 328 332 l 421 694 l 514 332 z m 414 -339 b 525 -233 482 -339 525 -301 b 415 -126 525 -164 486 -126 b 306 -233 347 -126 306 -171 b 414 -339 306 -301 346 -339 z "},"Ắ":{"ha":853,"x_min":0,"x_max":0,"o":"m 331 1364 l 367 1251 l 725 1353 l 682 1488 z m 414 1147 b 256 1268 354 1147 290 1171 l 139 1226 b 414 1015 181 1069 300 1015 b 689 1213 528 1015 650 1065 l 572 1254 b 414 1147 542 1168 474 1147 z m 238 0 l 288 175 l 554 175 l 604 0 l 814 0 l 550 910 l 300 910 l 39 0 z m 328 332 l 421 694 l 514 332 z "},"Ằ":{"ha":853,"x_min":0,"x_max":0,"o":"m 500 1364 l 149 1488 l 106 1353 l 464 1251 z m 414 1147 b 256 1254 354 1147 286 1167 l 139 1213 b 414 1015 178 1065 300 1015 b 689 1226 528 1015 647 1069 l 572 1268 b 414 1147 539 1172 474 1147 z m 238 0 l 288 175 l 554 175 l 604 0 l 814 0 l 550 910 l 300 910 l 39 0 z m 328 332 l 421 694 l 514 332 z "},"Ẳ":{"ha":853,"x_min":0,"x_max":0,"o":"m 357 1254 b 621 1413 553 1288 621 1347 b 324 1538 621 1471 563 1511 l 251 1442 l 251 1439 b 449 1390 428 1415 449 1406 b 315 1336 449 1374 432 1363 l 315 1333 z m 414 1147 b 256 1268 354 1147 290 1171 l 139 1226 b 414 1015 181 1069 300 1015 b 689 1213 528 1015 650 1065 l 572 1254 b 414 1147 542 1168 474 1147 z m 238 0 l 288 175 l 554 175 l 604 0 l 814 0 l 550 910 l 300 910 l 39 0 z m 328 332 l 421 694 l 514 332 z "},"Ẵ":{"ha":853,"x_min":0,"x_max":0,"o":"m 418 1489 b 294 1536 347 1531 325 1536 b 135 1339 246 1536 197 1522 l 240 1299 b 311 1406 279 1389 292 1406 b 408 1361 326 1406 342 1400 b 532 1314 479 1319 501 1314 b 692 1511 581 1314 629 1328 l 586 1551 b 515 1444 547 1461 535 1444 b 418 1489 500 1444 485 1450 z m 414 1147 b 256 1254 354 1147 286 1167 l 139 1213 b 414 1015 178 1065 300 1015 b 689 1226 528 1015 647 1069 l 572 1268 b 414 1147 539 1172 474 1147 z m 238 0 l 288 175 l 554 175 l 604 0 l 814 0 l 550 910 l 300 910 l 39 0 z m 328 332 l 421 694 l 514 332 z "},"Ã":{"ha":853,"x_min":0,"x_max":0,"o":"m 706 1243 l 592 1283 b 521 1160 556 1171 536 1160 b 422 1218 507 1160 490 1164 b 300 1275 367 1261 336 1275 b 121 1047 247 1275 193 1260 l 235 1007 b 306 1131 271 1119 290 1131 b 404 1072 319 1131 336 1126 b 526 1015 460 1029 490 1015 b 706 1243 579 1015 633 1031 z m 238 0 l 288 175 l 554 175 l 604 0 l 814 0 l 550 910 l 300 910 l 39 0 z m 328 332 l 421 694 l 514 332 z "},"Ā":{"ha":853,"x_min":0,"x_max":0,"o":"m 179 1071 l 649 1071 l 649 1213 l 179 1213 z m 238 0 l 288 175 l 554 175 l 604 0 l 814 0 l 550 910 l 300 910 l 39 0 z m 328 332 l 421 694 l 514 332 z "},"Ä":{"ha":853,"x_min":0,"x_max":0,"o":"m 239 1043 b 343 1142 303 1043 343 1078 b 240 1242 343 1207 307 1242 b 138 1142 176 1242 138 1200 b 239 1043 138 1078 175 1043 z m 586 1043 b 690 1142 650 1043 690 1078 b 588 1242 690 1207 654 1242 b 485 1142 524 1242 485 1200 b 586 1043 485 1078 522 1043 z m 238 0 l 288 175 l 554 175 l 604 0 l 814 0 l 550 910 l 300 910 l 39 0 z m 328 332 l 421 694 l 514 332 z "},"Ȧ":{"ha":853,"x_min":0,"x_max":0,"o":"m 414 1043 b 525 1149 482 1043 525 1081 b 415 1256 525 1218 486 1256 b 306 1149 347 1256 306 1211 b 414 1043 306 1081 346 1043 z m 238 0 l 288 175 l 554 175 l 604 0 l 814 0 l 550 910 l 300 910 l 39 0 z m 328 332 l 421 694 l 514 332 z "},"Å":{"ha":853,"x_min":0,"x_max":0,"o":"m 238 0 l 288 175 l 554 175 l 604 0 l 814 0 l 583 797 b 663 946 633 831 663 882 b 426 1135 663 1060 572 1135 b 188 944 279 1135 188 1060 b 268 796 188 881 217 829 l 39 0 z m 425 864 b 324 943 360 864 324 890 b 425 1028 324 1000 356 1028 b 526 947 490 1028 526 1001 b 425 864 526 892 494 864 z m 328 332 l 421 694 l 514 332 z "},"Ả":{"ha":853,"x_min":0,"x_max":0,"o":"m 289 1015 b 594 1188 514 1053 594 1117 b 297 1326 594 1253 536 1300 l 225 1231 l 225 1228 b 422 1165 401 1204 422 1185 b 247 1097 422 1144 399 1132 l 247 1094 z m 238 0 l 288 175 l 554 175 l 604 0 l 814 0 l 550 910 l 300 910 l 39 0 z m 328 332 l 421 694 l 514 332 z "},"Ạ":{"ha":853,"x_min":0,"x_max":0,"o":"m 238 0 l 288 175 l 554 175 l 604 0 l 814 0 l 550 910 l 300 910 l 39 0 z m 328 332 l 421 694 l 514 332 z m 414 -339 b 525 -233 482 -339 525 -301 b 415 -126 525 -164 486 -126 b 306 -233 347 -126 306 -171 b 414 -339 306 -301 346 -339 z "},"Ą":{"ha":853,"x_min":0,"x_max":0,"o":"m 238 0 l 288 175 l 554 175 l 604 0 l 640 0 b 508 -219 539 -117 508 -176 b 638 -319 508 -282 549 -315 l 772 -325 l 786 -196 l 710 -190 b 653 -147 664 -187 653 -175 b 732 0 653 -132 656 -110 l 814 0 l 550 910 l 300 910 l 39 0 z m 328 332 l 421 694 l 514 332 z "},"Æ":{"ha":853,"x_min":0,"x_max":0,"o":"m 171 0 l 224 197 l 401 197 l 401 0 l 797 0 l 797 156 l 589 156 l 589 383 l 778 383 l 778 533 l 589 533 l 589 754 l 797 754 l 797 910 l 264 910 l -1 0 z m 263 340 l 375 754 l 401 754 l 401 340 z "},"Ḇ":{"ha":853,"x_min":0,"x_max":0,"o":"m 108 910 l 108 0 l 464 0 b 797 231 715 0 797 86 b 564 467 797 361 711 444 l 564 472 b 765 697 704 508 765 596 b 474 910 765 824 685 910 z m 440 757 b 564 654 528 757 564 725 b 413 533 564 585 524 540 l 307 526 l 307 757 z m 415 381 b 597 258 556 371 597 331 b 451 151 597 190 560 151 l 307 151 l 307 389 z m 214 -297 l 689 -297 l 689 -161 l 214 -161 z "},"Ć":{"ha":853,"x_min":0,"x_max":0,"o":"m 369 1132 l 422 1022 l 765 1169 l 701 1300 z m 465 -21 b 807 96 565 -21 683 13 l 718 235 b 493 146 618 169 547 146 b 274 456 378 146 274 229 b 503 764 274 663 382 764 b 708 679 558 764 608 750 l 796 819 b 499 931 683 900 599 931 b 69 453 242 931 69 728 b 465 -21 69 142 224 -21 z "},"Ĉ":{"ha":853,"x_min":0,"x_max":0,"o":"m 229 1113 l 286 1015 l 506 1132 l 728 1015 l 783 1113 l 535 1278 l 476 1278 z m 465 -21 b 807 96 565 -21 683 13 l 718 235 b 493 146 618 169 547 146 b 274 456 378 146 274 229 b 503 764 274 663 382 764 b 708 679 558 764 608 750 l 796 819 b 499 931 683 900 599 931 b 69 453 242 931 69 728 b 465 -21 69 142 224 -21 z "},"Č":{"ha":853,"x_min":0,"x_max":0,"o":"m 783 1188 l 726 1285 l 507 1168 l 285 1285 l 229 1188 l 478 1022 l 536 1022 z m 465 -21 b 807 96 565 -21 683 13 l 718 235 b 493 146 618 169 547 146 b 274 456 378 146 274 229 b 503 764 274 663 382 764 b 708 679 558 764 608 750 l 796 819 b 499 931 683 900 599 931 b 69 453 242 931 69 728 b 465 -21 69 142 224 -21 z "},"Ċ":{"ha":853,"x_min":0,"x_max":0,"o":"m 506 1050 b 617 1156 574 1050 617 1088 b 507 1263 617 1225 578 1263 b 397 1156 439 1263 397 1218 b 506 1050 397 1088 438 1050 z m 465 -21 b 807 96 565 -21 683 13 l 718 235 b 493 146 618 169 547 146 b 274 456 378 146 274 229 b 503 764 274 663 382 764 b 708 679 558 764 608 750 l 796 819 b 499 931 683 900 599 931 b 69 453 242 931 69 728 b 465 -21 69 142 224 -21 z "},"Ç":{"ha":853,"x_min":0,"x_max":0,"o":"m 694 -208 b 493 -86 694 -147 654 -104 l 514 -18 b 807 96 603 -10 703 25 l 718 235 b 493 146 618 169 547 146 b 274 456 378 146 274 229 b 503 764 274 663 382 764 b 708 679 558 764 608 750 l 796 819 b 499 931 683 900 599 931 b 69 453 242 931 69 728 b 426 -19 69 158 207 -3 l 383 -149 l 392 -162 b 568 -211 532 -169 568 -183 b 315 -279 568 -247 526 -261 l 342 -375 b 694 -208 650 -349 694 -301 z "},"Ď":{"ha":853,"x_min":0,"x_max":0,"o":"m 669 1181 l 613 1278 l 393 1161 l 171 1278 l 115 1181 l 364 1015 l 422 1015 z m 104 910 l 104 0 l 249 0 b 789 463 635 0 789 193 b 276 910 789 740 624 910 z m 343 740 b 585 460 490 731 585 653 b 319 169 585 263 500 183 l 304 168 l 304 743 z "},"Ḓ":{"ha":853,"x_min":0,"x_max":0,"o":"m 104 910 l 104 0 l 249 0 b 789 463 635 0 789 193 b 276 910 789 740 624 910 z m 343 740 b 585 460 490 731 585 653 b 319 169 585 263 500 183 l 304 168 l 304 743 z m 132 -312 l 197 -390 l 393 -247 l 589 -390 l 654 -312 l 436 -106 l 350 -106 z "},"Ḏ":{"ha":853,"x_min":0,"x_max":0,"o":"m 104 910 l 104 0 l 249 0 b 789 463 635 0 789 193 b 276 910 789 740 624 910 z m 343 740 b 585 460 490 731 585 653 b 319 169 585 263 500 183 l 304 168 l 304 743 z m 156 -297 l 631 -297 l 631 -161 l 156 -161 z "},"Ḍ":{"ha":853,"x_min":0,"x_max":0,"o":"m 104 910 l 104 0 l 249 0 b 789 463 635 0 789 193 b 276 910 789 740 624 910 z m 343 740 b 585 460 490 731 585 653 b 319 169 585 263 500 183 l 304 168 l 304 743 z m 393 -346 b 504 -240 461 -346 504 -308 b 394 -133 504 -171 465 -133 b 285 -240 326 -133 285 -178 b 393 -346 285 -308 325 -346 z "},"Đ":{"ha":853,"x_min":0,"x_max":0,"o":"m 29 406 l 136 406 l 136 0 l 249 0 b 789 463 635 0 789 193 b 276 910 789 740 624 910 l 136 910 l 136 511 l 29 511 z m 451 406 l 451 511 l 329 511 l 329 749 b 592 460 488 739 592 653 b 329 164 592 267 503 182 l 329 406 z "},"É":{"ha":853,"x_min":0,"x_max":0,"o":"m 300 1125 l 353 1015 l 696 1163 l 632 1293 z m 121 910 l 121 0 l 753 0 l 753 167 l 322 167 l 322 375 l 707 375 l 707 542 l 322 542 l 322 743 l 751 743 l 751 910 z "},"È":{"ha":853,"x_min":0,"x_max":0,"o":"m 572 1125 l 240 1293 l 176 1163 l 519 1015 z m 121 910 l 121 0 l 753 0 l 753 167 l 322 167 l 322 375 l 707 375 l 707 542 l 322 542 l 322 743 l 751 743 l 751 910 z "},"Ê":{"ha":853,"x_min":0,"x_max":0,"o":"m 160 1113 l 217 1015 l 436 1132 l 658 1015 l 714 1113 l 465 1278 l 407 1278 z m 121 910 l 121 0 l 753 0 l 753 167 l 322 167 l 322 375 l 707 375 l 707 542 l 322 542 l 322 743 l 751 743 l 751 910 z "},"Ệ":{"ha":853,"x_min":0,"x_max":0,"o":"m 160 1113 l 217 1015 l 436 1132 l 658 1015 l 714 1113 l 465 1278 l 407 1278 z m 121 910 l 121 0 l 753 0 l 753 167 l 322 167 l 322 375 l 707 375 l 707 542 l 322 542 l 322 743 l 751 743 l 751 910 z m 436 -346 b 547 -240 504 -346 547 -308 b 438 -133 547 -171 508 -133 b 328 -240 369 -133 328 -178 b 436 -346 328 -308 368 -346 z "},"Ế":{"ha":853,"x_min":0,"x_max":0,"o":"m 542 1349 l 594 1239 l 821 1332 l 757 1463 z m 160 1113 l 217 1015 l 436 1119 l 658 1015 l 714 1113 l 465 1264 l 407 1264 z m 121 910 l 121 0 l 753 0 l 753 167 l 322 167 l 322 375 l 707 375 l 707 542 l 322 542 l 322 743 l 751 743 l 751 910 z "},"Ề":{"ha":853,"x_min":0,"x_max":0,"o":"m 771 1356 l 556 1469 l 492 1339 l 718 1246 z m 160 1113 l 217 1015 l 436 1119 l 658 1015 l 714 1113 l 465 1264 l 407 1264 z m 121 910 l 121 0 l 753 0 l 753 167 l 322 167 l 322 375 l 707 375 l 707 542 l 322 542 l 322 743 l 751 743 l 751 910 z "},"Ể":{"ha":853,"x_min":0,"x_max":0,"o":"m 594 1254 b 858 1413 790 1288 858 1347 b 561 1538 858 1471 800 1511 l 489 1442 l 489 1439 b 686 1390 665 1415 686 1406 b 553 1336 686 1374 669 1363 l 553 1333 z m 160 1113 l 217 1015 l 436 1119 l 658 1015 l 714 1113 l 465 1264 l 407 1264 z m 121 910 l 121 0 l 753 0 l 753 167 l 322 167 l 322 375 l 707 375 l 707 542 l 322 542 l 322 743 l 751 743 l 751 910 z "},"Ễ":{"ha":853,"x_min":0,"x_max":0,"o":"m 450 1489 b 326 1536 379 1531 357 1536 b 167 1339 278 1536 229 1522 l 272 1299 b 343 1406 311 1389 324 1406 b 440 1361 358 1406 374 1400 b 564 1314 511 1319 533 1314 b 724 1511 613 1314 661 1328 l 618 1551 b 547 1444 579 1461 567 1444 b 450 1489 532 1444 517 1450 z m 160 1113 l 217 1015 l 436 1119 l 658 1015 l 714 1113 l 465 1264 l 407 1264 z m 121 910 l 121 0 l 753 0 l 753 167 l 322 167 l 322 375 l 707 375 l 707 542 l 322 542 l 322 743 l 751 743 l 751 910 z "},"Ě":{"ha":853,"x_min":0,"x_max":0,"o":"m 714 1181 l 657 1278 l 438 1161 l 215 1278 l 160 1181 l 408 1015 l 467 1015 z m 121 910 l 121 0 l 753 0 l 753 167 l 322 167 l 322 375 l 707 375 l 707 542 l 322 542 l 322 743 l 751 743 l 751 910 z "},"Ĕ":{"ha":853,"x_min":0,"x_max":0,"o":"m 436 1147 b 278 1282 376 1147 315 1175 l 161 1240 b 436 1015 206 1074 322 1015 b 711 1240 550 1015 667 1074 l 594 1282 b 436 1147 558 1176 496 1147 z m 121 910 l 121 0 l 753 0 l 753 167 l 322 167 l 322 375 l 707 375 l 707 542 l 322 542 l 322 743 l 751 743 l 751 910 z "},"Ẽ":{"ha":853,"x_min":0,"x_max":0,"o":"m 728 1243 l 614 1283 b 543 1160 578 1171 558 1160 b 444 1218 529 1160 513 1164 b 322 1275 389 1261 358 1275 b 143 1047 269 1275 215 1260 l 257 1007 b 328 1131 293 1119 313 1131 b 426 1072 342 1131 358 1126 b 549 1015 482 1029 513 1015 b 728 1243 601 1015 656 1031 z m 121 910 l 121 0 l 753 0 l 753 167 l 322 167 l 322 375 l 707 375 l 707 542 l 322 542 l 322 743 l 751 743 l 751 910 z "},"Ē":{"ha":853,"x_min":0,"x_max":0,"o":"m 201 1071 l 671 1071 l 671 1213 l 201 1213 z m 121 910 l 121 0 l 753 0 l 753 167 l 322 167 l 322 375 l 707 375 l 707 542 l 322 542 l 322 743 l 751 743 l 751 910 z "},"Ë":{"ha":853,"x_min":0,"x_max":0,"o":"m 261 1043 b 365 1142 325 1043 365 1078 b 263 1242 365 1207 329 1242 b 160 1142 199 1242 160 1200 b 261 1043 160 1078 197 1043 z m 608 1043 b 713 1142 672 1043 713 1078 b 610 1242 713 1207 676 1242 b 507 1142 546 1242 507 1200 b 608 1043 507 1078 544 1043 z m 121 910 l 121 0 l 753 0 l 753 167 l 322 167 l 322 375 l 707 375 l 707 542 l 322 542 l 322 743 l 751 743 l 751 910 z "},"Ė":{"ha":853,"x_min":0,"x_max":0,"o":"m 436 1043 b 547 1149 504 1043 547 1081 b 438 1256 547 1218 508 1256 b 328 1149 369 1256 328 1211 b 436 1043 328 1081 368 1043 z m 121 910 l 121 0 l 753 0 l 753 167 l 322 167 l 322 375 l 707 375 l 707 542 l 322 542 l 322 743 l 751 743 l 751 910 z "},"Ẻ":{"ha":853,"x_min":0,"x_max":0,"o":"m 311 1015 b 617 1188 536 1053 617 1117 b 319 1326 617 1253 558 1300 l 247 1231 l 247 1228 b 444 1165 424 1204 444 1185 b 269 1097 444 1144 421 1132 l 269 1094 z m 121 910 l 121 0 l 753 0 l 753 167 l 322 167 l 322 375 l 707 375 l 707 542 l 322 542 l 322 743 l 751 743 l 751 910 z "},"Ẹ":{"ha":853,"x_min":0,"x_max":0,"o":"m 121 910 l 121 0 l 753 0 l 753 167 l 322 167 l 322 375 l 707 375 l 707 542 l 322 542 l 322 743 l 751 743 l 751 910 z m 436 -346 b 547 -240 504 -346 547 -308 b 438 -133 547 -171 508 -133 b 328 -240 369 -133 328 -178 b 436 -346 328 -308 368 -346 z "},"Ę":{"ha":853,"x_min":0,"x_max":0,"o":"m 481 -219 b 610 -319 481 -282 521 -315 l 744 -325 l 758 -196 l 682 -190 b 625 -147 636 -187 625 -175 b 704 0 625 -132 628 -110 l 753 0 l 753 167 l 322 167 l 322 375 l 707 375 l 707 542 l 322 542 l 322 743 l 751 743 l 751 910 l 121 910 l 121 0 l 613 0 b 481 -219 511 -117 481 -176 z "},"Ĝ":{"ha":853,"x_min":0,"x_max":0,"o":"m 183 1106 l 240 1008 l 460 1125 l 682 1008 l 738 1106 l 489 1271 l 431 1271 z m 690 744 l 707 910 b 557 924 644 919 610 924 b 68 449 236 924 68 740 b 500 -21 68 126 224 -21 b 776 18 592 -21 686 -6 l 776 519 l 429 519 l 429 365 l 588 365 l 588 153 b 524 146 564 149 544 146 b 274 456 346 146 274 231 b 574 754 274 661 376 754 b 690 744 611 754 642 751 z "},"Ǧ":{"ha":853,"x_min":0,"x_max":0,"o":"m 738 1181 l 681 1278 l 461 1161 l 239 1278 l 183 1181 l 432 1015 l 490 1015 z m 690 744 l 707 910 b 557 924 644 919 610 924 b 68 449 236 924 68 740 b 500 -21 68 126 224 -21 b 776 18 592 -21 686 -6 l 776 519 l 429 519 l 429 365 l 588 365 l 588 153 b 524 146 564 149 544 146 b 274 456 346 146 274 231 b 574 754 274 661 376 754 b 690 744 611 754 642 751 z "},"Ğ":{"ha":853,"x_min":0,"x_max":0,"o":"m 460 1147 b 301 1282 400 1147 339 1175 l 185 1240 b 460 1015 229 1074 346 1015 b 735 1240 574 1015 690 1074 l 618 1282 b 460 1147 582 1176 519 1147 z m 690 744 l 707 910 b 557 924 644 919 610 924 b 68 449 236 924 68 740 b 500 -21 68 126 224 -21 b 776 18 592 -21 686 -6 l 776 519 l 429 519 l 429 365 l 588 365 l 588 153 b 524 146 564 149 544 146 b 274 456 346 146 274 231 b 574 754 274 661 376 754 b 690 744 611 754 642 751 z "},"Ḡ":{"ha":853,"x_min":0,"x_max":0,"o":"m 225 1071 l 694 1071 l 694 1213 l 225 1213 z m 690 744 l 707 910 b 557 924 644 919 610 924 b 68 449 236 924 68 740 b 500 -21 68 126 224 -21 b 776 18 592 -21 686 -6 l 776 519 l 429 519 l 429 365 l 588 365 l 588 153 b 524 146 564 149 544 146 b 274 456 346 146 274 231 b 574 754 274 661 376 754 b 690 744 611 754 642 751 z "},"Ġ":{"ha":853,"x_min":0,"x_max":0,"o":"m 460 1043 b 571 1149 528 1043 571 1081 b 461 1256 571 1218 532 1256 b 351 1149 393 1256 351 1211 b 460 1043 351 1081 392 1043 z m 690 744 l 707 910 b 557 924 644 919 610 924 b 68 449 236 924 68 740 b 500 -21 68 126 224 -21 b 776 18 592 -21 686 -6 l 776 519 l 429 519 l 429 365 l 588 365 l 588 153 b 524 146 564 149 544 146 b 274 456 346 146 274 231 b 574 754 274 661 376 754 b 690 744 611 754 642 751 z "},"Ģ":{"ha":853,"x_min":0,"x_max":0,"o":"m 690 744 l 707 910 b 557 924 644 919 610 924 b 68 449 236 924 68 740 b 500 -21 68 126 224 -21 b 776 18 592 -21 686 -6 l 776 519 l 429 519 l 429 365 l 588 365 l 588 153 b 524 146 564 149 544 146 b 274 456 346 146 274 231 b 574 754 274 661 376 754 b 690 744 611 754 642 751 z m 336 -437 b 642 -258 561 -400 642 -332 b 344 -112 642 -190 583 -139 l 272 -208 l 272 -211 b 469 -281 449 -235 469 -258 b 294 -356 469 -303 446 -321 l 294 -358 z "},"Ĥ":{"ha":853,"x_min":0,"x_max":0,"o":"m 150 1113 l 207 1015 l 426 1132 l 649 1015 l 704 1113 l 456 1278 l 397 1278 z m 104 910 l 104 0 l 304 0 l 304 375 l 549 375 l 549 0 l 749 0 l 749 910 l 549 910 l 549 542 l 304 542 l 304 910 z "},"Ḫ":{"ha":853,"x_min":0,"x_max":0,"o":"m 104 910 l 104 0 l 304 0 l 304 375 l 549 375 l 549 0 l 749 0 l 749 910 l 549 910 l 549 542 l 304 542 l 304 910 z m 426 -254 b 268 -106 367 -254 308 -222 l 151 -147 b 426 -386 199 -324 313 -386 b 701 -147 540 -386 654 -324 l 585 -106 b 426 -254 546 -221 486 -254 z "},"Ḥ":{"ha":853,"x_min":0,"x_max":0,"o":"m 104 910 l 104 0 l 304 0 l 304 375 l 549 375 l 549 0 l 749 0 l 749 910 l 549 910 l 549 542 l 304 542 l 304 910 z m 426 -339 b 538 -233 494 -339 538 -301 b 428 -126 538 -164 499 -126 b 318 -233 360 -126 318 -171 b 426 -339 318 -301 358 -339 z "},"Ḩ":{"ha":853,"x_min":0,"x_max":0,"o":"m 104 910 l 104 0 l 156 0 l 108 -142 l 117 -156 b 293 -204 257 -162 293 -176 b 40 -272 293 -240 251 -254 l 67 -368 b 419 -201 375 -342 419 -294 b 218 -79 419 -140 379 -97 l 242 0 l 304 0 l 304 375 l 549 375 l 549 0 l 749 0 l 749 910 l 549 910 l 549 542 l 304 542 l 304 910 z "},"Ħ":{"ha":853,"x_min":0,"x_max":0,"o":"m 29 643 l 136 643 l 136 0 l 329 0 l 329 313 l 524 313 l 524 0 l 717 0 l 717 643 l 824 643 l 824 744 l 717 744 l 717 910 l 524 910 l 524 738 l 329 738 l 329 910 l 136 910 l 136 744 l 29 744 z m 329 465 l 329 650 l 524 650 l 524 465 z "},"Í":{"ha":853,"x_min":0,"x_max":0,"o":"m 290 1125 l 343 1015 l 686 1163 l 622 1293 z m 157 111 l 157 0 l 696 0 l 696 111 l 528 146 l 528 764 l 696 799 l 696 910 l 157 910 l 157 799 l 328 764 l 328 146 z "},"Ì":{"ha":853,"x_min":0,"x_max":0,"o":"m 563 1125 l 231 1293 l 167 1163 l 510 1015 z m 157 111 l 157 0 l 696 0 l 696 111 l 528 146 l 528 764 l 696 799 l 696 910 l 157 910 l 157 799 l 328 764 l 328 146 z "},"Î":{"ha":853,"x_min":0,"x_max":0,"o":"m 150 1113 l 207 1015 l 426 1132 l 649 1015 l 704 1113 l 456 1278 l 397 1278 z m 157 111 l 157 0 l 696 0 l 696 111 l 528 146 l 528 764 l 696 799 l 696 910 l 157 910 l 157 799 l 328 764 l 328 146 z "},"Ǐ":{"ha":853,"x_min":0,"x_max":0,"o":"m 704 1181 l 647 1278 l 428 1161 l 206 1278 l 150 1181 l 399 1015 l 457 1015 z m 157 111 l 157 0 l 696 0 l 696 111 l 528 146 l 528 764 l 696 799 l 696 910 l 157 910 l 157 799 l 328 764 l 328 146 z "},"Ĭ":{"ha":853,"x_min":0,"x_max":0,"o":"m 426 1147 b 268 1282 367 1147 306 1175 l 151 1240 b 426 1015 196 1074 313 1015 b 701 1240 540 1015 657 1074 l 585 1282 b 426 1147 549 1176 486 1147 z m 157 111 l 157 0 l 696 0 l 696 111 l 528 146 l 528 764 l 696 799 l 696 910 l 157 910 l 157 799 l 328 764 l 328 146 z "},"Ĩ":{"ha":853,"x_min":0,"x_max":0,"o":"m 718 1243 l 604 1283 b 533 1160 568 1171 549 1160 b 435 1218 519 1160 503 1164 b 313 1275 379 1261 349 1275 b 133 1047 260 1275 206 1260 l 247 1007 b 318 1131 283 1119 303 1131 b 417 1072 332 1131 349 1126 b 539 1015 472 1029 503 1015 b 718 1243 592 1015 646 1031 z m 157 111 l 157 0 l 696 0 l 696 111 l 528 146 l 528 764 l 696 799 l 696 910 l 157 910 l 157 799 l 328 764 l 328 146 z "},"Ī":{"ha":853,"x_min":0,"x_max":0,"o":"m 192 1071 l 661 1071 l 661 1213 l 192 1213 z m 157 111 l 157 0 l 696 0 l 696 111 l 528 146 l 528 764 l 696 799 l 696 910 l 157 910 l 157 799 l 328 764 l 328 146 z "},"Ï":{"ha":853,"x_min":0,"x_max":0,"o":"m 251 1043 b 356 1142 315 1043 356 1078 b 253 1242 356 1207 319 1242 b 150 1142 189 1242 150 1200 b 251 1043 150 1078 188 1043 z m 599 1043 b 703 1142 663 1043 703 1078 b 600 1242 703 1207 667 1242 b 497 1142 536 1242 497 1200 b 599 1043 497 1078 535 1043 z m 157 111 l 157 0 l 696 0 l 696 111 l 528 146 l 528 764 l 696 799 l 696 910 l 157 910 l 157 799 l 328 764 l 328 146 z "},"İ":{"ha":853,"x_min":0,"x_max":0,"o":"m 426 1043 b 538 1149 494 1043 538 1081 b 428 1256 538 1218 499 1256 b 318 1149 360 1256 318 1211 b 426 1043 318 1081 358 1043 z m 157 111 l 157 0 l 696 0 l 696 111 l 528 146 l 528 764 l 696 799 l 696 910 l 157 910 l 157 799 l 328 764 l 328 146 z "},"Ỉ":{"ha":853,"x_min":0,"x_max":0,"o":"m 301 1015 b 607 1188 526 1053 607 1117 b 310 1326 607 1253 549 1300 l 238 1231 l 238 1228 b 435 1165 414 1204 435 1185 b 260 1097 435 1144 411 1132 l 260 1094 z m 157 111 l 157 0 l 696 0 l 696 111 l 528 146 l 528 764 l 696 799 l 696 910 l 157 910 l 157 799 l 328 764 l 328 146 z "},"Ị":{"ha":853,"x_min":0,"x_max":0,"o":"m 157 111 l 157 0 l 696 0 l 696 111 l 528 146 l 528 764 l 696 799 l 696 910 l 157 910 l 157 799 l 328 764 l 328 146 z m 426 -346 b 538 -240 494 -346 538 -308 b 428 -133 538 -171 499 -133 b 318 -240 360 -133 318 -178 b 426 -346 318 -308 358 -346 z "},"Į":{"ha":853,"x_min":0,"x_max":0,"o":"m 157 111 l 157 0 l 390 0 b 258 -219 289 -117 258 -176 b 388 -319 258 -282 299 -315 l 522 -325 l 536 -196 l 460 -190 b 403 -147 414 -187 403 -175 b 482 0 403 -132 406 -110 l 696 0 l 696 111 l 528 146 l 528 764 l 696 799 l 696 910 l 157 910 l 157 799 l 328 764 l 328 146 z "},"Ĵ":{"ha":853,"x_min":0,"x_max":0,"o":"m 376 1099 l 433 1001 l 653 1118 l 875 1001 l 931 1099 l 682 1264 l 624 1264 z m 457 -21 b 754 271 649 -21 754 97 l 754 910 l 553 910 l 553 289 b 443 164 553 204 515 164 b 164 325 383 164 313 203 l 42 178 b 457 -21 225 18 329 -21 z "},"Ḵ":{"ha":853,"x_min":0,"x_max":0,"o":"m 310 910 l 108 910 l 108 0 l 310 0 l 310 435 l 593 0 l 839 0 l 839 3 l 524 471 l 833 907 l 833 910 l 600 910 l 310 476 z m 197 -297 l 672 -297 l 672 -161 l 197 -161 z "},"Ķ":{"ha":853,"x_min":0,"x_max":0,"o":"m 310 910 l 108 910 l 108 0 l 310 0 l 310 435 l 593 0 l 839 0 l 839 3 l 524 471 l 833 907 l 833 910 l 600 910 l 310 476 z m 301 -431 b 607 -251 526 -393 607 -325 b 310 -106 607 -183 549 -132 l 238 -201 l 238 -204 b 435 -274 414 -228 435 -251 b 260 -349 435 -296 411 -314 l 260 -351 z "},"Ḳ":{"ha":853,"x_min":0,"x_max":0,"o":"m 310 910 l 108 910 l 108 0 l 310 0 l 310 435 l 593 0 l 839 0 l 839 3 l 524 471 l 833 907 l 833 910 l 600 910 l 310 476 z m 435 -346 b 546 -240 503 -346 546 -308 b 436 -133 546 -171 507 -133 b 326 -240 368 -133 326 -178 b 435 -346 326 -308 367 -346 z "},"Ĺ":{"ha":853,"x_min":0,"x_max":0,"o":"m 92 1125 l 144 1015 l 488 1163 l 424 1293 z m 121 910 l 121 0 l 768 0 l 768 165 l 322 165 l 322 910 z "},"Ľ":{"ha":853,"x_min":0,"x_max":0,"o":"m 121 910 l 121 0 l 768 0 l 768 165 l 322 165 l 322 910 z m 497 599 l 631 599 l 664 910 l 497 910 z "},"Ļ":{"ha":853,"x_min":0,"x_max":0,"o":"m 121 910 l 121 0 l 768 0 l 768 165 l 322 165 l 322 910 z m 311 -431 b 617 -251 536 -393 617 -325 b 319 -106 617 -183 558 -132 l 247 -201 l 247 -204 b 444 -274 424 -228 444 -251 b 269 -349 444 -296 421 -314 l 269 -351 z "},"Ḽ":{"ha":853,"x_min":0,"x_max":0,"o":"m 121 910 l 121 0 l 768 0 l 768 165 l 322 165 l 322 910 z m 183 -312 l 249 -390 l 444 -247 l 640 -390 l 706 -312 l 488 -106 l 401 -106 z "},"Ḻ":{"ha":853,"x_min":0,"x_max":0,"o":"m 121 910 l 121 0 l 768 0 l 768 165 l 322 165 l 322 910 z m 207 -297 l 682 -297 l 682 -161 l 207 -161 z "},"Ḹ":{"ha":853,"x_min":0,"x_max":0,"o":"m -7 1071 l 463 1071 l 463 1213 l -7 1213 z m 121 910 l 121 0 l 768 0 l 768 165 l 322 165 l 322 910 z m 444 -346 b 556 -240 513 -346 556 -308 b 446 -133 556 -171 517 -133 b 336 -240 378 -133 336 -178 b 444 -346 336 -308 376 -346 z "},"Ḷ":{"ha":853,"x_min":0,"x_max":0,"o":"m 121 910 l 121 0 l 768 0 l 768 165 l 322 165 l 322 910 z m 444 -346 b 556 -240 513 -346 556 -308 b 446 -133 556 -171 517 -133 b 336 -240 378 -133 336 -178 b 444 -346 336 -308 376 -346 z "},"Ŀ":{"ha":853,"x_min":0,"x_max":0,"o":"m 121 910 l 121 0 l 768 0 l 768 165 l 322 165 l 322 910 z m 656 386 b 772 538 729 386 772 438 b 657 688 772 640 735 688 b 542 536 581 688 542 629 b 656 386 542 436 579 386 z "},"Ł":{"ha":853,"x_min":0,"x_max":0,"o":"m 43 258 l 150 333 l 150 0 l 768 0 l 768 165 l 351 165 l 351 460 l 599 635 l 599 764 l 351 589 l 351 910 l 150 910 l 150 463 l 43 388 z "},"Ḿ":{"ha":853,"x_min":0,"x_max":0,"o":"m 296 1125 l 349 1015 l 692 1163 l 628 1293 z m 739 910 l 551 910 l 429 543 l 307 910 l 114 910 l 72 0 l 254 0 l 274 633 l 411 229 l 439 229 l 576 640 l 596 0 l 781 0 z "},"Ṁ":{"ha":853,"x_min":0,"x_max":0,"o":"m 432 1043 b 543 1149 500 1043 543 1081 b 433 1256 543 1218 504 1256 b 324 1149 365 1256 324 1211 b 432 1043 324 1081 364 1043 z m 739 910 l 551 910 l 429 543 l 307 910 l 114 910 l 72 0 l 254 0 l 274 633 l 411 229 l 439 229 l 576 640 l 596 0 l 781 0 z "},"Ṃ":{"ha":853,"x_min":0,"x_max":0,"o":"m 739 910 l 551 910 l 429 543 l 307 910 l 114 910 l 72 0 l 254 0 l 274 633 l 411 229 l 439 229 l 576 640 l 596 0 l 781 0 z m 432 -346 b 543 -240 500 -346 543 -308 b 433 -133 543 -171 504 -133 b 324 -240 365 -133 324 -178 b 432 -346 324 -308 364 -346 z "},"Ń":{"ha":853,"x_min":0,"x_max":0,"o":"m 296 1118 l 349 1008 l 692 1156 l 628 1286 z m 286 0 l 278 565 l 558 0 l 750 0 l 750 910 l 567 910 l 575 347 l 296 910 l 103 910 l 103 0 z "},"Ǹ":{"ha":853,"x_min":0,"x_max":0,"o":"m 568 1118 l 236 1286 l 172 1156 l 515 1008 z m 286 0 l 278 565 l 558 0 l 750 0 l 750 910 l 567 910 l 575 347 l 296 910 l 103 910 l 103 0 z "},"Ň":{"ha":853,"x_min":0,"x_max":0,"o":"m 710 1174 l 653 1271 l 433 1154 l 211 1271 l 156 1174 l 404 1008 l 463 1008 z m 286 0 l 278 565 l 558 0 l 750 0 l 750 910 l 567 910 l 575 347 l 296 910 l 103 910 l 103 0 z "},"Ñ":{"ha":853,"x_min":0,"x_max":0,"o":"m 724 1243 l 610 1283 b 539 1160 574 1171 554 1160 b 440 1218 525 1160 508 1164 b 318 1275 385 1261 354 1275 b 139 1047 265 1275 211 1260 l 253 1007 b 324 1131 289 1119 308 1131 b 422 1072 338 1131 354 1126 b 544 1015 478 1029 508 1015 b 724 1243 597 1015 651 1031 z m 286 0 l 278 565 l 558 0 l 750 0 l 750 910 l 567 910 l 575 347 l 296 910 l 103 910 l 103 0 z "},"Ṅ":{"ha":853,"x_min":0,"x_max":0,"o":"m 432 1036 b 543 1142 500 1036 543 1074 b 433 1249 543 1211 504 1249 b 324 1142 365 1249 324 1204 b 432 1036 324 1074 364 1036 z m 286 0 l 278 565 l 558 0 l 750 0 l 750 910 l 567 910 l 575 347 l 296 910 l 103 910 l 103 0 z "},"Ṋ":{"ha":853,"x_min":0,"x_max":0,"o":"m 286 0 l 278 565 l 558 0 l 750 0 l 750 910 l 567 910 l 575 347 l 296 910 l 103 910 l 103 0 z m 169 -306 l 235 -383 l 431 -240 l 626 -383 l 692 -306 l 474 -99 l 388 -99 z "},"Ņ":{"ha":853,"x_min":0,"x_max":0,"o":"m 286 0 l 278 565 l 558 0 l 750 0 l 750 910 l 567 910 l 575 347 l 296 910 l 103 910 l 103 0 z m 297 -424 b 603 -244 522 -386 603 -318 b 306 -99 603 -176 544 -125 l 233 -194 l 233 -197 b 431 -267 410 -221 431 -244 b 256 -342 431 -289 407 -307 l 256 -344 z "},"Ṇ":{"ha":853,"x_min":0,"x_max":0,"o":"m 286 0 l 278 565 l 558 0 l 750 0 l 750 910 l 567 910 l 575 347 l 296 910 l 103 910 l 103 0 z m 431 -339 b 542 -233 499 -339 542 -301 b 432 -126 542 -164 503 -126 b 322 -233 364 -126 322 -171 b 431 -339 322 -301 363 -339 z "},"Ṉ":{"ha":853,"x_min":0,"x_max":0,"o":"m 286 0 l 278 565 l 558 0 l 750 0 l 750 910 l 567 910 l 575 347 l 296 910 l 103 910 l 103 0 z m 193 -297 l 668 -297 l 668 -161 l 193 -161 z "},"Ŋ":{"ha":853,"x_min":0,"x_max":0,"o":"m 286 0 l 278 565 l 576 -36 b 418 -165 567 -126 508 -158 l 268 -176 l 275 -328 l 433 -319 b 750 8 665 -307 750 -232 l 750 910 l 567 910 l 574 350 l 296 910 l 103 910 l 103 0 z "},"Ó":{"ha":853,"x_min":0,"x_max":0,"o":"m 293 1132 l 346 1022 l 689 1169 l 625 1300 z m 783 456 b 429 931 783 783 649 931 b 69 453 207 931 69 779 b 424 -21 69 125 204 -21 b 783 456 646 -21 783 129 z m 274 456 b 426 764 274 697 331 764 b 579 453 521 764 579 696 b 426 146 579 211 522 146 b 274 456 332 146 274 214 z "},"Ő":{"ha":853,"x_min":0,"x_max":0,"o":"m 175 1114 l 265 1021 l 463 1188 l 361 1293 z m 501 1114 l 592 1021 l 789 1188 l 688 1293 z m 783 456 b 429 931 783 783 649 931 b 69 453 207 931 69 779 b 424 -21 69 125 204 -21 b 783 456 646 -21 783 129 z m 274 456 b 426 764 274 697 331 764 b 579 453 521 764 579 696 b 426 146 579 211 522 146 b 274 456 332 146 274 214 z "},"Ò":{"ha":853,"x_min":0,"x_max":0,"o":"m 565 1132 l 233 1300 l 169 1169 l 513 1022 z m 783 456 b 429 931 783 783 649 931 b 69 453 207 931 69 779 b 424 -21 69 125 204 -21 b 783 456 646 -21 783 129 z m 274 456 b 426 764 274 697 331 764 b 579 453 521 764 579 696 b 426 146 579 211 522 146 b 274 456 332 146 274 214 z "},"Ô":{"ha":853,"x_min":0,"x_max":0,"o":"m 153 1113 l 210 1015 l 429 1132 l 651 1015 l 707 1113 l 458 1278 l 400 1278 z m 783 456 b 429 931 783 783 649 931 b 69 453 207 931 69 779 b 424 -21 69 125 204 -21 b 783 456 646 -21 783 129 z m 274 456 b 426 764 274 697 331 764 b 579 453 521 764 579 696 b 426 146 579 211 522 146 b 274 456 332 146 274 214 z "},"Ộ":{"ha":853,"x_min":0,"x_max":0,"o":"m 153 1113 l 210 1015 l 429 1132 l 651 1015 l 707 1113 l 458 1278 l 400 1278 z m 783 456 b 429 931 783 783 649 931 b 69 453 207 931 69 779 b 424 -21 69 125 204 -21 b 783 456 646 -21 783 129 z m 274 456 b 426 764 274 697 331 764 b 579 453 521 764 579 696 b 426 146 579 211 522 146 b 274 456 332 146 274 214 z m 431 -353 b 542 -247 499 -353 542 -315 b 432 -140 542 -178 503 -140 b 322 -247 364 -140 322 -185 b 431 -353 322 -315 363 -353 z "},"Ố":{"ha":853,"x_min":0,"x_max":0,"o":"m 535 1349 l 588 1239 l 814 1332 l 750 1463 z m 153 1113 l 210 1015 l 429 1119 l 651 1015 l 707 1113 l 458 1264 l 400 1264 z m 783 456 b 429 931 783 783 649 931 b 69 453 207 931 69 779 b 424 -21 69 125 204 -21 b 783 456 646 -21 783 129 z m 274 456 b 426 764 274 697 331 764 b 579 453 521 764 579 696 b 426 146 579 211 522 146 b 274 456 332 146 274 214 z "},"Ồ":{"ha":853,"x_min":0,"x_max":0,"o":"m 764 1356 l 549 1469 l 485 1339 l 711 1246 z m 153 1113 l 210 1015 l 429 1119 l 651 1015 l 707 1113 l 458 1264 l 400 1264 z m 783 456 b 429 931 783 783 649 931 b 69 453 207 931 69 779 b 424 -21 69 125 204 -21 b 783 456 646 -21 783 129 z m 274 456 b 426 764 274 697 331 764 b 579 453 521 764 579 696 b 426 146 579 211 522 146 b 274 456 332 146 274 214 z "},"Ổ":{"ha":853,"x_min":0,"x_max":0,"o":"m 588 1254 b 851 1413 783 1288 851 1347 b 554 1538 851 1471 793 1511 l 482 1442 l 482 1439 b 679 1390 658 1415 679 1406 b 546 1336 679 1374 663 1363 l 546 1333 z m 153 1113 l 210 1015 l 429 1119 l 651 1015 l 707 1113 l 458 1264 l 400 1264 z m 783 456 b 429 931 783 783 649 931 b 69 453 207 931 69 779 b 424 -21 69 125 204 -21 b 783 456 646 -21 783 129 z m 274 456 b 426 764 274 697 331 764 b 579 453 521 764 579 696 b 426 146 579 211 522 146 b 274 456 332 146 274 214 z "},"Ỗ":{"ha":853,"x_min":0,"x_max":0,"o":"m 443 1489 b 319 1536 372 1531 350 1536 b 160 1339 271 1536 222 1522 l 265 1299 b 336 1406 304 1389 317 1406 b 433 1361 351 1406 367 1400 b 557 1314 504 1319 526 1314 b 717 1511 606 1314 654 1328 l 611 1551 b 540 1444 572 1461 560 1444 b 443 1489 525 1444 510 1450 z m 153 1113 l 210 1015 l 429 1119 l 651 1015 l 707 1113 l 458 1264 l 400 1264 z m 783 456 b 429 931 783 783 649 931 b 69 453 207 931 69 779 b 424 -21 69 125 204 -21 b 783 456 646 -21 783 129 z m 274 456 b 426 764 274 697 331 764 b 579 453 521 764 579 696 b 426 146 579 211 522 146 b 274 456 332 146 274 214 z "},"Ǒ":{"ha":853,"x_min":0,"x_max":0,"o":"m 707 1188 l 650 1285 l 431 1168 l 208 1285 l 153 1188 l 401 1022 l 460 1022 z m 783 456 b 429 931 783 783 649 931 b 69 453 207 931 69 779 b 424 -21 69 125 204 -21 b 783 456 646 -21 783 129 z m 274 456 b 426 764 274 697 331 764 b 579 453 521 764 579 696 b 426 146 579 211 522 146 b 274 456 332 146 274 214 z "},"Ŏ":{"ha":853,"x_min":0,"x_max":0,"o":"m 429 1154 b 271 1289 369 1154 308 1182 l 154 1247 b 429 1022 199 1081 315 1022 b 704 1247 543 1022 660 1081 l 588 1289 b 429 1154 551 1183 489 1154 z m 783 456 b 429 931 783 783 649 931 b 69 453 207 931 69 779 b 424 -21 69 125 204 -21 b 783 456 646 -21 783 129 z m 274 456 b 426 764 274 697 331 764 b 579 453 521 764 579 696 b 426 146 579 211 522 146 b 274 456 332 146 274 214 z "},"Õ":{"ha":853,"x_min":0,"x_max":0,"o":"m 721 1250 l 607 1290 b 536 1167 571 1178 551 1167 b 438 1225 522 1167 506 1171 b 315 1282 382 1268 351 1282 b 136 1054 263 1282 208 1267 l 250 1014 b 321 1138 286 1126 306 1138 b 419 1079 335 1138 351 1133 b 542 1022 475 1036 506 1022 b 721 1250 594 1022 649 1038 z m 783 456 b 429 931 783 783 649 931 b 69 453 207 931 69 779 b 424 -21 69 125 204 -21 b 783 456 646 -21 783 129 z m 274 456 b 426 764 274 697 331 764 b 579 453 521 764 579 696 b 426 146 579 211 522 146 b 274 456 332 146 274 214 z "},"Ō":{"ha":853,"x_min":0,"x_max":0,"o":"m 194 1078 l 664 1078 l 664 1219 l 194 1219 z m 783 456 b 429 931 783 783 649 931 b 69 453 207 931 69 779 b 424 -21 69 125 204 -21 b 783 456 646 -21 783 129 z m 274 456 b 426 764 274 697 331 764 b 579 453 521 764 579 696 b 426 146 579 211 522 146 b 274 456 332 146 274 214 z "},"Ö":{"ha":853,"x_min":0,"x_max":0,"o":"m 254 1050 b 358 1149 318 1050 358 1085 b 256 1249 358 1214 322 1249 b 153 1149 192 1249 153 1207 b 254 1050 153 1085 190 1050 z m 601 1050 b 706 1149 665 1050 706 1085 b 603 1249 706 1214 669 1249 b 500 1149 539 1249 500 1207 b 601 1050 500 1085 538 1050 z m 783 456 b 429 931 783 783 649 931 b 69 453 207 931 69 779 b 424 -21 69 125 204 -21 b 783 456 646 -21 783 129 z m 274 456 b 426 764 274 697 331 764 b 579 453 521 764 579 696 b 426 146 579 211 522 146 b 274 456 332 146 274 214 z "},"Ȯ":{"ha":853,"x_min":0,"x_max":0,"o":"m 429 1050 b 540 1156 497 1050 540 1088 b 431 1263 540 1225 501 1263 b 321 1156 363 1263 321 1218 b 429 1050 321 1088 361 1050 z m 783 456 b 429 931 783 783 649 931 b 69 453 207 931 69 779 b 424 -21 69 125 204 -21 b 783 456 646 -21 783 129 z m 274 456 b 426 764 274 697 331 764 b 579 453 521 764 579 696 b 426 146 579 211 522 146 b 274 456 332 146 274 214 z "},"Ỏ":{"ha":853,"x_min":0,"x_max":0,"o":"m 304 1022 b 610 1194 529 1060 610 1124 b 313 1333 610 1260 551 1307 l 240 1238 l 240 1235 b 438 1172 417 1211 438 1192 b 263 1104 438 1151 414 1139 l 263 1101 z m 783 456 b 429 931 783 783 649 931 b 69 453 207 931 69 779 b 424 -21 69 125 204 -21 b 783 456 646 -21 783 129 z m 274 456 b 426 764 274 697 331 764 b 579 453 521 764 579 696 b 426 146 579 211 522 146 b 274 456 332 146 274 214 z "},"Ọ":{"ha":853,"x_min":0,"x_max":0,"o":"m 783 456 b 429 931 783 783 649 931 b 69 453 207 931 69 779 b 424 -21 69 125 204 -21 b 783 456 646 -21 783 129 z m 274 456 b 426 764 274 697 331 764 b 579 453 521 764 579 696 b 426 146 579 211 522 146 b 274 456 332 146 274 214 z m 431 -353 b 542 -247 499 -353 542 -315 b 432 -140 542 -178 503 -140 b 322 -247 364 -140 322 -185 b 431 -353 322 -315 363 -353 z "},"Ǫ":{"ha":853,"x_min":0,"x_max":0,"o":"m 276 -226 b 406 -326 276 -289 317 -322 l 540 -332 l 554 -203 l 478 -197 b 421 -154 432 -194 421 -182 b 494 -15 421 -140 424 -118 b 783 456 675 15 783 165 b 429 931 783 783 649 931 b 69 453 207 931 69 779 b 397 -19 69 139 193 -8 b 276 -226 304 -128 276 -185 z m 274 456 b 426 764 274 697 331 764 b 579 453 521 764 579 696 b 426 146 579 211 522 146 b 274 456 332 146 274 214 z "},"Ø":{"ha":853,"x_min":0,"x_max":0,"o":"m 783 456 b 685 803 783 608 746 724 l 807 1008 l 654 1008 l 593 886 b 429 931 543 915 488 931 b 69 453 207 931 69 779 b 165 107 69 301 106 186 l 46 -99 l 196 -99 l 258 22 b 424 -21 307 -7 364 -21 b 783 456 646 -21 783 129 z m 274 456 b 426 764 274 697 331 764 b 579 453 529 764 579 704 b 426 146 579 211 522 146 b 274 456 322 146 274 201 z "},"Œ":{"ha":853,"x_min":0,"x_max":0,"o":"m 425 0 l 797 0 l 797 156 l 589 156 l 589 383 l 778 383 l 778 533 l 589 533 l 589 754 l 797 754 l 797 910 l 453 910 b 38 447 156 910 38 717 b 425 0 38 169 163 0 z m 358 156 b 228 450 278 161 228 247 b 382 754 228 656 276 744 l 401 756 l 401 153 z "},"Ơ":{"ha":853,"x_min":0,"x_max":0,"o":"m 429 910 b 69 442 207 910 69 761 b 424 -21 69 122 204 -21 b 783 444 646 -21 783 126 b 628 804 783 628 731 726 l 633 814 b 729 797 676 801 706 797 b 881 1067 822 797 876 875 l 703 1067 b 569 910 697 951 668 910 z m 274 444 b 426 743 274 678 331 743 b 579 442 521 743 579 676 b 426 146 579 208 522 146 b 274 444 332 146 274 211 z "},"Ớ":{"ha":853,"x_min":0,"x_max":0,"o":"m 293 1132 l 346 1022 l 689 1169 l 625 1300 z m 429 910 b 69 442 207 910 69 761 b 424 -21 69 122 204 -21 b 783 444 646 -21 783 126 b 628 804 783 628 731 726 l 633 814 b 729 797 676 801 706 797 b 881 1067 822 797 876 875 l 703 1067 b 569 910 697 951 668 910 z m 274 444 b 426 743 274 678 331 743 b 579 442 521 743 579 676 b 426 146 579 208 522 146 b 274 444 332 146 274 211 z "},"Ờ":{"ha":853,"x_min":0,"x_max":0,"o":"m 565 1132 l 233 1300 l 169 1169 l 513 1022 z m 429 910 b 69 442 207 910 69 761 b 424 -21 69 122 204 -21 b 783 444 646 -21 783 126 b 628 804 783 628 731 726 l 633 814 b 729 797 676 801 706 797 b 881 1067 822 797 876 875 l 703 1067 b 569 910 697 951 668 910 z m 274 444 b 426 743 274 678 331 743 b 579 442 521 743 579 676 b 426 146 579 208 522 146 b 274 444 332 146 274 211 z "},"Ỡ":{"ha":853,"x_min":0,"x_max":0,"o":"m 721 1250 l 607 1290 b 536 1167 571 1178 551 1167 b 438 1225 522 1167 506 1171 b 315 1282 382 1268 351 1282 b 136 1054 263 1282 208 1267 l 250 1014 b 321 1138 286 1126 306 1138 b 419 1079 335 1138 351 1133 b 542 1022 475 1036 506 1022 b 721 1250 594 1022 649 1038 z m 429 910 b 69 442 207 910 69 761 b 424 -21 69 122 204 -21 b 783 444 646 -21 783 126 b 628 804 783 628 731 726 l 633 814 b 729 797 676 801 706 797 b 881 1067 822 797 876 875 l 703 1067 b 569 910 697 951 668 910 z m 274 444 b 426 743 274 678 331 743 b 579 442 521 743 579 676 b 426 146 579 208 522 146 b 274 444 332 146 274 211 z "},"Ở":{"ha":853,"x_min":0,"x_max":0,"o":"m 304 1022 b 610 1194 529 1060 610 1124 b 313 1333 610 1260 551 1307 l 240 1238 l 240 1235 b 438 1172 417 1211 438 1192 b 263 1104 438 1151 414 1139 l 263 1101 z m 429 910 b 69 442 207 910 69 761 b 424 -21 69 122 204 -21 b 783 444 646 -21 783 126 b 628 804 783 628 731 726 l 633 814 b 729 797 676 801 706 797 b 881 1067 822 797 876 875 l 703 1067 b 569 910 697 951 668 910 z m 274 444 b 426 743 274 678 331 743 b 579 442 521 743 579 676 b 426 146 579 208 522 146 b 274 444 332 146 274 211 z "},"Ợ":{"ha":853,"x_min":0,"x_max":0,"o":"m 429 910 b 69 442 207 910 69 761 b 424 -21 69 122 204 -21 b 783 444 646 -21 783 126 b 628 804 783 628 731 726 l 633 814 b 729 797 676 801 706 797 b 881 1067 822 797 876 875 l 703 1067 b 569 910 697 951 668 910 z m 274 444 b 426 743 274 678 331 743 b 579 442 521 743 579 676 b 426 146 579 208 522 146 b 274 444 332 146 274 211 z m 431 -353 b 542 -247 499 -353 542 -315 b 432 -140 542 -178 503 -140 b 322 -247 364 -140 322 -185 b 431 -353 322 -315 363 -353 z "},"Ŕ":{"ha":853,"x_min":0,"x_max":0,"o":"m 286 1125 l 339 1015 l 682 1163 l 618 1293 z m 835 6 l 646 246 b 500 369 597 308 556 340 l 500 379 b 769 644 696 414 769 508 b 456 910 769 811 672 910 l 108 910 l 108 0 l 308 0 l 308 329 b 444 215 371 317 399 288 l 585 0 l 835 0 z m 424 751 b 568 626 525 751 568 711 b 342 475 568 554 535 501 l 308 471 l 308 751 z "},"Ř":{"ha":853,"x_min":0,"x_max":0,"o":"m 700 1181 l 643 1278 l 424 1161 l 201 1278 l 146 1181 l 394 1015 l 453 1015 z m 835 6 l 646 246 b 500 369 597 308 556 340 l 500 379 b 769 644 696 414 769 508 b 456 910 769 811 672 910 l 108 910 l 108 0 l 308 0 l 308 329 b 444 215 371 317 399 288 l 585 0 l 835 0 z m 424 751 b 568 626 525 751 568 711 b 342 475 568 554 535 501 l 308 471 l 308 751 z "},"Ṙ":{"ha":853,"x_min":0,"x_max":0,"o":"m 422 1043 b 533 1149 490 1043 533 1081 b 424 1256 533 1218 494 1256 b 314 1149 356 1256 314 1211 b 422 1043 314 1081 354 1043 z m 835 6 l 646 246 b 500 369 597 308 556 340 l 500 379 b 769 644 696 414 769 508 b 456 910 769 811 672 910 l 108 910 l 108 0 l 308 0 l 308 329 b 444 215 371 317 399 288 l 585 0 l 835 0 z m 424 751 b 568 626 525 751 568 711 b 342 475 568 554 535 501 l 308 471 l 308 751 z "},"Ṝ":{"ha":853,"x_min":0,"x_max":0,"o":"m 188 1071 l 657 1071 l 657 1213 l 188 1213 z m 835 6 l 646 246 b 500 369 597 308 556 340 l 500 379 b 769 644 696 414 769 508 b 456 910 769 811 672 910 l 108 910 l 108 0 l 308 0 l 308 329 b 444 215 371 317 399 288 l 585 0 l 835 0 z m 424 751 b 568 626 525 751 568 711 b 342 475 568 554 535 501 l 308 471 l 308 751 z m 432 -346 b 543 -240 500 -346 543 -308 b 433 -133 543 -171 504 -133 b 324 -240 365 -133 324 -178 b 432 -346 324 -308 364 -346 z "},"Ŗ":{"ha":853,"x_min":0,"x_max":0,"o":"m 835 6 l 646 246 b 500 369 597 308 556 340 l 500 379 b 769 644 696 414 769 508 b 456 910 769 811 672 910 l 108 910 l 108 0 l 308 0 l 308 329 b 444 215 371 317 399 288 l 585 0 l 835 0 z m 424 751 b 568 626 525 751 568 711 b 342 475 568 554 535 501 l 308 471 l 308 751 z m 299 -431 b 604 -251 524 -393 604 -325 b 307 -106 604 -183 546 -132 l 235 -201 l 235 -204 b 432 -274 411 -228 432 -251 b 257 -349 432 -296 408 -314 l 257 -351 z "},"Ṛ":{"ha":853,"x_min":0,"x_max":0,"o":"m 835 6 l 646 246 b 500 369 597 308 556 340 l 500 379 b 769 644 696 414 769 508 b 456 910 769 811 672 910 l 108 910 l 108 0 l 308 0 l 308 329 b 444 215 371 317 399 288 l 585 0 l 835 0 z m 424 751 b 568 626 525 751 568 711 b 342 475 568 554 535 501 l 308 471 l 308 751 z m 432 -346 b 543 -240 500 -346 543 -308 b 433 -133 543 -171 504 -133 b 324 -240 365 -133 324 -178 b 432 -346 324 -308 364 -346 z "},"Ṟ":{"ha":853,"x_min":0,"x_max":0,"o":"m 835 6 l 646 246 b 500 369 597 308 556 340 l 500 379 b 769 644 696 414 769 508 b 456 910 769 811 672 910 l 108 910 l 108 0 l 308 0 l 308 329 b 444 215 371 317 399 288 l 585 0 l 835 0 z m 424 751 b 568 626 525 751 568 711 b 342 475 568 554 535 501 l 308 471 l 308 751 z m 194 -297 l 669 -297 l 669 -161 l 194 -161 z "},"Ś":{"ha":853,"x_min":0,"x_max":0,"o":"m 310 1132 l 363 1022 l 706 1169 l 642 1300 z m 419 147 b 117 210 343 147 247 169 l 81 42 b 415 -19 206 1 311 -19 b 765 260 650 -19 765 101 b 540 526 765 408 703 478 l 449 554 b 310 676 329 590 310 622 b 443 761 310 726 344 761 b 707 721 508 761 594 746 l 729 890 b 449 926 632 911 551 926 b 110 661 228 926 110 804 b 333 392 110 521 175 442 l 419 364 b 564 244 546 324 564 300 b 419 147 564 183 528 147 z "},"Ŝ":{"ha":853,"x_min":0,"x_max":0,"o":"m 169 1113 l 226 1015 l 446 1132 l 668 1015 l 724 1113 l 475 1278 l 417 1278 z m 419 147 b 117 210 343 147 247 169 l 81 42 b 415 -19 206 1 311 -19 b 765 260 650 -19 765 101 b 540 526 765 408 703 478 l 449 554 b 310 676 329 590 310 622 b 443 761 310 726 344 761 b 707 721 508 761 594 746 l 729 890 b 449 926 632 911 551 926 b 110 661 228 926 110 804 b 333 392 110 521 175 442 l 419 364 b 564 244 546 324 564 300 b 419 147 564 183 528 147 z "},"Š":{"ha":853,"x_min":0,"x_max":0,"o":"m 724 1188 l 667 1285 l 447 1168 l 225 1285 l 169 1188 l 418 1022 l 476 1022 z m 419 147 b 117 210 343 147 247 169 l 81 42 b 415 -19 206 1 311 -19 b 765 260 650 -19 765 101 b 540 526 765 408 703 478 l 449 554 b 310 676 329 590 310 622 b 443 761 310 726 344 761 b 707 721 508 761 594 746 l 729 890 b 449 926 632 911 551 926 b 110 661 228 926 110 804 b 333 392 110 521 175 442 l 419 364 b 564 244 546 324 564 300 b 419 147 564 183 528 147 z "},"Ș":{"ha":853,"x_min":0,"x_max":0,"o":"m 419 147 b 117 210 343 147 247 169 l 81 42 b 415 -19 206 1 311 -19 b 765 260 650 -19 765 101 b 540 526 765 408 703 478 l 449 554 b 310 676 329 590 310 622 b 443 761 310 726 344 761 b 707 721 508 761 594 746 l 729 890 b 449 926 632 911 551 926 b 110 661 228 926 110 804 b 333 392 110 521 175 442 l 419 364 b 564 244 546 324 564 300 b 419 147 564 183 528 147 z m 275 -437 b 581 -258 500 -400 581 -332 b 283 -112 581 -190 522 -139 l 211 -208 l 211 -211 b 408 -281 388 -235 408 -258 b 233 -356 408 -303 385 -321 l 233 -358 z "},"Ṣ":{"ha":853,"x_min":0,"x_max":0,"o":"m 419 147 b 117 210 343 147 247 169 l 81 42 b 415 -19 206 1 311 -19 b 765 260 650 -19 765 101 b 540 526 765 408 703 478 l 449 554 b 310 676 329 590 310 622 b 443 761 310 726 344 761 b 707 721 508 761 594 746 l 729 890 b 449 926 632 911 551 926 b 110 661 228 926 110 804 b 333 392 110 521 175 442 l 419 364 b 564 244 546 324 564 300 b 419 147 564 183 528 147 z m 408 -353 b 519 -247 476 -353 519 -315 b 410 -140 519 -178 481 -140 b 300 -247 342 -140 300 -185 b 408 -353 300 -315 340 -353 z "},"Ş":{"ha":853,"x_min":0,"x_max":0,"o":"m 419 147 b 117 210 343 147 247 169 l 81 42 b 365 -18 186 8 278 -12 l 322 -149 l 331 -162 b 507 -211 471 -169 507 -183 b 254 -279 507 -247 465 -261 l 281 -375 b 633 -208 589 -349 633 -301 b 432 -86 633 -147 593 -104 l 453 -18 b 765 260 663 -6 765 110 b 540 526 765 408 703 478 l 449 554 b 310 676 329 590 310 622 b 443 761 310 726 344 761 b 707 721 508 761 594 746 l 729 890 b 449 926 632 911 551 926 b 110 661 228 926 110 804 b 333 392 110 521 175 442 l 419 364 b 564 244 546 324 564 300 b 419 147 564 183 528 147 z "},"ẞ":{"ha":853,"x_min":0,"x_max":0,"o":"m 453 411 b 635 210 621 281 635 253 b 554 150 635 176 615 150 b 449 160 515 150 486 153 l 438 4 b 582 -8 482 -4 526 -8 b 821 206 722 -8 821 75 b 640 474 821 299 794 358 l 776 772 l 776 810 b 426 931 631 906 526 931 b 93 586 228 931 93 815 l 93 0 l 293 0 l 293 601 b 442 764 293 715 346 764 b 574 732 486 764 524 756 l 453 467 z "},"Ť":{"ha":853,"x_min":0,"x_max":0,"o":"m 704 1181 l 647 1278 l 428 1161 l 206 1278 l 150 1181 l 399 1015 l 457 1015 z m 54 743 l 326 743 l 326 0 l 526 0 l 526 743 l 799 743 l 799 910 l 54 910 z "},"Ṱ":{"ha":853,"x_min":0,"x_max":0,"o":"m 54 743 l 326 743 l 326 0 l 526 0 l 526 743 l 799 743 l 799 910 l 54 910 z m 165 -312 l 231 -390 l 426 -247 l 622 -390 l 688 -312 l 469 -106 l 383 -106 z "},"Ț":{"ha":853,"x_min":0,"x_max":0,"o":"m 54 743 l 326 743 l 326 0 l 526 0 l 526 743 l 799 743 l 799 910 l 54 910 z m 293 -431 b 599 -251 518 -393 599 -325 b 301 -106 599 -183 540 -132 l 229 -201 l 229 -204 b 426 -274 406 -228 426 -251 b 251 -349 426 -296 403 -314 l 251 -351 z "},"Ṭ":{"ha":853,"x_min":0,"x_max":0,"o":"m 54 743 l 326 743 l 326 0 l 526 0 l 526 743 l 799 743 l 799 910 l 54 910 z m 426 -346 b 538 -240 494 -346 538 -308 b 428 -133 538 -171 499 -133 b 318 -240 360 -133 318 -178 b 426 -346 318 -308 358 -346 z "},"Ṯ":{"ha":853,"x_min":0,"x_max":0,"o":"m 54 743 l 326 743 l 326 0 l 526 0 l 526 743 l 799 743 l 799 910 l 54 910 z m 189 -297 l 664 -297 l 664 -161 l 189 -161 z "},"Ţ":{"ha":853,"x_min":0,"x_max":0,"o":"m 54 743 l 326 743 l 326 0 l 376 0 l 329 -140 l 338 -154 b 514 -203 478 -161 514 -175 b 261 -271 514 -239 472 -253 l 288 -367 b 640 -200 596 -340 640 -293 b 439 -78 640 -139 600 -96 l 463 0 l 526 0 l 526 743 l 799 743 l 799 910 l 54 910 z "},"Ŧ":{"ha":853,"x_min":0,"x_max":0,"o":"m 142 363 l 326 363 l 326 0 l 526 0 l 526 363 l 711 363 l 711 468 l 526 468 l 526 743 l 799 743 l 799 910 l 54 910 l 54 743 l 326 743 l 326 468 l 142 468 z "},"Ú":{"ha":853,"x_min":0,"x_max":0,"o":"m 290 1118 l 343 1008 l 686 1156 l 622 1286 z m 560 314 b 426 164 560 206 513 164 b 294 314 339 164 294 210 l 294 910 l 93 910 l 93 317 b 421 -21 93 86 197 -21 b 760 317 649 -21 760 82 l 760 910 l 560 910 z "},"Ű":{"ha":853,"x_min":0,"x_max":0,"o":"m 172 1107 l 263 1014 l 460 1181 l 358 1286 z m 499 1107 l 589 1014 l 786 1181 l 685 1286 z m 560 314 b 426 164 560 206 513 164 b 294 314 339 164 294 210 l 294 910 l 93 910 l 93 317 b 421 -21 93 86 197 -21 b 760 317 649 -21 760 82 l 760 910 l 560 910 z "},"Ù":{"ha":853,"x_min":0,"x_max":0,"o":"m 563 1118 l 231 1286 l 167 1156 l 510 1008 z m 560 314 b 426 164 560 206 513 164 b 294 314 339 164 294 210 l 294 910 l 93 910 l 93 317 b 421 -21 93 86 197 -21 b 760 317 649 -21 760 82 l 760 910 l 560 910 z "},"Û":{"ha":853,"x_min":0,"x_max":0,"o":"m 150 1113 l 207 1015 l 426 1132 l 649 1015 l 704 1113 l 456 1278 l 397 1278 z m 560 314 b 426 164 560 206 513 164 b 294 314 339 164 294 210 l 294 910 l 93 910 l 93 317 b 421 -21 93 86 197 -21 b 760 317 649 -21 760 82 l 760 910 l 560 910 z "},"Ǔ":{"ha":853,"x_min":0,"x_max":0,"o":"m 704 1174 l 647 1271 l 428 1154 l 206 1271 l 150 1174 l 399 1008 l 457 1008 z m 560 314 b 426 164 560 206 513 164 b 294 314 339 164 294 210 l 294 910 l 93 910 l 93 317 b 421 -21 93 86 197 -21 b 760 317 649 -21 760 82 l 760 910 l 560 910 z "},"Ŭ":{"ha":853,"x_min":0,"x_max":0,"o":"m 426 1140 b 268 1275 367 1140 306 1168 l 151 1233 b 426 1008 196 1067 313 1008 b 701 1233 540 1008 657 1067 l 585 1275 b 426 1140 549 1169 486 1140 z m 560 314 b 426 164 560 206 513 164 b 294 314 339 164 294 210 l 294 910 l 93 910 l 93 317 b 421 -21 93 86 197 -21 b 760 317 649 -21 760 82 l 760 910 l 560 910 z "},"Ũ":{"ha":853,"x_min":0,"x_max":0,"o":"m 718 1243 l 604 1283 b 533 1160 568 1171 549 1160 b 435 1218 519 1160 503 1164 b 313 1275 379 1261 349 1275 b 133 1047 260 1275 206 1260 l 247 1007 b 318 1131 283 1119 303 1131 b 417 1072 332 1131 349 1126 b 539 1015 472 1029 503 1015 b 718 1243 592 1015 646 1031 z m 560 314 b 426 164 560 206 513 164 b 294 314 339 164 294 210 l 294 910 l 93 910 l 93 317 b 421 -21 93 86 197 -21 b 760 317 649 -21 760 82 l 760 910 l 560 910 z "},"Ū":{"ha":853,"x_min":0,"x_max":0,"o":"m 192 1071 l 661 1071 l 661 1213 l 192 1213 z m 560 314 b 426 164 560 206 513 164 b 294 314 339 164 294 210 l 294 910 l 93 910 l 93 317 b 421 -21 93 86 197 -21 b 760 317 649 -21 760 82 l 760 910 l 560 910 z "},"Ü":{"ha":853,"x_min":0,"x_max":0,"o":"m 251 1043 b 356 1142 315 1043 356 1078 b 253 1242 356 1207 319 1242 b 150 1142 189 1242 150 1200 b 251 1043 150 1078 188 1043 z m 599 1043 b 703 1142 663 1043 703 1078 b 600 1242 703 1207 667 1242 b 497 1142 536 1242 497 1200 b 599 1043 497 1078 535 1043 z m 560 314 b 426 164 560 206 513 164 b 294 314 339 164 294 210 l 294 910 l 93 910 l 93 317 b 421 -21 93 86 197 -21 b 760 317 649 -21 760 82 l 760 910 l 560 910 z "},"Ǘ":{"ha":853,"x_min":0,"x_max":0,"o":"m 379 1269 l 738 1371 l 694 1506 l 343 1382 z m 251 1043 b 356 1135 315 1043 356 1075 b 253 1228 356 1196 319 1228 b 150 1135 189 1228 150 1189 b 251 1043 150 1075 188 1043 z m 599 1043 b 703 1135 663 1043 703 1075 b 600 1228 703 1196 667 1228 b 497 1135 536 1228 497 1189 b 599 1043 497 1075 535 1043 z m 560 314 b 426 164 560 206 513 164 b 294 314 339 164 294 210 l 294 910 l 93 910 l 93 317 b 421 -21 93 86 197 -21 b 760 317 649 -21 760 82 l 760 910 l 560 910 z "},"Ǜ":{"ha":853,"x_min":0,"x_max":0,"o":"m 513 1382 l 161 1506 l 118 1371 l 476 1269 z m 251 1043 b 356 1135 315 1043 356 1075 b 253 1228 356 1196 319 1228 b 150 1135 189 1228 150 1189 b 251 1043 150 1075 188 1043 z m 599 1043 b 703 1135 663 1043 703 1075 b 600 1228 703 1196 667 1228 b 497 1135 536 1228 497 1189 b 599 1043 497 1075 535 1043 z m 560 314 b 426 164 560 206 513 164 b 294 314 339 164 294 210 l 294 910 l 93 910 l 93 317 b 421 -21 93 86 197 -21 b 760 317 649 -21 760 82 l 760 910 l 560 910 z "},"Ǚ":{"ha":853,"x_min":0,"x_max":0,"o":"m 697 1413 l 647 1503 l 428 1399 l 206 1503 l 157 1413 l 399 1261 l 457 1261 z m 251 1043 b 356 1135 315 1043 356 1075 b 253 1228 356 1196 319 1228 b 150 1135 189 1228 150 1189 b 251 1043 150 1075 188 1043 z m 599 1043 b 703 1135 663 1043 703 1075 b 600 1228 703 1196 667 1228 b 497 1135 536 1228 497 1189 b 599 1043 497 1075 535 1043 z m 560 314 b 426 164 560 206 513 164 b 294 314 339 164 294 210 l 294 910 l 93 910 l 93 317 b 421 -21 93 86 197 -21 b 760 317 649 -21 760 82 l 760 910 l 560 910 z "},"Ǖ":{"ha":853,"x_min":0,"x_max":0,"o":"m 192 1324 l 661 1324 l 661 1465 l 192 1465 z m 251 1043 b 356 1135 315 1043 356 1075 b 253 1228 356 1196 319 1228 b 150 1135 189 1228 150 1189 b 251 1043 150 1075 188 1043 z m 599 1043 b 703 1135 663 1043 703 1075 b 600 1228 703 1196 667 1228 b 497 1135 536 1228 497 1189 b 599 1043 497 1075 535 1043 z m 560 314 b 426 164 560 206 513 164 b 294 314 339 164 294 210 l 294 910 l 93 910 l 93 317 b 421 -21 93 86 197 -21 b 760 317 649 -21 760 82 l 760 910 l 560 910 z "},"Ů":{"ha":853,"x_min":0,"x_max":0,"o":"m 425 1008 b 664 1197 572 1008 664 1083 b 428 1386 664 1311 574 1386 b 189 1196 281 1386 189 1311 b 425 1008 189 1083 279 1008 z m 426 1115 b 325 1194 361 1115 325 1142 b 426 1279 325 1251 357 1279 b 528 1199 492 1279 528 1253 b 426 1115 528 1143 496 1115 z m 560 314 b 426 164 560 206 513 164 b 294 314 339 164 294 210 l 294 910 l 93 910 l 93 317 b 421 -21 93 86 197 -21 b 760 317 649 -21 760 82 l 760 910 l 560 910 z "},"Ủ":{"ha":853,"x_min":0,"x_max":0,"o":"m 301 1008 b 607 1181 526 1046 607 1110 b 310 1319 607 1246 549 1293 l 238 1224 l 238 1221 b 435 1158 414 1197 435 1178 b 260 1090 435 1138 411 1125 l 260 1088 z m 560 314 b 426 164 560 206 513 164 b 294 314 339 164 294 210 l 294 910 l 93 910 l 93 317 b 421 -21 93 86 197 -21 b 760 317 649 -21 760 82 l 760 910 l 560 910 z "},"Ụ":{"ha":853,"x_min":0,"x_max":0,"o":"m 560 314 b 426 164 560 206 513 164 b 294 314 339 164 294 210 l 294 910 l 93 910 l 93 317 b 421 -21 93 86 197 -21 b 760 317 649 -21 760 82 l 760 910 l 560 910 z m 426 -353 b 538 -247 494 -353 538 -315 b 428 -140 538 -178 499 -140 b 318 -247 360 -140 318 -185 b 426 -353 318 -315 358 -353 z "},"Ų":{"ha":853,"x_min":0,"x_max":0,"o":"m 263 -226 b 392 -326 263 -289 303 -322 l 526 -332 l 540 -203 l 464 -197 b 407 -154 418 -194 407 -182 b 478 -18 407 -140 410 -118 b 760 317 667 -1 760 103 l 760 910 l 560 910 l 560 314 b 426 164 560 206 513 164 b 294 314 339 164 294 210 l 294 910 l 93 910 l 93 317 b 383 -19 93 100 186 -8 b 263 -226 290 -128 263 -185 z "},"Ư":{"ha":853,"x_min":0,"x_max":0,"o":"m 560 314 b 426 164 560 206 513 164 b 294 314 339 164 294 210 l 294 910 l 93 910 l 93 317 b 421 -21 93 86 197 -21 b 760 317 649 -21 760 82 l 760 797 b 943 1067 871 797 939 875 l 765 1067 b 632 910 760 951 731 910 l 560 910 z "},"Ứ":{"ha":853,"x_min":0,"x_max":0,"o":"m 290 1118 l 343 1008 l 686 1156 l 622 1286 z m 560 314 b 426 164 560 206 513 164 b 294 314 339 164 294 210 l 294 910 l 93 910 l 93 317 b 421 -21 93 86 197 -21 b 760 317 649 -21 760 82 l 760 797 b 943 1067 871 797 939 875 l 765 1067 b 632 910 760 951 731 910 l 560 910 z "},"Ừ":{"ha":853,"x_min":0,"x_max":0,"o":"m 563 1118 l 231 1286 l 167 1156 l 510 1008 z m 560 314 b 426 164 560 206 513 164 b 294 314 339 164 294 210 l 294 910 l 93 910 l 93 317 b 421 -21 93 86 197 -21 b 760 317 649 -21 760 82 l 760 797 b 943 1067 871 797 939 875 l 765 1067 b 632 910 760 951 731 910 l 560 910 z "},"Ữ":{"ha":853,"x_min":0,"x_max":0,"o":"m 718 1243 l 604 1283 b 533 1160 568 1171 549 1160 b 435 1218 519 1160 503 1164 b 313 1275 379 1261 349 1275 b 133 1047 260 1275 206 1260 l 247 1007 b 318 1131 283 1119 303 1131 b 417 1072 332 1131 349 1126 b 539 1015 472 1029 503 1015 b 718 1243 592 1015 646 1031 z m 560 314 b 426 164 560 206 513 164 b 294 314 339 164 294 210 l 294 910 l 93 910 l 93 317 b 421 -21 93 86 197 -21 b 760 317 649 -21 760 82 l 760 797 b 943 1067 871 797 939 875 l 765 1067 b 632 910 760 951 731 910 l 560 910 z "},"Ử":{"ha":853,"x_min":0,"x_max":0,"o":"m 301 1008 b 607 1181 526 1046 607 1110 b 310 1319 607 1246 549 1293 l 238 1224 l 238 1221 b 435 1158 414 1197 435 1178 b 260 1090 435 1138 411 1125 l 260 1088 z m 560 314 b 426 164 560 206 513 164 b 294 314 339 164 294 210 l 294 910 l 93 910 l 93 317 b 421 -21 93 86 197 -21 b 760 317 649 -21 760 82 l 760 797 b 943 1067 871 797 939 875 l 765 1067 b 632 910 760 951 731 910 l 560 910 z "},"Ự":{"ha":853,"x_min":0,"x_max":0,"o":"m 560 314 b 426 164 560 206 513 164 b 294 314 339 164 294 210 l 294 910 l 93 910 l 93 317 b 421 -21 93 86 197 -21 b 760 317 649 -21 760 82 l 760 797 b 943 1067 871 797 939 875 l 765 1067 b 632 910 760 951 731 910 l 560 910 z m 426 -353 b 538 -247 494 -353 538 -315 b 428 -140 538 -178 499 -140 b 318 -247 360 -140 318 -185 b 426 -353 318 -315 358 -353 z "},"Ṿ":{"ha":853,"x_min":0,"x_max":0,"o":"m 39 910 l 304 0 l 551 0 l 814 910 l 617 910 l 432 233 l 249 910 z m 431 -346 b 542 -240 499 -346 542 -308 b 432 -133 542 -171 503 -133 b 322 -240 364 -133 322 -178 b 431 -346 322 -308 363 -346 z "},"Ẃ":{"ha":853,"x_min":0,"x_max":0,"o":"m 290 1111 l 343 1001 l 686 1149 l 622 1279 z m 692 0 l 803 910 l 615 910 l 561 331 l 444 738 l 411 738 l 293 322 l 238 910 l 50 910 l 160 0 l 324 0 l 424 418 l 522 0 z "},"Ẁ":{"ha":853,"x_min":0,"x_max":0,"o":"m 563 1111 l 231 1279 l 167 1149 l 510 1001 z m 692 0 l 803 910 l 615 910 l 561 331 l 444 738 l 411 738 l 293 322 l 238 910 l 50 910 l 160 0 l 324 0 l 424 418 l 522 0 z "},"Ŵ":{"ha":853,"x_min":0,"x_max":0,"o":"m 150 1113 l 207 1015 l 426 1132 l 649 1015 l 704 1113 l 456 1278 l 397 1278 z m 692 0 l 803 910 l 615 910 l 561 331 l 444 738 l 411 738 l 293 322 l 238 910 l 50 910 l 160 0 l 324 0 l 424 418 l 522 0 z "},"Ẅ":{"ha":853,"x_min":0,"x_max":0,"o":"m 251 1043 b 356 1142 315 1043 356 1078 b 253 1242 356 1207 319 1242 b 150 1142 189 1242 150 1200 b 251 1043 150 1078 188 1043 z m 599 1043 b 703 1142 663 1043 703 1078 b 600 1242 703 1207 667 1242 b 497 1142 536 1242 497 1200 b 599 1043 497 1078 535 1043 z m 692 0 l 803 910 l 615 910 l 561 331 l 444 738 l 411 738 l 293 322 l 238 910 l 50 910 l 160 0 l 324 0 l 424 418 l 522 0 z "},"Ẍ":{"ha":853,"x_min":0,"x_max":0,"o":"m 253 1043 b 357 1142 317 1043 357 1078 b 254 1242 357 1207 321 1242 b 151 1142 190 1242 151 1200 b 253 1043 151 1078 189 1043 z m 600 1043 b 704 1142 664 1043 704 1078 b 601 1242 704 1207 668 1242 b 499 1142 538 1242 499 1200 b 600 1043 499 1078 536 1043 z m 31 0 l 246 0 l 422 315 l 596 0 l 822 0 l 538 469 l 800 910 l 583 910 l 428 621 l 274 910 l 49 910 l 314 464 z "},"Ý":{"ha":853,"x_min":0,"x_max":0,"o":"m 294 1118 l 347 1008 l 690 1156 l 626 1286 z m 832 910 l 614 910 l 429 575 l 246 910 l 21 910 l 326 383 l 326 0 l 526 0 l 526 385 z "},"Ỳ":{"ha":853,"x_min":0,"x_max":0,"o":"m 567 1118 l 235 1286 l 171 1156 l 514 1008 z m 832 910 l 614 910 l 429 575 l 246 910 l 21 910 l 326 383 l 326 0 l 526 0 l 526 385 z "},"Ŷ":{"ha":853,"x_min":0,"x_max":0,"o":"m 154 1113 l 211 1015 l 431 1132 l 653 1015 l 708 1113 l 460 1278 l 401 1278 z m 832 910 l 614 910 l 429 575 l 246 910 l 21 910 l 326 383 l 326 0 l 526 0 l 526 385 z "},"Ỹ":{"ha":853,"x_min":0,"x_max":0,"o":"m 722 1243 l 608 1283 b 538 1160 572 1171 553 1160 b 439 1218 524 1160 507 1164 b 317 1275 383 1261 353 1275 b 138 1047 264 1275 210 1260 l 251 1007 b 322 1131 288 1119 307 1131 b 421 1072 336 1131 353 1126 b 543 1015 476 1029 507 1015 b 722 1243 596 1015 650 1031 z m 832 910 l 614 910 l 429 575 l 246 910 l 21 910 l 326 383 l 326 0 l 526 0 l 526 385 z "},"Ȳ":{"ha":853,"x_min":0,"x_max":0,"o":"m 196 1071 l 665 1071 l 665 1213 l 196 1213 z m 832 910 l 614 910 l 429 575 l 246 910 l 21 910 l 326 383 l 326 0 l 526 0 l 526 385 z "},"Ÿ":{"ha":853,"x_min":0,"x_max":0,"o":"m 256 1043 b 360 1142 319 1043 360 1078 b 257 1242 360 1207 324 1242 b 154 1142 193 1242 154 1200 b 256 1043 154 1078 192 1043 z m 603 1043 b 707 1142 667 1043 707 1078 b 604 1242 707 1207 671 1242 b 501 1142 540 1242 501 1200 b 603 1043 501 1078 539 1043 z m 832 910 l 614 910 l 429 575 l 246 910 l 21 910 l 326 383 l 326 0 l 526 0 l 526 385 z "},"Ẏ":{"ha":853,"x_min":0,"x_max":0,"o":"m 431 1036 b 542 1142 499 1036 542 1074 b 432 1249 542 1211 503 1249 b 322 1142 364 1249 322 1204 b 431 1036 322 1074 363 1036 z m 832 910 l 614 910 l 429 575 l 246 910 l 21 910 l 326 383 l 326 0 l 526 0 l 526 385 z "},"Ỷ":{"ha":853,"x_min":0,"x_max":0,"o":"m 306 1008 b 611 1181 531 1046 611 1110 b 314 1319 611 1246 553 1293 l 242 1224 l 242 1221 b 439 1158 418 1197 439 1178 b 264 1090 439 1138 415 1125 l 264 1088 z m 832 910 l 614 910 l 429 575 l 246 910 l 21 910 l 326 383 l 326 0 l 526 0 l 526 385 z "},"Ỵ":{"ha":853,"x_min":0,"x_max":0,"o":"m 832 910 l 614 910 l 429 575 l 246 910 l 21 910 l 326 383 l 326 0 l 526 0 l 526 385 z m 431 -346 b 542 -240 499 -346 542 -308 b 432 -133 542 -171 503 -133 b 322 -240 364 -133 322 -178 b 431 -346 322 -308 363 -346 z "},"Ź":{"ha":853,"x_min":0,"x_max":0,"o":"m 304 1125 l 357 1015 l 700 1163 l 636 1293 z m 74 0 l 781 0 l 781 175 l 332 175 l 332 181 l 767 767 l 767 910 l 88 910 l 88 733 l 499 733 l 499 726 l 74 143 z "},"Ẑ":{"ha":853,"x_min":0,"x_max":0,"o":"m 164 1113 l 221 1015 l 440 1132 l 663 1015 l 718 1113 l 469 1278 l 411 1278 z m 74 0 l 781 0 l 781 175 l 332 175 l 332 181 l 767 767 l 767 910 l 88 910 l 88 733 l 499 733 l 499 726 l 74 143 z "},"Ž":{"ha":853,"x_min":0,"x_max":0,"o":"m 718 1181 l 661 1278 l 442 1161 l 219 1278 l 164 1181 l 413 1015 l 471 1015 z m 74 0 l 781 0 l 781 175 l 332 175 l 332 181 l 767 767 l 767 910 l 88 910 l 88 733 l 499 733 l 499 726 l 74 143 z "},"Ż":{"ha":853,"x_min":0,"x_max":0,"o":"m 440 1043 b 551 1149 508 1043 551 1081 b 442 1256 551 1218 513 1256 b 332 1149 374 1256 332 1211 b 440 1043 332 1081 372 1043 z m 74 0 l 781 0 l 781 175 l 332 175 l 332 181 l 767 767 l 767 910 l 88 910 l 88 733 l 499 733 l 499 726 l 74 143 z "},"Ẓ":{"ha":853,"x_min":0,"x_max":0,"o":"m 74 0 l 781 0 l 781 175 l 332 175 l 332 181 l 767 767 l 767 910 l 88 910 l 88 733 l 499 733 l 499 726 l 74 143 z m 440 -346 b 551 -240 508 -346 551 -308 b 442 -133 551 -171 513 -133 b 332 -240 374 -133 332 -178 b 440 -346 332 -308 372 -346 z "},"Ẕ":{"ha":853,"x_min":0,"x_max":0,"o":"m 74 0 l 781 0 l 781 175 l 332 175 l 332 181 l 767 767 l 767 910 l 88 910 l 88 733 l 499 733 l 499 726 l 74 143 z m 203 -297 l 678 -297 l 678 -161 l 203 -161 z "},"Ð":{"ha":853,"x_min":0,"x_max":0,"o":"m 29 406 l 136 406 l 136 0 l 249 0 b 789 463 635 0 789 193 b 276 910 789 740 624 910 l 136 910 l 136 511 l 29 511 z m 451 406 l 451 511 l 329 511 l 329 749 b 592 460 488 739 592 653 b 329 164 592 267 503 182 l 329 406 z "},"Þ":{"ha":853,"x_min":0,"x_max":0,"o":"m 108 910 l 108 0 l 310 0 l 310 175 l 450 175 b 800 457 661 175 800 281 b 457 733 800 624 678 733 l 310 733 l 310 910 z m 471 567 b 596 454 556 567 596 526 b 464 338 596 381 553 338 l 310 338 l 310 567 z "},"Ə":{"ha":853,"x_min":0,"x_max":0,"o":"m 783 458 b 351 924 783 743 678 924 b 186 910 299 924 251 921 l 203 744 b 339 757 257 756 300 757 b 578 540 489 757 561 706 l 78 540 b 69 432 72 494 69 458 b 415 -21 69 136 174 -21 b 783 458 665 -21 783 147 z m 414 146 b 271 386 339 146 278 196 l 581 386 b 414 146 571 193 515 146 z "},"á":{"ha":853,"x_min":0,"x_max":0,"o":"m 268 883 l 326 775 l 660 935 l 592 1064 z m 721 207 l 721 454 b 406 681 721 610 639 681 b 131 660 354 681 263 676 l 149 501 b 396 524 267 517 351 524 b 531 450 510 524 531 501 l 531 418 l 301 396 b 61 182 115 376 61 311 b 265 -15 61 53 144 -15 b 525 71 368 -15 457 17 l 542 71 b 696 -1 564 26 610 4 l 808 -8 l 825 140 l 763 146 b 721 207 728 149 721 161 z m 326 131 b 256 196 279 131 256 157 b 354 278 256 242 275 267 l 531 301 l 531 213 b 326 131 436 146 374 131 z "},"à":{"ha":853,"x_min":0,"x_max":0,"o":"m 554 883 l 231 1064 l 163 935 l 496 775 z m 721 207 l 721 454 b 406 681 721 610 639 681 b 131 660 354 681 263 676 l 149 501 b 396 524 267 517 351 524 b 531 450 510 524 531 501 l 531 418 l 301 396 b 61 182 115 376 61 311 b 265 -15 61 53 144 -15 b 525 71 368 -15 457 17 l 542 71 b 696 -1 564 26 610 4 l 808 -8 l 825 140 l 763 146 b 721 207 728 149 721 161 z m 326 131 b 256 196 279 131 256 157 b 354 278 256 242 275 267 l 531 301 l 531 213 b 326 131 436 146 374 131 z "},"â":{"ha":853,"x_min":0,"x_max":0,"o":"m 150 846 l 215 768 l 411 911 l 607 768 l 672 846 l 454 1053 l 368 1053 z m 721 207 l 721 454 b 406 681 721 610 639 681 b 131 660 354 681 263 676 l 149 501 b 396 524 267 517 351 524 b 531 450 510 524 531 501 l 531 418 l 301 396 b 61 182 115 376 61 311 b 265 -15 61 53 144 -15 b 525 71 368 -15 457 17 l 542 71 b 696 -1 564 26 610 4 l 808 -8 l 825 140 l 763 146 b 721 207 728 149 721 161 z m 326 131 b 256 196 279 131 256 157 b 354 278 256 242 275 267 l 531 301 l 531 213 b 326 131 436 146 374 131 z "},"ậ":{"ha":853,"x_min":0,"x_max":0,"o":"m 150 846 l 215 768 l 411 911 l 607 768 l 672 846 l 454 1053 l 368 1053 z m 721 207 l 721 454 b 406 681 721 610 639 681 b 131 660 354 681 263 676 l 149 501 b 396 524 267 517 351 524 b 531 450 510 524 531 501 l 531 418 l 301 396 b 61 182 115 376 61 311 b 265 -15 61 53 144 -15 b 525 71 368 -15 457 17 l 542 71 b 696 -1 564 26 610 4 l 808 -8 l 825 140 l 763 146 b 721 207 728 149 721 161 z m 326 131 b 256 196 279 131 256 157 b 354 278 256 242 275 267 l 531 301 l 531 213 b 326 131 436 146 374 131 z m 406 -346 b 517 -240 474 -346 517 -308 b 407 -133 517 -171 478 -133 b 297 -240 339 -133 297 -178 b 406 -346 297 -308 338 -346 z "},"ấ":{"ha":853,"x_min":0,"x_max":0,"o":"m 529 1118 l 575 1018 l 828 1108 l 775 1229 z m 150 846 l 215 768 l 411 886 l 607 768 l 672 846 l 454 1025 l 368 1025 z m 721 207 l 721 454 b 406 681 721 610 639 681 b 131 660 354 681 263 676 l 149 501 b 396 524 267 517 351 524 b 531 450 510 524 531 501 l 531 418 l 301 396 b 61 182 115 376 61 311 b 265 -15 61 53 144 -15 b 525 71 368 -15 457 17 l 542 71 b 696 -1 564 26 610 4 l 808 -8 l 825 140 l 763 146 b 721 207 728 149 721 161 z m 326 131 b 256 196 279 131 256 157 b 354 278 256 242 275 267 l 531 301 l 531 213 b 326 131 436 146 374 131 z "},"ầ":{"ha":853,"x_min":0,"x_max":0,"o":"m 744 1089 l 519 1238 l 449 1126 l 683 997 z m 150 846 l 215 768 l 411 886 l 607 768 l 672 846 l 454 1025 l 368 1025 z m 721 207 l 721 454 b 406 681 721 610 639 681 b 131 660 354 681 263 676 l 149 501 b 396 524 267 517 351 524 b 531 450 510 524 531 501 l 531 418 l 301 396 b 61 182 115 376 61 311 b 265 -15 61 53 144 -15 b 525 71 368 -15 457 17 l 542 71 b 696 -1 564 26 610 4 l 808 -8 l 825 140 l 763 146 b 721 207 728 149 721 161 z m 326 131 b 256 196 279 131 256 157 b 354 278 256 242 275 267 l 531 301 l 531 213 b 326 131 436 146 374 131 z "},"ẩ":{"ha":853,"x_min":0,"x_max":0,"o":"m 560 1015 b 838 1181 765 1050 838 1113 b 540 1306 838 1239 785 1269 l 468 1217 l 468 1214 b 665 1158 644 1190 665 1176 b 518 1097 665 1140 646 1126 l 518 1094 z m 150 846 l 215 768 l 411 886 l 607 768 l 672 846 l 454 1025 l 368 1025 z m 721 207 l 721 454 b 406 681 721 610 639 681 b 131 660 354 681 263 676 l 149 501 b 396 524 267 517 351 524 b 531 450 510 524 531 501 l 531 418 l 301 396 b 61 182 115 376 61 311 b 265 -15 61 53 144 -15 b 525 71 368 -15 457 17 l 542 71 b 696 -1 564 26 610 4 l 808 -8 l 825 140 l 763 146 b 721 207 728 149 721 161 z m 326 131 b 256 196 279 131 256 157 b 354 278 256 242 275 267 l 531 301 l 531 213 b 326 131 436 146 374 131 z "},"ẫ":{"ha":853,"x_min":0,"x_max":0,"o":"m 440 1246 b 318 1301 376 1289 353 1301 b 158 1094 257 1301 213 1249 l 263 1063 b 335 1172 301 1165 319 1172 b 425 1122 349 1172 358 1165 b 547 1067 489 1079 513 1067 b 707 1274 608 1067 653 1119 l 603 1306 b 531 1196 564 1203 546 1196 b 440 1246 517 1196 507 1203 z m 150 846 l 215 768 l 411 886 l 607 768 l 672 846 l 454 1025 l 368 1025 z m 721 207 l 721 454 b 406 681 721 610 639 681 b 131 660 354 681 263 676 l 149 501 b 396 524 267 517 351 524 b 531 450 510 524 531 501 l 531 418 l 301 396 b 61 182 115 376 61 311 b 265 -15 61 53 144 -15 b 525 71 368 -15 457 17 l 542 71 b 696 -1 564 26 610 4 l 808 -8 l 825 140 l 763 146 b 721 207 728 149 721 161 z m 326 131 b 256 196 279 131 256 157 b 354 278 256 242 275 267 l 531 301 l 531 213 b 326 131 436 146 374 131 z "},"ǎ":{"ha":853,"x_min":0,"x_max":0,"o":"m 672 982 l 607 1060 l 411 917 l 215 1060 l 150 982 l 368 775 l 454 775 z m 721 207 l 721 454 b 406 681 721 610 639 681 b 131 660 354 681 263 676 l 149 501 b 396 524 267 517 351 524 b 531 450 510 524 531 501 l 531 418 l 301 396 b 61 182 115 376 61 311 b 265 -15 61 53 144 -15 b 525 71 368 -15 457 17 l 542 71 b 696 -1 564 26 610 4 l 808 -8 l 825 140 l 763 146 b 721 207 728 149 721 161 z m 326 131 b 256 196 279 131 256 157 b 354 278 256 242 275 267 l 531 301 l 531 213 b 326 131 436 146 374 131 z "},"ă":{"ha":853,"x_min":0,"x_max":0,"o":"m 411 907 b 253 1056 351 907 293 939 l 136 1014 b 411 775 183 838 297 775 b 686 1014 525 775 639 838 l 569 1056 b 411 907 531 940 471 907 z m 721 207 l 721 454 b 406 681 721 610 639 681 b 131 660 354 681 263 676 l 149 501 b 396 524 267 517 351 524 b 531 450 510 524 531 501 l 531 418 l 301 396 b 61 182 115 376 61 311 b 265 -15 61 53 144 -15 b 525 71 368 -15 457 17 l 542 71 b 696 -1 564 26 610 4 l 808 -8 l 825 140 l 763 146 b 721 207 728 149 721 161 z m 326 131 b 256 196 279 131 256 157 b 354 278 256 242 275 267 l 531 301 l 531 213 b 326 131 436 146 374 131 z "},"ặ":{"ha":853,"x_min":0,"x_max":0,"o":"m 411 907 b 253 1056 351 907 293 939 l 136 1014 b 411 775 183 838 297 775 b 686 1014 525 775 639 838 l 569 1056 b 411 907 531 940 471 907 z m 721 207 l 721 454 b 406 681 721 610 639 681 b 131 660 354 681 263 676 l 149 501 b 396 524 267 517 351 524 b 531 450 510 524 531 501 l 531 418 l 301 396 b 61 182 115 376 61 311 b 265 -15 61 53 144 -15 b 525 71 368 -15 457 17 l 542 71 b 696 -1 564 26 610 4 l 808 -8 l 825 140 l 763 146 b 721 207 728 149 721 161 z m 326 131 b 256 196 279 131 256 157 b 354 278 256 242 275 267 l 531 301 l 531 213 b 326 131 436 146 374 131 z m 406 -346 b 517 -240 474 -346 517 -308 b 407 -133 517 -171 478 -133 b 297 -240 339 -133 297 -178 b 406 -346 297 -308 338 -346 z "},"ắ":{"ha":853,"x_min":0,"x_max":0,"o":"m 315 1150 l 363 1043 l 710 1169 l 656 1297 z m 411 907 b 253 1042 351 907 290 935 l 136 1000 b 411 775 181 833 297 775 b 686 1000 525 775 642 833 l 569 1042 b 411 907 533 936 471 907 z m 721 207 l 721 454 b 406 681 721 610 639 681 b 131 660 354 681 263 676 l 149 501 b 396 524 267 517 351 524 b 531 450 510 524 531 501 l 531 418 l 301 396 b 61 182 115 376 61 311 b 265 -15 61 53 144 -15 b 525 71 368 -15 457 17 l 542 71 b 696 -1 564 26 610 4 l 808 -8 l 825 140 l 763 146 b 721 207 728 149 721 161 z m 326 131 b 256 196 279 131 256 157 b 354 278 256 242 275 267 l 531 301 l 531 213 b 326 131 436 146 374 131 z "},"ằ":{"ha":853,"x_min":0,"x_max":0,"o":"m 507 1150 l 167 1297 l 113 1169 l 460 1043 z m 411 907 b 253 1042 351 907 290 935 l 136 1000 b 411 775 181 833 297 775 b 686 1000 525 775 642 833 l 569 1042 b 411 907 533 936 471 907 z m 721 207 l 721 454 b 406 681 721 610 639 681 b 131 660 354 681 263 676 l 149 501 b 396 524 267 517 351 524 b 531 450 510 524 531 501 l 531 418 l 301 396 b 61 182 115 376 61 311 b 265 -15 61 53 144 -15 b 525 71 368 -15 457 17 l 542 71 b 696 -1 564 26 610 4 l 808 -8 l 825 140 l 763 146 b 721 207 728 149 721 161 z m 326 131 b 256 196 279 131 256 157 b 354 278 256 242 275 267 l 531 301 l 531 213 b 326 131 436 146 374 131 z "},"ẳ":{"ha":853,"x_min":0,"x_max":0,"o":"m 342 1038 b 619 1203 547 1072 619 1135 b 322 1328 619 1261 567 1292 l 250 1239 l 250 1236 b 447 1181 426 1213 447 1199 b 300 1119 447 1163 428 1149 l 300 1117 z m 411 907 b 253 1042 351 907 290 935 l 136 1000 b 411 775 181 833 297 775 b 686 1000 525 775 642 833 l 569 1042 b 411 907 533 936 471 907 z m 721 207 l 721 454 b 406 681 721 610 639 681 b 131 660 354 681 263 676 l 149 501 b 396 524 267 517 351 524 b 531 450 510 524 531 501 l 531 418 l 301 396 b 61 182 115 376 61 311 b 265 -15 61 53 144 -15 b 525 71 368 -15 457 17 l 542 71 b 696 -1 564 26 610 4 l 808 -8 l 825 140 l 763 146 b 721 207 728 149 721 161 z m 326 131 b 256 196 279 131 256 157 b 354 278 256 242 275 267 l 531 301 l 531 213 b 326 131 436 146 374 131 z "},"ẵ":{"ha":853,"x_min":0,"x_max":0,"o":"m 426 1264 b 304 1319 363 1307 339 1319 b 144 1113 243 1319 199 1267 l 249 1081 b 321 1190 288 1183 306 1190 b 411 1140 335 1190 344 1183 b 533 1085 475 1097 499 1085 b 693 1292 594 1085 639 1138 l 589 1324 b 517 1214 550 1221 532 1214 b 426 1264 503 1214 493 1221 z m 411 907 b 253 1042 351 907 290 935 l 136 1000 b 411 775 181 833 297 775 b 686 1000 525 775 642 833 l 569 1042 b 411 907 533 936 471 907 z m 721 207 l 721 454 b 406 681 721 610 639 681 b 131 660 354 681 263 676 l 149 501 b 396 524 267 517 351 524 b 531 450 510 524 531 501 l 531 418 l 301 396 b 61 182 115 376 61 311 b 265 -15 61 53 144 -15 b 525 71 368 -15 457 17 l 542 71 b 696 -1 564 26 610 4 l 808 -8 l 825 140 l 763 146 b 721 207 728 149 721 161 z m 326 131 b 256 196 279 131 256 157 b 354 278 256 242 275 267 l 531 301 l 531 213 b 326 131 436 146 374 131 z "},"ã":{"ha":853,"x_min":0,"x_max":0,"o":"m 383 851 b 518 775 456 789 486 775 b 703 1021 575 775 625 793 l 589 1061 b 518 919 547 935 533 919 b 438 976 506 919 496 926 b 303 1053 365 1038 336 1053 b 118 807 246 1053 196 1035 l 235 767 b 303 908 276 893 288 908 b 383 851 315 908 325 903 z m 721 207 l 721 454 b 406 681 721 610 639 681 b 131 660 354 681 263 676 l 149 501 b 396 524 267 517 351 524 b 531 450 510 524 531 501 l 531 418 l 301 396 b 61 182 115 376 61 311 b 265 -15 61 53 144 -15 b 525 71 368 -15 457 17 l 542 71 b 696 -1 564 26 610 4 l 808 -8 l 825 140 l 763 146 b 721 207 728 149 721 161 z m 326 131 b 256 196 279 131 256 157 b 354 278 256 242 275 267 l 531 301 l 531 213 b 326 131 436 146 374 131 z "},"ā":{"ha":853,"x_min":0,"x_max":0,"o":"m 174 831 l 649 831 l 649 967 l 174 967 z m 721 207 l 721 454 b 406 681 721 610 639 681 b 131 660 354 681 263 676 l 149 501 b 396 524 267 517 351 524 b 531 450 510 524 531 501 l 531 418 l 301 396 b 61 182 115 376 61 311 b 265 -15 61 53 144 -15 b 525 71 368 -15 457 17 l 542 71 b 696 -1 564 26 610 4 l 808 -8 l 825 140 l 763 146 b 721 207 728 149 721 161 z m 326 131 b 256 196 279 131 256 157 b 354 278 256 242 275 267 l 531 301 l 531 213 b 326 131 436 146 374 131 z "},"ä":{"ha":853,"x_min":0,"x_max":0,"o":"m 250 803 b 354 901 314 803 354 838 b 251 1001 354 967 318 1001 b 149 901 188 1001 149 960 b 250 803 149 838 186 803 z m 569 803 b 674 901 633 803 674 838 b 571 1001 674 967 638 1001 b 468 901 507 1001 468 960 b 569 803 468 838 506 803 z m 721 207 l 721 454 b 406 681 721 610 639 681 b 131 660 354 681 263 676 l 149 501 b 396 524 267 517 351 524 b 531 450 510 524 531 501 l 531 418 l 301 396 b 61 182 115 376 61 311 b 265 -15 61 53 144 -15 b 525 71 368 -15 457 17 l 542 71 b 696 -1 564 26 610 4 l 808 -8 l 825 140 l 763 146 b 721 207 728 149 721 161 z m 326 131 b 256 196 279 131 256 157 b 354 278 256 242 275 267 l 531 301 l 531 213 b 326 131 436 146 374 131 z "},"ȧ":{"ha":853,"x_min":0,"x_max":0,"o":"m 411 803 b 522 908 479 803 522 840 b 413 1015 522 978 483 1015 b 303 908 344 1015 303 971 b 411 803 303 840 343 803 z m 721 207 l 721 454 b 406 681 721 610 639 681 b 131 660 354 681 263 676 l 149 501 b 396 524 267 517 351 524 b 531 450 510 524 531 501 l 531 418 l 301 396 b 61 182 115 376 61 311 b 265 -15 61 53 144 -15 b 525 71 368 -15 457 17 l 542 71 b 696 -1 564 26 610 4 l 808 -8 l 825 140 l 763 146 b 721 207 728 149 721 161 z m 326 131 b 256 196 279 131 256 157 b 354 278 256 242 275 267 l 531 301 l 531 213 b 326 131 436 146 374 131 z "},"å":{"ha":853,"x_min":0,"x_max":0,"o":"m 410 775 b 629 968 533 775 629 844 b 413 1158 629 1085 536 1158 b 193 967 288 1158 193 1086 b 410 775 193 844 288 775 z m 411 885 b 314 965 353 885 314 903 b 410 1049 314 1026 353 1049 b 508 969 471 1049 508 1028 b 411 885 508 908 469 885 z m 721 207 l 721 454 b 406 681 721 610 639 681 b 131 660 354 681 263 676 l 149 501 b 396 524 267 517 351 524 b 531 450 510 524 531 501 l 531 418 l 301 396 b 61 182 115 376 61 311 b 265 -15 61 53 144 -15 b 525 71 368 -15 457 17 l 542 71 b 696 -1 564 26 610 4 l 808 -8 l 825 140 l 763 146 b 721 207 728 149 721 161 z m 326 131 b 256 196 279 131 256 157 b 354 278 256 242 275 267 l 531 301 l 531 213 b 326 131 436 146 374 131 z "},"ả":{"ha":853,"x_min":0,"x_max":0,"o":"m 278 775 b 583 954 503 813 583 881 b 286 1100 583 1022 525 1074 l 214 1004 l 214 1001 b 411 932 390 978 411 954 b 236 857 411 910 388 892 l 236 854 z m 721 207 l 721 454 b 406 681 721 610 639 681 b 131 660 354 681 263 676 l 149 501 b 396 524 267 517 351 524 b 531 450 510 524 531 501 l 531 418 l 301 396 b 61 182 115 376 61 311 b 265 -15 61 53 144 -15 b 525 71 368 -15 457 17 l 542 71 b 696 -1 564 26 610 4 l 808 -8 l 825 140 l 763 146 b 721 207 728 149 721 161 z m 326 131 b 256 196 279 131 256 157 b 354 278 256 242 275 267 l 531 301 l 531 213 b 326 131 436 146 374 131 z "},"ạ":{"ha":853,"x_min":0,"x_max":0,"o":"m 721 207 l 721 454 b 406 681 721 610 639 681 b 131 660 354 681 263 676 l 149 501 b 396 524 267 517 351 524 b 531 450 510 524 531 501 l 531 418 l 301 396 b 61 182 115 376 61 311 b 265 -15 61 53 144 -15 b 525 71 368 -15 457 17 l 542 71 b 696 -1 564 26 610 4 l 808 -8 l 825 140 l 763 146 b 721 207 728 149 721 161 z m 326 131 b 256 196 279 131 256 157 b 354 278 256 242 275 267 l 531 301 l 531 213 b 326 131 436 146 374 131 z m 406 -346 b 517 -240 474 -346 517 -308 b 407 -133 517 -171 478 -133 b 297 -240 339 -133 297 -178 b 406 -346 297 -308 338 -346 z "},"ą":{"ha":853,"x_min":0,"x_max":0,"o":"m 474 -219 b 603 -319 474 -282 514 -315 l 738 -325 l 751 -196 l 675 -190 b 618 -147 629 -187 618 -175 b 696 -1 618 -132 621 -110 l 808 -8 l 825 140 l 763 146 b 721 207 728 149 721 161 l 721 454 b 406 681 721 610 639 681 b 131 660 354 681 263 676 l 149 501 b 396 524 267 517 351 524 b 531 450 510 524 531 501 l 531 418 l 301 396 b 61 182 115 376 61 311 b 265 -15 61 53 144 -15 b 525 71 368 -15 457 17 l 542 71 b 615 13 556 43 579 24 b 474 -219 507 -111 474 -174 z m 326 131 b 256 196 279 131 256 157 b 354 278 256 242 275 267 l 531 301 l 531 213 b 326 131 436 146 374 131 z "},"æ":{"ha":853,"x_min":0,"x_max":0,"o":"m 722 129 l 658 133 b 504 267 556 140 515 169 l 828 267 b 836 353 832 288 836 318 b 607 681 836 546 747 681 b 449 600 546 681 492 650 b 271 681 415 654 357 681 b 79 663 215 681 146 674 l 96 513 b 236 529 167 525 206 529 b 325 450 306 529 325 511 l 325 415 l 222 396 b 15 182 64 365 15 303 b 167 -15 15 54 78 -15 b 353 79 235 -15 292 18 l 385 79 b 611 -15 431 19 503 -12 l 715 -18 z m 592 536 b 660 401 633 536 657 483 l 503 401 b 592 536 514 490 549 536 z m 247 131 b 204 196 219 131 204 158 b 276 282 204 239 219 264 l 325 297 b 340 176 326 251 332 211 b 247 131 294 143 271 131 z "},"ḇ":{"ha":853,"x_min":0,"x_max":0,"o":"m 306 986 l 104 986 l 104 0 l 126 0 l 222 32 b 414 -11 282 3 347 -11 b 792 350 660 -11 792 147 b 507 681 792 564 665 681 b 306 600 431 681 365 657 z m 426 515 b 583 335 522 515 583 449 b 399 156 583 238 519 156 b 306 179 368 156 340 161 l 306 471 b 426 515 350 503 388 515 z m 206 -297 l 681 -297 l 681 -161 l 206 -161 z "},"ć":{"ha":853,"x_min":0,"x_max":0,"o":"m 292 883 l 350 775 l 683 935 l 615 1064 z m 468 511 b 681 433 524 511 575 504 l 774 576 b 458 681 638 665 551 681 b 76 331 239 681 76 522 b 438 -19 76 118 219 -19 b 781 88 551 -19 644 4 l 690 224 b 457 150 579 163 522 150 b 288 332 363 150 288 215 b 468 511 288 438 361 511 z "},"ĉ":{"ha":853,"x_min":0,"x_max":0,"o":"m 174 846 l 239 768 l 435 911 l 631 768 l 696 846 l 478 1053 l 392 1053 z m 468 511 b 681 433 524 511 575 504 l 774 576 b 458 681 638 665 551 681 b 76 331 239 681 76 522 b 438 -19 76 118 219 -19 b 781 88 551 -19 644 4 l 690 224 b 457 150 579 163 522 150 b 288 332 363 150 288 215 b 468 511 288 438 361 511 z "},"č":{"ha":853,"x_min":0,"x_max":0,"o":"m 696 982 l 631 1060 l 435 917 l 239 1060 l 174 982 l 392 775 l 478 775 z m 468 511 b 681 433 524 511 575 504 l 774 576 b 458 681 638 665 551 681 b 76 331 239 681 76 522 b 438 -19 76 118 219 -19 b 781 88 551 -19 644 4 l 690 224 b 457 150 579 163 522 150 b 288 332 363 150 288 215 b 468 511 288 438 361 511 z "},"ċ":{"ha":853,"x_min":0,"x_max":0,"o":"m 435 803 b 546 908 503 803 546 840 b 436 1015 546 978 507 1015 b 326 908 368 1015 326 971 b 435 803 326 840 367 803 z m 468 511 b 681 433 524 511 575 504 l 774 576 b 458 681 638 665 551 681 b 76 331 239 681 76 522 b 438 -19 76 118 219 -19 b 781 88 551 -19 644 4 l 690 224 b 457 150 579 163 522 150 b 288 332 363 150 288 215 b 468 511 288 438 361 511 z "},"ç":{"ha":853,"x_min":0,"x_max":0,"o":"m 468 511 b 681 433 524 511 575 504 l 774 576 b 458 681 638 665 551 681 b 76 331 239 681 76 522 b 368 -14 76 142 190 11 l 324 -149 l 332 -162 b 508 -211 472 -169 508 -183 b 256 -279 508 -247 467 -261 l 282 -375 b 635 -208 590 -349 635 -301 b 433 -86 635 -147 594 -104 l 454 -19 b 781 88 560 -17 651 8 l 690 224 b 457 150 579 163 522 150 b 288 332 363 150 288 215 b 468 511 288 438 361 511 z "},"ď":{"ha":853,"x_min":0,"x_max":0,"o":"m 919 785 l 1053 785 l 1086 1096 l 919 1096 z m 346 -15 b 561 79 428 -15 497 11 l 574 0 l 749 0 l 749 986 l 547 986 l 547 639 b 403 669 504 663 458 669 b 61 315 203 669 61 524 b 346 -15 61 101 188 -15 z m 269 331 b 444 508 269 438 336 508 b 547 481 478 508 510 503 l 547 193 b 426 150 503 163 465 150 b 269 331 331 150 269 215 z "},"ḓ":{"ha":853,"x_min":0,"x_max":0,"o":"m 346 -15 b 561 79 428 -15 497 11 l 574 0 l 749 0 l 749 986 l 547 986 l 547 639 b 403 669 504 663 458 669 b 61 315 203 669 61 524 b 346 -15 61 101 188 -15 z m 269 331 b 444 508 269 438 336 508 b 547 481 478 508 510 503 l 547 193 b 426 150 503 163 465 150 b 269 331 331 150 269 215 z m 204 -312 l 269 -390 l 465 -247 l 661 -390 l 726 -312 l 508 -106 l 422 -106 z "},"ḏ":{"ha":853,"x_min":0,"x_max":0,"o":"m 346 -15 b 561 79 428 -15 497 11 l 574 0 l 749 0 l 749 986 l 547 986 l 547 639 b 403 669 504 663 458 669 b 61 315 203 669 61 524 b 346 -15 61 101 188 -15 z m 269 331 b 444 508 269 438 336 508 b 547 481 478 508 510 503 l 547 193 b 426 150 503 163 465 150 b 269 331 331 150 269 215 z m 228 -297 l 703 -297 l 703 -161 l 228 -161 z "},"ḍ":{"ha":853,"x_min":0,"x_max":0,"o":"m 346 -15 b 561 79 428 -15 497 11 l 574 0 l 749 0 l 749 986 l 547 986 l 547 639 b 403 669 504 663 458 669 b 61 315 203 669 61 524 b 346 -15 61 101 188 -15 z m 269 331 b 444 508 269 438 336 508 b 547 481 478 508 510 503 l 547 193 b 426 150 503 163 465 150 b 269 331 331 150 269 215 z m 465 -346 b 576 -240 533 -346 576 -308 b 467 -133 576 -171 538 -133 b 357 -240 399 -133 357 -178 b 465 -346 357 -308 397 -346 z "},"đ":{"ha":853,"x_min":0,"x_max":0,"o":"m 336 -15 b 542 79 414 -15 481 13 l 554 0 l 729 0 l 729 717 l 836 717 l 836 822 l 729 822 l 729 986 l 528 986 l 528 822 l 350 822 l 350 717 l 528 717 l 528 560 b 388 593 485 585 442 593 b 61 281 199 593 61 464 b 336 -15 61 89 182 -15 z m 269 296 b 419 444 269 385 326 444 b 528 413 456 444 486 436 l 528 193 b 408 150 483 163 447 150 b 269 296 324 150 269 203 z "},"é":{"ha":853,"x_min":0,"x_max":0,"o":"m 300 883 l 358 775 l 692 935 l 624 1064 z m 532 139 b 276 267 363 146 296 175 l 765 267 b 774 353 769 288 774 318 b 438 683 774 547 642 683 b 79 326 215 683 79 521 b 465 -15 79 108 185 -11 l 633 -18 l 640 135 z m 439 533 b 582 401 522 533 575 482 l 276 401 b 439 533 296 488 354 533 z "},"è":{"ha":853,"x_min":0,"x_max":0,"o":"m 586 883 l 263 1064 l 194 935 l 528 775 z m 532 139 b 276 267 363 146 296 175 l 765 267 b 774 353 769 288 774 318 b 438 683 774 547 642 683 b 79 326 215 683 79 521 b 465 -15 79 108 185 -11 l 633 -18 l 640 135 z m 439 533 b 582 401 522 533 575 482 l 276 401 b 439 533 296 488 354 533 z "},"ê":{"ha":853,"x_min":0,"x_max":0,"o":"m 182 843 l 247 765 l 443 908 l 639 765 l 704 843 l 486 1050 l 400 1050 z m 532 139 b 276 267 363 146 296 175 l 765 267 b 774 353 769 288 774 318 b 438 683 774 547 642 683 b 79 326 215 683 79 521 b 465 -15 79 108 185 -11 l 633 -18 l 640 135 z m 439 533 b 582 401 522 533 575 482 l 276 401 b 439 533 296 488 354 533 z "},"ệ":{"ha":853,"x_min":0,"x_max":0,"o":"m 182 843 l 247 765 l 443 908 l 639 765 l 704 843 l 486 1050 l 400 1050 z m 532 139 b 276 267 363 146 296 175 l 765 267 b 774 353 769 288 774 318 b 438 683 774 547 642 683 b 79 326 215 683 79 521 b 465 -15 79 108 185 -11 l 633 -18 l 640 135 z m 439 533 b 582 401 522 533 575 482 l 276 401 b 439 533 296 488 354 533 z m 443 -353 b 554 -247 511 -353 554 -315 b 444 -140 554 -178 515 -140 b 335 -247 376 -140 335 -185 b 443 -353 335 -315 375 -353 z "},"ế":{"ha":853,"x_min":0,"x_max":0,"o":"m 561 1115 l 607 1015 l 860 1106 l 807 1226 z m 182 843 l 247 765 l 443 883 l 639 765 l 704 843 l 486 1022 l 400 1022 z m 532 139 b 276 267 363 146 296 175 l 765 267 b 774 353 769 288 774 318 b 438 683 774 547 642 683 b 79 326 215 683 79 521 b 465 -15 79 108 185 -11 l 633 -18 l 640 135 z m 439 533 b 582 401 522 533 575 482 l 276 401 b 439 533 296 488 354 533 z "},"ề":{"ha":853,"x_min":0,"x_max":0,"o":"m 776 1086 l 551 1235 l 481 1124 l 715 994 z m 182 843 l 247 765 l 443 883 l 639 765 l 704 843 l 486 1022 l 400 1022 z m 532 139 b 276 267 363 146 296 175 l 765 267 b 774 353 769 288 774 318 b 438 683 774 547 642 683 b 79 326 215 683 79 521 b 465 -15 79 108 185 -11 l 633 -18 l 640 135 z m 439 533 b 582 401 522 533 575 482 l 276 401 b 439 533 296 488 354 533 z "},"ể":{"ha":853,"x_min":0,"x_max":0,"o":"m 592 1013 b 869 1178 797 1047 869 1110 b 572 1303 869 1236 817 1267 l 500 1214 l 500 1211 b 697 1156 676 1188 697 1174 b 550 1094 697 1138 678 1124 l 550 1092 z m 182 843 l 247 765 l 443 883 l 639 765 l 704 843 l 486 1022 l 400 1022 z m 532 139 b 276 267 363 146 296 175 l 765 267 b 774 353 769 288 774 318 b 438 683 774 547 642 683 b 79 326 215 683 79 521 b 465 -15 79 108 185 -11 l 633 -18 l 640 135 z m 439 533 b 582 401 522 533 575 482 l 276 401 b 439 533 296 488 354 533 z "},"ễ":{"ha":853,"x_min":0,"x_max":0,"o":"m 472 1243 b 350 1299 408 1286 385 1299 b 190 1092 289 1299 244 1246 l 294 1060 b 367 1169 333 1163 351 1169 b 457 1119 381 1169 390 1163 b 579 1064 521 1076 544 1064 b 739 1271 640 1064 685 1117 l 635 1303 b 563 1193 596 1200 578 1193 b 472 1243 549 1193 539 1200 z m 182 843 l 247 765 l 443 883 l 639 765 l 704 843 l 486 1022 l 400 1022 z m 532 139 b 276 267 363 146 296 175 l 765 267 b 774 353 769 288 774 318 b 438 683 774 547 642 683 b 79 326 215 683 79 521 b 465 -15 79 108 185 -11 l 633 -18 l 640 135 z m 439 533 b 582 401 522 533 575 482 l 276 401 b 439 533 296 488 354 533 z "},"ě":{"ha":853,"x_min":0,"x_max":0,"o":"m 704 982 l 639 1060 l 443 917 l 247 1060 l 182 982 l 400 775 l 486 775 z m 532 139 b 276 267 363 146 296 175 l 765 267 b 774 353 769 288 774 318 b 438 683 774 547 642 683 b 79 326 215 683 79 521 b 465 -15 79 108 185 -11 l 633 -18 l 640 135 z m 439 533 b 582 401 522 533 575 482 l 276 401 b 439 533 296 488 354 533 z "},"ĕ":{"ha":853,"x_min":0,"x_max":0,"o":"m 443 907 b 285 1056 383 907 325 939 l 168 1014 b 443 775 215 838 329 775 b 718 1014 557 775 671 838 l 601 1056 b 443 907 563 940 503 907 z m 532 139 b 276 267 363 146 296 175 l 765 267 b 774 353 769 288 774 318 b 438 683 774 547 642 683 b 79 326 215 683 79 521 b 465 -15 79 108 185 -11 l 633 -18 l 640 135 z m 439 533 b 582 401 522 533 575 482 l 276 401 b 439 533 296 488 354 533 z "},"ẽ":{"ha":853,"x_min":0,"x_max":0,"o":"m 415 851 b 550 775 488 789 518 775 b 735 1021 607 775 657 793 l 621 1061 b 550 919 579 935 565 919 b 469 976 538 919 528 926 b 335 1053 397 1038 368 1053 b 150 807 278 1053 228 1035 l 267 767 b 335 908 308 893 319 908 b 415 851 347 908 357 903 z m 532 139 b 276 267 363 146 296 175 l 765 267 b 774 353 769 288 774 318 b 438 683 774 547 642 683 b 79 326 215 683 79 521 b 465 -15 79 108 185 -11 l 633 -18 l 640 135 z m 439 533 b 582 401 522 533 575 482 l 276 401 b 439 533 296 488 354 533 z "},"ē":{"ha":853,"x_min":0,"x_max":0,"o":"m 206 831 l 681 831 l 681 967 l 206 967 z m 532 139 b 276 267 363 146 296 175 l 765 267 b 774 353 769 288 774 318 b 438 683 774 547 642 683 b 79 326 215 683 79 521 b 465 -15 79 108 185 -11 l 633 -18 l 640 135 z m 439 533 b 582 401 522 533 575 482 l 276 401 b 439 533 296 488 354 533 z "},"ë":{"ha":853,"x_min":0,"x_max":0,"o":"m 282 803 b 386 901 346 803 386 838 b 283 1001 386 967 350 1001 b 181 901 219 1001 181 960 b 282 803 181 838 218 803 z m 601 803 b 706 901 665 803 706 838 b 603 1001 706 967 669 1001 b 500 901 539 1001 500 960 b 601 803 500 838 538 803 z m 532 139 b 276 267 363 146 296 175 l 765 267 b 774 353 769 288 774 318 b 438 683 774 547 642 683 b 79 326 215 683 79 521 b 465 -15 79 108 185 -11 l 633 -18 l 640 135 z m 439 533 b 582 401 522 533 575 482 l 276 401 b 439 533 296 488 354 533 z "},"ė":{"ha":853,"x_min":0,"x_max":0,"o":"m 443 803 b 554 908 511 803 554 840 b 444 1015 554 978 515 1015 b 335 908 376 1015 335 971 b 443 803 335 840 375 803 z m 532 139 b 276 267 363 146 296 175 l 765 267 b 774 353 769 288 774 318 b 438 683 774 547 642 683 b 79 326 215 683 79 521 b 465 -15 79 108 185 -11 l 633 -18 l 640 135 z m 439 533 b 582 401 522 533 575 482 l 276 401 b 439 533 296 488 354 533 z "},"ẻ":{"ha":853,"x_min":0,"x_max":0,"o":"m 310 775 b 615 954 535 813 615 881 b 318 1100 615 1022 557 1074 l 246 1004 l 246 1001 b 443 932 422 978 443 954 b 268 857 443 910 419 892 l 268 854 z m 532 139 b 276 267 363 146 296 175 l 765 267 b 774 353 769 288 774 318 b 438 683 774 547 642 683 b 79 326 215 683 79 521 b 465 -15 79 108 185 -11 l 633 -18 l 640 135 z m 439 533 b 582 401 522 533 575 482 l 276 401 b 439 533 296 488 354 533 z "},"ẹ":{"ha":853,"x_min":0,"x_max":0,"o":"m 532 139 b 276 267 363 146 296 175 l 765 267 b 774 353 769 288 774 318 b 438 683 774 547 642 683 b 79 326 215 683 79 521 b 465 -15 79 108 185 -11 l 633 -18 l 640 135 z m 439 533 b 582 401 522 533 575 482 l 276 401 b 439 533 296 488 354 533 z m 443 -353 b 554 -247 511 -353 554 -315 b 444 -140 554 -178 515 -140 b 335 -247 376 -140 335 -185 b 443 -353 335 -315 375 -353 z "},"ę":{"ha":853,"x_min":0,"x_max":0,"o":"m 421 -219 b 550 -319 421 -282 461 -315 l 685 -325 l 699 -196 l 622 -190 b 565 -147 576 -187 565 -175 b 633 -18 565 -133 568 -114 l 640 135 l 532 139 b 276 267 363 146 296 175 l 765 267 b 774 353 769 288 774 318 b 438 683 774 547 642 683 b 79 326 215 683 79 521 b 465 -15 79 108 185 -11 l 539 -17 b 421 -219 443 -126 421 -176 z m 439 533 b 582 401 522 533 575 482 l 276 401 b 439 533 296 488 354 533 z "},"ĝ":{"ha":853,"x_min":0,"x_max":0,"o":"m 175 846 l 240 768 l 436 911 l 632 768 l 697 846 l 479 1053 l 393 1053 z m 61 335 b 339 18 61 131 192 18 b 550 97 422 18 489 39 l 550 14 b 393 -150 550 -92 508 -143 l 179 -162 l 186 -332 l 414 -321 b 750 18 681 -307 750 -208 l 750 671 l 735 671 l 621 643 b 440 681 564 668 503 681 b 61 335 194 681 61 528 z m 269 350 b 456 514 269 438 335 514 b 550 490 486 514 515 508 l 550 226 b 426 183 506 196 467 183 b 269 350 332 183 269 243 z "},"ǧ":{"ha":853,"x_min":0,"x_max":0,"o":"m 697 982 l 632 1060 l 436 917 l 240 1060 l 175 982 l 393 775 l 479 775 z m 61 335 b 339 18 61 131 192 18 b 550 97 422 18 489 39 l 550 14 b 393 -150 550 -92 508 -143 l 179 -162 l 186 -332 l 414 -321 b 750 18 681 -307 750 -208 l 750 671 l 735 671 l 621 643 b 440 681 564 668 503 681 b 61 335 194 681 61 528 z m 269 350 b 456 514 269 438 335 514 b 550 490 486 514 515 508 l 550 226 b 426 183 506 196 467 183 b 269 350 332 183 269 243 z "},"ğ":{"ha":853,"x_min":0,"x_max":0,"o":"m 436 907 b 278 1056 376 907 318 939 l 161 1014 b 436 775 208 838 322 775 b 711 1014 550 775 664 838 l 594 1056 b 436 907 556 940 496 907 z m 61 335 b 339 18 61 131 192 18 b 550 97 422 18 489 39 l 550 14 b 393 -150 550 -92 508 -143 l 179 -162 l 186 -332 l 414 -321 b 750 18 681 -307 750 -208 l 750 671 l 735 671 l 621 643 b 440 681 564 668 503 681 b 61 335 194 681 61 528 z m 269 350 b 456 514 269 438 335 514 b 550 490 486 514 515 508 l 550 226 b 426 183 506 196 467 183 b 269 350 332 183 269 243 z "},"ḡ":{"ha":853,"x_min":0,"x_max":0,"o":"m 199 831 l 674 831 l 674 967 l 199 967 z m 61 335 b 339 18 61 131 192 18 b 550 97 422 18 489 39 l 550 14 b 393 -150 550 -92 508 -143 l 179 -162 l 186 -332 l 414 -321 b 750 18 681 -307 750 -208 l 750 671 l 735 671 l 621 643 b 440 681 564 668 503 681 b 61 335 194 681 61 528 z m 269 350 b 456 514 269 438 335 514 b 550 490 486 514 515 508 l 550 226 b 426 183 506 196 467 183 b 269 350 332 183 269 243 z "},"ġ":{"ha":853,"x_min":0,"x_max":0,"o":"m 436 803 b 547 908 504 803 547 840 b 438 1015 547 978 508 1015 b 328 908 369 1015 328 971 b 436 803 328 840 368 803 z m 61 335 b 339 18 61 131 192 18 b 550 97 422 18 489 39 l 550 14 b 393 -150 550 -92 508 -143 l 179 -162 l 186 -332 l 414 -321 b 750 18 681 -307 750 -208 l 750 671 l 735 671 l 621 643 b 440 681 564 668 503 681 b 61 335 194 681 61 528 z m 269 350 b 456 514 269 438 335 514 b 550 490 486 514 515 508 l 550 226 b 426 183 506 196 467 183 b 269 350 332 183 269 243 z "},"ģ":{"ha":853,"x_min":0,"x_max":0,"o":"m 569 1100 b 264 921 344 1063 264 994 b 561 775 264 853 322 801 l 633 871 l 633 874 b 436 943 457 897 436 921 b 611 1018 436 965 460 983 l 611 1021 z m 61 335 b 339 18 61 131 192 18 b 550 97 422 18 489 39 l 550 14 b 393 -150 550 -92 508 -143 l 179 -162 l 186 -332 l 414 -321 b 750 18 681 -307 750 -208 l 750 671 l 735 671 l 621 643 b 440 681 564 668 503 681 b 61 335 194 681 61 528 z m 269 350 b 456 514 269 438 335 514 b 550 490 486 514 515 508 l 550 226 b 426 183 506 196 467 183 b 269 350 332 183 269 243 z "},"ĥ":{"ha":853,"x_min":0,"x_max":0,"o":"m -54 1133 l 11 1056 l 207 1199 l 403 1056 l 468 1133 l 250 1340 l 164 1340 z m 310 986 l 108 986 l 108 0 l 310 0 l 310 389 b 485 488 389 454 444 488 b 550 417 532 488 550 464 l 550 0 l 751 0 l 751 454 b 561 678 751 603 693 678 b 310 563 483 678 411 646 z "},"ḫ":{"ha":853,"x_min":0,"x_max":0,"o":"m 310 986 l 108 986 l 108 0 l 310 0 l 310 389 b 485 488 389 454 444 488 b 550 417 532 488 550 464 l 550 0 l 751 0 l 751 454 b 561 678 751 603 693 678 b 310 563 483 678 411 646 z m 442 -254 b 283 -106 382 -254 324 -222 l 167 -147 b 442 -386 214 -324 328 -386 b 717 -147 556 -386 669 -324 l 600 -106 b 442 -254 561 -221 501 -254 z "},"ẖ":{"ha":853,"x_min":0,"x_max":0,"o":"m 310 986 l 108 986 l 108 0 l 310 0 l 310 389 b 485 488 389 454 444 488 b 550 417 532 488 550 464 l 550 0 l 751 0 l 751 454 b 561 678 751 603 693 678 b 310 563 483 678 411 646 z m 204 -297 l 679 -297 l 679 -161 l 204 -161 z "},"ḥ":{"ha":853,"x_min":0,"x_max":0,"o":"m 310 986 l 108 986 l 108 0 l 310 0 l 310 389 b 485 488 389 454 444 488 b 550 417 532 488 550 464 l 550 0 l 751 0 l 751 454 b 561 678 751 603 693 678 b 310 563 483 678 411 646 z m 442 -346 b 553 -240 510 -346 553 -308 b 443 -133 553 -171 514 -133 b 333 -240 375 -133 333 -178 b 442 -346 333 -308 374 -346 z "},"ḩ":{"ha":853,"x_min":0,"x_max":0,"o":"m 310 986 l 108 986 l 108 0 l 160 0 l 113 -142 l 121 -156 b 297 -204 261 -162 297 -176 b 44 -272 297 -240 256 -254 l 71 -368 b 424 -201 379 -342 424 -294 b 222 -79 424 -140 383 -97 l 246 0 l 310 0 l 310 389 b 485 488 389 454 444 488 b 550 417 532 488 550 464 l 550 0 l 751 0 l 751 454 b 561 678 751 603 693 678 b 310 563 483 678 411 646 z "},"ħ":{"ha":853,"x_min":0,"x_max":0,"o":"m 503 717 l 503 822 l 325 822 l 325 986 l 124 986 l 124 822 l 17 822 l 17 717 l 124 717 l 124 0 l 325 0 l 325 306 b 485 404 400 369 447 404 b 550 333 532 404 550 381 l 550 0 l 751 0 l 751 371 b 561 594 751 519 693 594 b 325 479 488 594 422 561 l 325 717 z "},"ı":{"ha":853,"x_min":0,"x_max":0,"o":"m 129 169 l 129 0 l 767 0 l 767 169 l 547 169 l 547 663 l 157 663 l 157 493 l 346 493 l 346 169 z "},"í":{"ha":853,"x_min":0,"x_max":0,"o":"m 303 876 l 361 768 l 694 928 l 626 1057 z m 129 169 l 129 0 l 767 0 l 767 169 l 547 169 l 547 663 l 157 663 l 157 493 l 346 493 l 346 169 z "},"ì":{"ha":853,"x_min":0,"x_max":0,"o":"m 589 876 l 265 1057 l 197 928 l 531 768 z m 129 169 l 129 0 l 767 0 l 767 169 l 547 169 l 547 663 l 157 663 l 157 493 l 346 493 l 346 169 z "},"î":{"ha":853,"x_min":0,"x_max":0,"o":"m 185 846 l 250 768 l 446 911 l 642 768 l 707 846 l 489 1053 l 403 1053 z m 129 169 l 129 0 l 767 0 l 767 169 l 547 169 l 547 663 l 157 663 l 157 493 l 346 493 l 346 169 z "},"ǐ":{"ha":853,"x_min":0,"x_max":0,"o":"m 707 975 l 642 1053 l 446 910 l 250 1053 l 185 975 l 403 768 l 489 768 z m 129 169 l 129 0 l 767 0 l 767 169 l 547 169 l 547 663 l 157 663 l 157 493 l 346 493 l 346 169 z "},"ĭ":{"ha":853,"x_min":0,"x_max":0,"o":"m 446 900 b 288 1049 386 900 328 932 l 171 1007 b 446 768 218 831 332 768 b 721 1007 560 768 674 831 l 604 1049 b 446 900 565 933 506 900 z m 129 169 l 129 0 l 767 0 l 767 169 l 547 169 l 547 663 l 157 663 l 157 493 l 346 493 l 346 169 z "},"ĩ":{"ha":853,"x_min":0,"x_max":0,"o":"m 418 844 b 553 768 490 782 521 768 b 738 1014 610 768 660 786 l 624 1054 b 553 913 582 928 568 913 b 472 969 540 913 531 919 b 338 1046 400 1031 371 1046 b 153 800 281 1046 231 1028 l 269 760 b 338 901 311 886 322 901 b 418 844 350 901 360 896 z m 129 169 l 129 0 l 767 0 l 767 169 l 547 169 l 547 663 l 157 663 l 157 493 l 346 493 l 346 169 z "},"ī":{"ha":853,"x_min":0,"x_max":0,"o":"m 208 824 l 683 824 l 683 960 l 208 960 z m 129 169 l 129 0 l 767 0 l 767 169 l 547 169 l 547 663 l 157 663 l 157 493 l 346 493 l 346 169 z "},"ï":{"ha":853,"x_min":0,"x_max":0,"o":"m 285 796 b 389 894 349 796 389 831 b 286 994 389 960 353 994 b 183 894 222 994 183 953 b 285 796 183 831 221 796 z m 604 796 b 708 894 668 796 708 831 b 606 994 708 960 672 994 b 503 894 542 994 503 953 b 604 796 503 831 540 796 z m 129 169 l 129 0 l 767 0 l 767 169 l 547 169 l 547 663 l 157 663 l 157 493 l 346 493 l 346 169 z "},"ỉ":{"ha":853,"x_min":0,"x_max":0,"o":"m 313 768 b 618 947 538 806 618 874 b 321 1093 618 1015 560 1067 l 249 997 l 249 994 b 446 925 425 971 446 947 b 271 850 446 903 422 885 l 271 847 z m 129 169 l 129 0 l 767 0 l 767 169 l 547 169 l 547 663 l 157 663 l 157 493 l 346 493 l 346 169 z "},"ị":{"ha":853,"x_min":0,"x_max":0,"o":"m 443 803 b 589 922 532 803 589 846 b 444 1043 589 1001 538 1043 b 300 922 354 1043 300 993 b 443 803 300 844 353 803 z m 129 169 l 129 0 l 767 0 l 767 169 l 547 169 l 547 663 l 157 663 l 157 493 l 346 493 l 346 169 z m 447 -346 b 558 -240 515 -346 558 -308 b 449 -133 558 -171 519 -133 b 339 -240 381 -133 339 -178 b 447 -346 339 -308 379 -346 z "},"į":{"ha":853,"x_min":0,"x_max":0,"o":"m 443 803 b 589 922 532 803 589 846 b 444 1043 589 1001 538 1043 b 300 922 354 1043 300 993 b 443 803 300 844 353 803 z m 129 169 l 129 0 l 411 0 b 279 -219 310 -117 279 -176 b 408 -319 279 -282 319 -315 l 543 -325 l 557 -196 l 481 -190 b 424 -147 435 -187 424 -175 b 503 0 424 -132 426 -110 l 767 0 l 767 169 l 547 169 l 547 663 l 157 663 l 157 493 l 346 493 l 346 169 z "},"ȷ":{"ha":853,"x_min":0,"x_max":0,"o":"m 650 8 l 650 663 l 147 663 l 147 493 l 449 493 l 449 -10 b 318 -144 449 -103 417 -137 l 140 -156 l 147 -328 l 333 -319 b 650 8 568 -308 650 -239 z "},"ĵ":{"ha":853,"x_min":0,"x_max":0,"o":"m 294 846 l 360 768 l 556 911 l 751 768 l 817 846 l 599 1053 l 513 1053 z m 650 8 l 650 663 l 147 663 l 147 493 l 449 493 l 449 -10 b 318 -144 449 -103 417 -137 l 140 -156 l 147 -328 l 333 -319 b 650 8 568 -308 650 -239 z "},"ǰ":{"ha":853,"x_min":0,"x_max":0,"o":"m 817 975 l 751 1053 l 556 910 l 360 1053 l 294 975 l 513 768 l 599 768 z m 650 8 l 650 663 l 147 663 l 147 493 l 449 493 l 449 -10 b 318 -144 449 -103 417 -137 l 140 -156 l 147 -328 l 333 -319 b 650 8 568 -308 650 -239 z "},"ḵ":{"ha":853,"x_min":0,"x_max":0,"o":"m 314 986 l 114 986 l 114 0 l 314 0 l 314 303 l 560 0 l 818 0 l 818 3 l 517 340 l 814 660 l 814 663 l 567 663 l 314 363 z m 199 -297 l 674 -297 l 674 -161 l 199 -161 z "},"ķ":{"ha":853,"x_min":0,"x_max":0,"o":"m 314 986 l 114 986 l 114 0 l 314 0 l 314 303 l 560 0 l 818 0 l 818 3 l 517 340 l 814 660 l 814 663 l 567 663 l 314 363 z m 303 -431 b 608 -251 528 -393 608 -325 b 311 -106 608 -183 550 -132 l 239 -201 l 239 -204 b 436 -274 415 -228 436 -251 b 261 -349 436 -296 413 -314 l 261 -351 z "},"ḳ":{"ha":853,"x_min":0,"x_max":0,"o":"m 314 986 l 114 986 l 114 0 l 314 0 l 314 303 l 560 0 l 818 0 l 818 3 l 517 340 l 814 660 l 814 663 l 567 663 l 314 363 z m 436 -346 b 547 -240 504 -346 547 -308 b 438 -133 547 -171 508 -133 b 328 -240 369 -133 328 -178 b 436 -346 328 -308 368 -346 z "},"ĺ":{"ha":853,"x_min":0,"x_max":0,"o":"m 254 1224 l 313 1115 l 646 1275 l 578 1404 z m 299 283 b 576 0 299 74 367 10 l 758 -8 l 765 164 l 614 172 b 499 297 528 176 499 208 l 499 986 l 78 986 l 78 817 l 299 817 z "},"ľ":{"ha":853,"x_min":0,"x_max":0,"o":"m 676 785 l 810 785 l 843 1096 l 676 1096 z m 299 283 b 576 0 299 74 367 10 l 758 -8 l 765 164 l 614 172 b 499 297 528 176 499 208 l 499 986 l 78 986 l 78 817 l 299 817 z "},"ļ":{"ha":853,"x_min":0,"x_max":0,"o":"m 299 283 b 576 0 299 74 367 10 l 758 -8 l 765 164 l 614 172 b 499 297 528 176 499 208 l 499 986 l 78 986 l 78 817 l 299 817 z m 310 -431 b 615 -251 535 -393 615 -325 b 318 -106 615 -183 557 -132 l 246 -201 l 246 -204 b 443 -274 422 -228 443 -251 b 268 -349 443 -296 419 -314 l 268 -351 z "},"ḽ":{"ha":853,"x_min":0,"x_max":0,"o":"m 299 283 b 576 0 299 74 367 10 l 758 -8 l 765 164 l 614 172 b 499 297 528 176 499 208 l 499 986 l 78 986 l 78 817 l 299 817 z m 182 -312 l 247 -390 l 443 -247 l 639 -390 l 704 -312 l 486 -106 l 400 -106 z "},"ḻ":{"ha":853,"x_min":0,"x_max":0,"o":"m 299 283 b 576 0 299 74 367 10 l 758 -8 l 765 164 l 614 172 b 499 297 528 176 499 208 l 499 986 l 78 986 l 78 817 l 299 817 z m 206 -297 l 681 -297 l 681 -161 l 206 -161 z "},"ḹ":{"ha":853,"x_min":0,"x_max":0,"o":"m 160 1171 l 635 1171 l 635 1307 l 160 1307 z m 299 283 b 576 0 299 74 367 10 l 758 -8 l 765 164 l 614 172 b 499 297 528 176 499 208 l 499 986 l 78 986 l 78 817 l 299 817 z m 443 -346 b 554 -240 511 -346 554 -308 b 444 -133 554 -171 515 -133 b 335 -240 376 -133 335 -178 b 443 -346 335 -308 375 -346 z "},"ḷ":{"ha":853,"x_min":0,"x_max":0,"o":"m 299 283 b 576 0 299 74 367 10 l 758 -8 l 765 164 l 614 172 b 499 297 528 176 499 208 l 499 986 l 78 986 l 78 817 l 299 817 z m 443 -346 b 554 -240 511 -346 554 -308 b 444 -133 554 -171 515 -133 b 335 -240 376 -133 335 -178 b 443 -346 335 -308 375 -346 z "},"ŀ":{"ha":853,"x_min":0,"x_max":0,"o":"m 299 283 b 576 0 299 74 367 10 l 758 -8 l 765 164 l 614 172 b 499 297 528 176 499 208 l 499 986 l 78 986 l 78 817 l 299 817 z m 831 354 b 947 506 904 354 947 406 b 832 656 947 608 910 656 b 717 504 757 656 717 597 b 831 354 717 404 756 354 z "},"ł":{"ha":853,"x_min":0,"x_max":0,"o":"m 108 263 l 299 385 l 299 283 b 576 0 299 74 367 10 l 758 -8 l 765 164 l 614 172 b 499 297 528 176 499 208 l 499 486 l 735 638 l 735 781 l 499 629 l 499 986 l 78 986 l 78 817 l 299 817 l 299 528 l 108 406 z "},"ḿ":{"ha":853,"x_min":0,"x_max":0,"o":"m 283 876 l 342 768 l 675 928 l 607 1057 z m 194 663 l 57 663 l 57 0 l 228 0 l 228 417 b 304 451 261 444 283 451 b 351 400 336 451 351 435 l 351 0 l 510 0 l 510 419 b 582 451 542 444 564 451 b 631 397 614 451 631 436 l 631 0 l 801 0 l 801 518 b 694 668 801 625 771 668 b 540 535 635 668 607 651 l 506 535 b 407 668 506 632 472 668 b 240 535 346 668 307 651 l 211 535 z "},"ṁ":{"ha":853,"x_min":0,"x_max":0,"o":"m 426 796 b 538 901 494 796 538 833 b 428 1008 538 971 499 1008 b 318 901 360 1008 318 964 b 426 796 318 833 358 796 z m 194 663 l 57 663 l 57 0 l 228 0 l 228 417 b 304 451 261 444 283 451 b 351 400 336 451 351 435 l 351 0 l 510 0 l 510 419 b 582 451 542 444 564 451 b 631 397 614 451 631 436 l 631 0 l 801 0 l 801 518 b 694 668 801 625 771 668 b 540 535 635 668 607 651 l 506 535 b 407 668 506 632 472 668 b 240 535 346 668 307 651 l 211 535 z "},"ṃ":{"ha":853,"x_min":0,"x_max":0,"o":"m 194 663 l 57 663 l 57 0 l 228 0 l 228 417 b 304 451 261 444 283 451 b 351 400 336 451 351 435 l 351 0 l 510 0 l 510 419 b 582 451 542 444 564 451 b 631 397 614 451 631 436 l 631 0 l 801 0 l 801 518 b 694 668 801 625 771 668 b 540 535 635 668 607 651 l 506 535 b 407 668 506 632 472 668 b 240 535 346 668 307 651 l 211 535 z m 431 -346 b 542 -240 499 -346 542 -308 b 432 -133 542 -171 503 -133 b 322 -240 364 -133 322 -178 b 431 -346 322 -308 363 -346 z "},"ń":{"ha":853,"x_min":0,"x_max":0,"o":"m 286 876 l 344 768 l 678 928 l 610 1057 z m 283 663 l 108 663 l 108 0 l 310 0 l 310 389 b 485 488 389 454 444 488 b 550 417 532 488 550 464 l 550 0 l 751 0 l 751 454 b 561 678 751 603 693 678 b 294 550 479 678 404 642 z "},"ǹ":{"ha":853,"x_min":0,"x_max":0,"o":"m 572 876 l 249 1057 l 181 928 l 514 768 z m 283 663 l 108 663 l 108 0 l 310 0 l 310 389 b 485 488 389 454 444 488 b 550 417 532 488 550 464 l 550 0 l 751 0 l 751 454 b 561 678 751 603 693 678 b 294 550 479 678 404 642 z "},"ň":{"ha":853,"x_min":0,"x_max":0,"o":"m 690 975 l 625 1053 l 429 910 l 233 1053 l 168 975 l 386 768 l 472 768 z m 283 663 l 108 663 l 108 0 l 310 0 l 310 389 b 485 488 389 454 444 488 b 550 417 532 488 550 464 l 550 0 l 751 0 l 751 454 b 561 678 751 603 693 678 b 294 550 479 678 404 642 z "},"ñ":{"ha":853,"x_min":0,"x_max":0,"o":"m 401 844 b 536 768 474 782 504 768 b 721 1014 593 768 643 786 l 607 1054 b 536 913 565 928 551 913 b 456 969 524 913 514 919 b 321 1046 383 1031 354 1046 b 136 800 264 1046 214 1028 l 253 760 b 321 901 294 886 306 901 b 401 844 333 901 343 896 z m 283 663 l 108 663 l 108 0 l 310 0 l 310 389 b 485 488 389 454 444 488 b 550 417 532 488 550 464 l 550 0 l 751 0 l 751 454 b 561 678 751 603 693 678 b 294 550 479 678 404 642 z "},"ṅ":{"ha":853,"x_min":0,"x_max":0,"o":"m 429 796 b 540 901 497 796 540 833 b 431 1008 540 971 501 1008 b 321 901 363 1008 321 964 b 429 796 321 833 361 796 z m 283 663 l 108 663 l 108 0 l 310 0 l 310 389 b 485 488 389 454 444 488 b 550 417 532 488 550 464 l 550 0 l 751 0 l 751 454 b 561 678 751 603 693 678 b 294 550 479 678 404 642 z "},"ṋ":{"ha":853,"x_min":0,"x_max":0,"o":"m 283 663 l 108 663 l 108 0 l 310 0 l 310 389 b 485 488 389 454 444 488 b 550 417 532 488 550 464 l 550 0 l 751 0 l 751 454 b 561 678 751 603 693 678 b 294 550 479 678 404 642 z m 171 -312 l 236 -390 l 432 -247 l 628 -390 l 693 -312 l 475 -106 l 389 -106 z "},"ņ":{"ha":853,"x_min":0,"x_max":0,"o":"m 283 663 l 108 663 l 108 0 l 310 0 l 310 389 b 485 488 389 454 444 488 b 550 417 532 488 550 464 l 550 0 l 751 0 l 751 454 b 561 678 751 603 693 678 b 294 550 479 678 404 642 z m 299 -431 b 604 -251 524 -393 604 -325 b 307 -106 604 -183 546 -132 l 235 -201 l 235 -204 b 432 -274 411 -228 432 -251 b 257 -349 432 -296 408 -314 l 257 -351 z "},"ṇ":{"ha":853,"x_min":0,"x_max":0,"o":"m 283 663 l 108 663 l 108 0 l 310 0 l 310 389 b 485 488 389 454 444 488 b 550 417 532 488 550 464 l 550 0 l 751 0 l 751 454 b 561 678 751 603 693 678 b 294 550 479 678 404 642 z m 432 -346 b 543 -240 500 -346 543 -308 b 433 -133 543 -171 504 -133 b 324 -240 365 -133 324 -178 b 432 -346 324 -308 364 -346 z "},"ṉ":{"ha":853,"x_min":0,"x_max":0,"o":"m 283 663 l 108 663 l 108 0 l 310 0 l 310 389 b 485 488 389 454 444 488 b 550 417 532 488 550 464 l 550 0 l 751 0 l 751 454 b 561 678 751 603 693 678 b 294 550 479 678 404 642 z m 194 -297 l 669 -297 l 669 -161 l 194 -161 z "},"ŋ":{"ha":853,"x_min":0,"x_max":0,"o":"m 283 663 l 108 663 l 108 0 l 310 0 l 310 389 b 485 488 389 454 444 488 b 550 417 532 488 550 464 l 550 -37 b 447 -144 550 -111 525 -139 l 297 -156 l 304 -328 l 463 -319 b 751 -19 676 -308 751 -246 l 751 454 b 561 678 751 603 693 678 b 294 550 479 678 404 642 z "},"ó":{"ha":853,"x_min":0,"x_max":0,"o":"m 285 883 l 343 775 l 676 935 l 608 1064 z m 424 -21 b 788 332 638 -21 788 128 b 429 683 788 540 639 683 b 65 331 215 683 65 533 b 424 -21 65 121 214 -21 z m 426 146 b 274 332 329 146 274 207 b 426 517 274 461 335 517 b 579 331 524 517 579 454 b 426 146 579 201 519 146 z "},"ő":{"ha":853,"x_min":0,"x_max":0,"o":"m 135 860 l 218 775 l 432 967 l 329 1065 z m 481 860 l 564 775 l 776 967 l 675 1065 z m 424 -21 b 788 332 638 -21 788 128 b 429 683 788 540 639 683 b 65 331 215 683 65 533 b 424 -21 65 121 214 -21 z m 426 146 b 274 332 329 146 274 207 b 426 517 274 461 335 517 b 579 331 524 517 579 454 b 426 146 579 201 519 146 z "},"ò":{"ha":853,"x_min":0,"x_max":0,"o":"m 571 883 l 247 1064 l 179 935 l 513 775 z m 424 -21 b 788 332 638 -21 788 128 b 429 683 788 540 639 683 b 65 331 215 683 65 533 b 424 -21 65 121 214 -21 z m 426 146 b 274 332 329 146 274 207 b 426 517 274 461 335 517 b 579 331 524 517 579 454 b 426 146 579 201 519 146 z "},"ô":{"ha":853,"x_min":0,"x_max":0,"o":"m 167 846 l 232 768 l 428 911 l 624 768 l 689 846 l 471 1053 l 385 1053 z m 424 -21 b 788 332 638 -21 788 128 b 429 683 788 540 639 683 b 65 331 215 683 65 533 b 424 -21 65 121 214 -21 z m 426 146 b 274 332 329 146 274 207 b 426 517 274 461 335 517 b 579 331 524 517 579 454 b 426 146 579 201 519 146 z "},"ộ":{"ha":853,"x_min":0,"x_max":0,"o":"m 167 846 l 232 768 l 428 911 l 624 768 l 689 846 l 471 1053 l 385 1053 z m 424 -21 b 788 332 638 -21 788 128 b 429 683 788 540 639 683 b 65 331 215 683 65 533 b 424 -21 65 121 214 -21 z m 426 146 b 274 332 329 146 274 207 b 426 517 274 461 335 517 b 579 331 524 517 579 454 b 426 146 579 201 519 146 z m 426 -353 b 538 -247 494 -353 538 -315 b 428 -140 538 -178 499 -140 b 318 -247 360 -140 318 -185 b 426 -353 318 -315 358 -353 z "},"ố":{"ha":853,"x_min":0,"x_max":0,"o":"m 546 1118 l 592 1018 l 844 1108 l 792 1229 z m 167 846 l 232 768 l 428 886 l 624 768 l 689 846 l 471 1025 l 385 1025 z m 424 -21 b 788 332 638 -21 788 128 b 429 683 788 540 639 683 b 65 331 215 683 65 533 b 424 -21 65 121 214 -21 z m 426 146 b 274 332 329 146 274 207 b 426 517 274 461 335 517 b 579 331 524 517 579 454 b 426 146 579 201 519 146 z "},"ồ":{"ha":853,"x_min":0,"x_max":0,"o":"m 761 1089 l 536 1238 l 465 1126 l 700 997 z m 167 846 l 232 768 l 428 886 l 624 768 l 689 846 l 471 1025 l 385 1025 z m 424 -21 b 788 332 638 -21 788 128 b 429 683 788 540 639 683 b 65 331 215 683 65 533 b 424 -21 65 121 214 -21 z m 426 146 b 274 332 329 146 274 207 b 426 517 274 461 335 517 b 579 331 524 517 579 454 b 426 146 579 201 519 146 z "},"ổ":{"ha":853,"x_min":0,"x_max":0,"o":"m 576 1015 b 854 1181 782 1050 854 1113 b 557 1306 854 1239 801 1269 l 485 1217 l 485 1214 b 682 1158 661 1190 682 1176 b 535 1097 682 1140 663 1126 l 535 1094 z m 167 846 l 232 768 l 428 886 l 624 768 l 689 846 l 471 1025 l 385 1025 z m 424 -21 b 788 332 638 -21 788 128 b 429 683 788 540 639 683 b 65 331 215 683 65 533 b 424 -21 65 121 214 -21 z m 426 146 b 274 332 329 146 274 207 b 426 517 274 461 335 517 b 579 331 524 517 579 454 b 426 146 579 201 519 146 z "},"ỗ":{"ha":853,"x_min":0,"x_max":0,"o":"m 457 1246 b 335 1301 393 1289 369 1301 b 175 1094 274 1301 229 1249 l 279 1063 b 351 1172 318 1165 336 1172 b 442 1122 365 1172 375 1165 b 564 1067 506 1079 529 1067 b 724 1274 625 1067 669 1119 l 619 1306 b 547 1196 581 1203 563 1196 b 457 1246 533 1196 524 1203 z m 167 846 l 232 768 l 428 886 l 624 768 l 689 846 l 471 1025 l 385 1025 z m 424 -21 b 788 332 638 -21 788 128 b 429 683 788 540 639 683 b 65 331 215 683 65 533 b 424 -21 65 121 214 -21 z m 426 146 b 274 332 329 146 274 207 b 426 517 274 461 335 517 b 579 331 524 517 579 454 b 426 146 579 201 519 146 z "},"ǒ":{"ha":853,"x_min":0,"x_max":0,"o":"m 689 982 l 624 1060 l 428 917 l 232 1060 l 167 982 l 385 775 l 471 775 z m 424 -21 b 788 332 638 -21 788 128 b 429 683 788 540 639 683 b 65 331 215 683 65 533 b 424 -21 65 121 214 -21 z m 426 146 b 274 332 329 146 274 207 b 426 517 274 461 335 517 b 579 331 524 517 579 454 b 426 146 579 201 519 146 z "},"ŏ":{"ha":853,"x_min":0,"x_max":0,"o":"m 428 907 b 269 1056 368 907 310 939 l 153 1014 b 428 775 200 838 314 775 b 703 1014 542 775 656 838 l 586 1056 b 428 907 547 940 488 907 z m 424 -21 b 788 332 638 -21 788 128 b 429 683 788 540 639 683 b 65 331 215 683 65 533 b 424 -21 65 121 214 -21 z m 426 146 b 274 332 329 146 274 207 b 426 517 274 461 335 517 b 579 331 524 517 579 454 b 426 146 579 201 519 146 z "},"õ":{"ha":853,"x_min":0,"x_max":0,"o":"m 400 851 b 535 775 472 789 503 775 b 719 1021 592 775 642 793 l 606 1061 b 535 919 564 935 550 919 b 454 976 522 919 513 926 b 319 1053 382 1038 353 1053 b 135 807 263 1053 213 1035 l 251 767 b 319 908 293 893 304 908 b 400 851 332 908 342 903 z m 424 -21 b 788 332 638 -21 788 128 b 429 683 788 540 639 683 b 65 331 215 683 65 533 b 424 -21 65 121 214 -21 z m 426 146 b 274 332 329 146 274 207 b 426 517 274 461 335 517 b 579 331 524 517 579 454 b 426 146 579 201 519 146 z "},"ō":{"ha":853,"x_min":0,"x_max":0,"o":"m 190 831 l 665 831 l 665 967 l 190 967 z m 424 -21 b 788 332 638 -21 788 128 b 429 683 788 540 639 683 b 65 331 215 683 65 533 b 424 -21 65 121 214 -21 z m 426 146 b 274 332 329 146 274 207 b 426 517 274 461 335 517 b 579 331 524 517 579 454 b 426 146 579 201 519 146 z "},"ö":{"ha":853,"x_min":0,"x_max":0,"o":"m 267 803 b 371 901 331 803 371 838 b 268 1001 371 967 335 1001 b 165 901 204 1001 165 960 b 267 803 165 838 203 803 z m 586 803 b 690 901 650 803 690 838 b 588 1001 690 967 654 1001 b 485 901 524 1001 485 960 b 586 803 485 838 522 803 z m 424 -21 b 788 332 638 -21 788 128 b 429 683 788 540 639 683 b 65 331 215 683 65 533 b 424 -21 65 121 214 -21 z m 426 146 b 274 332 329 146 274 207 b 426 517 274 461 335 517 b 579 331 524 517 579 454 b 426 146 579 201 519 146 z "},"ȯ":{"ha":853,"x_min":0,"x_max":0,"o":"m 428 803 b 539 908 496 803 539 840 b 429 1015 539 978 500 1015 b 319 908 361 1015 319 971 b 428 803 319 840 360 803 z m 424 -21 b 788 332 638 -21 788 128 b 429 683 788 540 639 683 b 65 331 215 683 65 533 b 424 -21 65 121 214 -21 z m 426 146 b 274 332 329 146 274 207 b 426 517 274 461 335 517 b 579 331 524 517 579 454 b 426 146 579 201 519 146 z "},"ỏ":{"ha":853,"x_min":0,"x_max":0,"o":"m 294 775 b 600 954 519 813 600 881 b 303 1100 600 1022 542 1074 l 231 1004 l 231 1001 b 428 932 407 978 428 954 b 253 857 428 910 404 892 l 253 854 z m 424 -21 b 788 332 638 -21 788 128 b 429 683 788 540 639 683 b 65 331 215 683 65 533 b 424 -21 65 121 214 -21 z m 426 146 b 274 332 329 146 274 207 b 426 517 274 461 335 517 b 579 331 524 517 579 454 b 426 146 579 201 519 146 z "},"ọ":{"ha":853,"x_min":0,"x_max":0,"o":"m 424 -21 b 788 332 638 -21 788 128 b 429 683 788 540 639 683 b 65 331 215 683 65 533 b 424 -21 65 121 214 -21 z m 426 146 b 274 332 329 146 274 207 b 426 517 274 461 335 517 b 579 331 524 517 579 454 b 426 146 579 201 519 146 z m 426 -353 b 538 -247 494 -353 538 -315 b 428 -140 538 -178 499 -140 b 318 -247 360 -140 318 -185 b 426 -353 318 -315 358 -353 z "},"ǫ":{"ha":853,"x_min":0,"x_max":0,"o":"m 265 -226 b 394 -326 265 -289 306 -322 l 529 -332 l 543 -203 l 467 -197 b 410 -154 421 -194 410 -182 b 482 -17 410 -140 413 -118 b 788 332 664 7 788 147 b 429 683 788 540 639 683 b 65 331 215 683 65 533 b 386 -19 65 133 196 -3 b 265 -226 293 -128 265 -185 z m 426 146 b 274 332 329 146 274 207 b 426 517 274 461 335 517 b 579 331 524 517 579 454 b 426 146 579 201 519 146 z "},"ø":{"ha":853,"x_min":0,"x_max":0,"o":"m 788 332 b 682 572 788 424 746 508 l 824 761 l 640 761 l 574 650 b 429 683 528 671 479 683 b 65 331 215 683 65 533 b 172 89 65 239 107 153 l 29 -99 l 211 -99 l 279 13 b 424 -21 324 -8 374 -21 b 788 332 638 -21 788 129 z m 274 332 b 426 517 274 461 335 517 b 579 331 529 517 579 463 b 426 146 579 201 518 146 b 274 332 324 146 274 200 z "},"œ":{"ha":853,"x_min":0,"x_max":0,"o":"m 268 -18 b 418 79 329 -18 381 18 b 611 -15 456 18 518 -12 l 715 -18 l 722 129 l 658 133 b 504 267 556 140 515 169 l 828 267 b 836 353 832 288 836 318 b 607 681 836 546 747 681 b 431 564 536 681 474 635 b 274 681 394 638 339 681 b 19 331 125 681 19 532 b 268 -18 19 122 122 -18 z m 592 536 b 660 401 633 536 657 483 l 503 401 b 592 536 514 490 549 536 z m 283 136 b 218 332 240 136 218 200 b 283 526 218 468 244 526 b 339 331 319 526 339 461 b 283 136 339 194 318 136 z "},"ơ":{"ha":853,"x_min":0,"x_max":0,"o":"m 718 554 b 885 818 821 554 879 631 l 701 818 b 600 663 696 704 675 663 l 429 663 b 65 331 215 663 65 521 b 424 -21 65 121 214 -21 b 788 318 638 -21 788 122 b 628 554 788 407 742 481 l 631 564 b 718 554 663 558 692 554 z m 426 146 b 274 332 329 146 274 207 b 426 517 274 461 335 517 b 579 331 524 517 579 454 b 426 146 579 201 519 146 z "},"ớ":{"ha":853,"x_min":0,"x_max":0,"o":"m 285 883 l 343 775 l 676 935 l 608 1064 z m 718 554 b 885 818 821 554 879 631 l 701 818 b 600 663 696 704 675 663 l 429 663 b 65 331 215 663 65 521 b 424 -21 65 121 214 -21 b 788 318 638 -21 788 122 b 628 554 788 407 742 481 l 631 564 b 718 554 663 558 692 554 z m 426 146 b 274 332 329 146 274 207 b 426 517 274 461 335 517 b 579 331 524 517 579 454 b 426 146 579 201 519 146 z "},"ờ":{"ha":853,"x_min":0,"x_max":0,"o":"m 571 883 l 247 1064 l 179 935 l 513 775 z m 718 554 b 885 818 821 554 879 631 l 701 818 b 600 663 696 704 675 663 l 429 663 b 65 331 215 663 65 521 b 424 -21 65 121 214 -21 b 788 318 638 -21 788 122 b 628 554 788 407 742 481 l 631 564 b 718 554 663 558 692 554 z m 426 146 b 274 332 329 146 274 207 b 426 517 274 461 335 517 b 579 331 524 517 579 454 b 426 146 579 201 519 146 z "},"ỡ":{"ha":853,"x_min":0,"x_max":0,"o":"m 400 851 b 535 775 472 789 503 775 b 719 1021 592 775 642 793 l 606 1061 b 535 919 564 935 550 919 b 454 976 522 919 513 926 b 319 1053 382 1038 353 1053 b 135 807 263 1053 213 1035 l 251 767 b 319 908 293 893 304 908 b 400 851 332 908 342 903 z m 718 554 b 885 818 821 554 879 631 l 701 818 b 600 663 696 704 675 663 l 429 663 b 65 331 215 663 65 521 b 424 -21 65 121 214 -21 b 788 318 638 -21 788 122 b 628 554 788 407 742 481 l 631 564 b 718 554 663 558 692 554 z m 426 146 b 274 332 329 146 274 207 b 426 517 274 461 335 517 b 579 331 524 517 579 454 b 426 146 579 201 519 146 z "},"ở":{"ha":853,"x_min":0,"x_max":0,"o":"m 294 775 b 600 954 519 813 600 881 b 303 1100 600 1022 542 1074 l 231 1004 l 231 1001 b 428 932 407 978 428 954 b 253 857 428 910 404 892 l 253 854 z m 718 554 b 885 818 821 554 879 631 l 701 818 b 600 663 696 704 675 663 l 429 663 b 65 331 215 663 65 521 b 424 -21 65 121 214 -21 b 788 318 638 -21 788 122 b 628 554 788 407 742 481 l 631 564 b 718 554 663 558 692 554 z m 426 146 b 274 332 329 146 274 207 b 426 517 274 461 335 517 b 579 331 524 517 579 454 b 426 146 579 201 519 146 z "},"ợ":{"ha":853,"x_min":0,"x_max":0,"o":"m 718 554 b 885 818 821 554 879 631 l 701 818 b 600 663 696 704 675 663 l 429 663 b 65 331 215 663 65 521 b 424 -21 65 121 214 -21 b 788 318 638 -21 788 122 b 628 554 788 407 742 481 l 631 564 b 718 554 663 558 692 554 z m 426 146 b 274 332 329 146 274 207 b 426 517 274 461 335 517 b 579 331 524 517 579 454 b 426 146 579 201 519 146 z m 426 -353 b 538 -247 494 -353 538 -315 b 428 -140 538 -178 499 -140 b 318 -247 360 -140 318 -185 b 426 -353 318 -315 358 -353 z "},"ŕ":{"ha":853,"x_min":0,"x_max":0,"o":"m 290 876 l 349 768 l 682 928 l 614 1057 z m 78 169 l 78 0 l 594 0 l 594 169 l 419 169 l 419 326 b 672 456 532 435 561 446 l 792 467 l 775 669 l 656 660 b 407 479 583 654 529 636 l 396 663 l 106 663 l 106 493 l 219 493 l 219 169 z "},"ř":{"ha":853,"x_min":0,"x_max":0,"o":"m 694 975 l 629 1053 l 433 910 l 238 1053 l 172 975 l 390 768 l 476 768 z m 78 169 l 78 0 l 594 0 l 594 169 l 419 169 l 419 326 b 672 456 532 435 561 446 l 792 467 l 775 669 l 656 660 b 407 479 583 654 529 636 l 396 663 l 106 663 l 106 493 l 219 493 l 219 169 z "},"ṙ":{"ha":853,"x_min":0,"x_max":0,"o":"m 433 796 b 544 901 501 796 544 833 b 435 1008 544 971 506 1008 b 325 901 367 1008 325 964 b 433 796 325 833 365 796 z m 78 169 l 78 0 l 594 0 l 594 169 l 419 169 l 419 326 b 672 456 532 435 561 446 l 792 467 l 775 669 l 656 660 b 407 479 583 654 529 636 l 396 663 l 106 663 l 106 493 l 219 493 l 219 169 z "},"ṝ":{"ha":853,"x_min":0,"x_max":0,"o":"m 196 824 l 671 824 l 671 960 l 196 960 z m 78 169 l 78 0 l 594 0 l 594 169 l 419 169 l 419 326 b 672 456 532 435 561 446 l 792 467 l 775 669 l 656 660 b 407 479 583 654 529 636 l 396 663 l 106 663 l 106 493 l 219 493 l 219 169 z m 344 -346 b 456 -240 413 -346 456 -308 b 346 -133 456 -171 417 -133 b 236 -240 278 -133 236 -178 b 344 -346 236 -308 276 -346 z "},"ŗ":{"ha":853,"x_min":0,"x_max":0,"o":"m 78 169 l 78 0 l 594 0 l 594 169 l 419 169 l 419 326 b 672 456 532 435 561 446 l 792 467 l 775 669 l 656 660 b 407 479 583 654 529 636 l 396 663 l 106 663 l 106 493 l 219 493 l 219 169 z m 211 -431 b 517 -251 436 -393 517 -325 b 219 -106 517 -183 458 -132 l 147 -201 l 147 -204 b 344 -274 324 -228 344 -251 b 169 -349 344 -296 321 -314 l 169 -351 z "},"ṛ":{"ha":853,"x_min":0,"x_max":0,"o":"m 78 169 l 78 0 l 594 0 l 594 169 l 419 169 l 419 326 b 672 456 532 435 561 446 l 792 467 l 775 669 l 656 660 b 407 479 583 654 529 636 l 396 663 l 106 663 l 106 493 l 219 493 l 219 169 z m 344 -346 b 456 -240 413 -346 456 -308 b 346 -133 456 -171 417 -133 b 236 -240 278 -133 236 -178 b 344 -346 236 -308 276 -346 z "},"ṟ":{"ha":853,"x_min":0,"x_max":0,"o":"m 78 169 l 78 0 l 594 0 l 594 169 l 419 169 l 419 326 b 672 456 532 435 561 446 l 792 467 l 775 669 l 656 660 b 407 479 583 654 529 636 l 396 663 l 106 663 l 106 493 l 219 493 l 219 169 z m 107 -297 l 582 -297 l 582 -161 l 107 -161 z "},"ś":{"ha":853,"x_min":0,"x_max":0,"o":"m 290 883 l 349 775 l 682 935 l 614 1064 z m 750 199 b 538 401 750 303 713 367 l 394 429 b 321 481 338 442 321 450 b 443 525 321 510 346 525 b 693 499 494 525 582 517 l 710 660 b 450 682 610 675 511 682 b 115 469 211 682 115 597 b 318 276 115 371 151 308 l 465 249 b 546 190 529 235 546 221 b 413 138 546 160 517 138 b 125 167 358 138 253 146 l 107 6 b 406 -19 207 -10 288 -19 b 750 199 633 -19 750 79 z "},"ŝ":{"ha":853,"x_min":0,"x_max":0,"o":"m 172 846 l 238 768 l 433 911 l 629 768 l 694 846 l 476 1053 l 390 1053 z m 750 199 b 538 401 750 303 713 367 l 394 429 b 321 481 338 442 321 450 b 443 525 321 510 346 525 b 693 499 494 525 582 517 l 710 660 b 450 682 610 675 511 682 b 115 469 211 682 115 597 b 318 276 115 371 151 308 l 465 249 b 546 190 529 235 546 221 b 413 138 546 160 517 138 b 125 167 358 138 253 146 l 107 6 b 406 -19 207 -10 288 -19 b 750 199 633 -19 750 79 z "},"š":{"ha":853,"x_min":0,"x_max":0,"o":"m 694 982 l 629 1060 l 433 917 l 238 1060 l 172 982 l 390 775 l 476 775 z m 750 199 b 538 401 750 303 713 367 l 394 429 b 321 481 338 442 321 450 b 443 525 321 510 346 525 b 693 499 494 525 582 517 l 710 660 b 450 682 610 675 511 682 b 115 469 211 682 115 597 b 318 276 115 371 151 308 l 465 249 b 546 190 529 235 546 221 b 413 138 546 160 517 138 b 125 167 358 138 253 146 l 107 6 b 406 -19 207 -10 288 -19 b 750 199 633 -19 750 79 z "},"ș":{"ha":853,"x_min":0,"x_max":0,"o":"m 750 199 b 538 401 750 303 713 367 l 394 429 b 321 481 338 442 321 450 b 443 525 321 510 346 525 b 693 499 494 525 582 517 l 710 660 b 450 682 610 675 511 682 b 115 469 211 682 115 597 b 318 276 115 371 151 308 l 465 249 b 546 190 529 235 546 221 b 413 138 546 160 517 138 b 125 167 358 138 253 146 l 107 6 b 406 -19 207 -10 288 -19 b 750 199 633 -19 750 79 z m 285 -437 b 590 -258 510 -400 590 -332 b 293 -112 590 -190 532 -139 l 221 -208 l 221 -211 b 418 -281 397 -235 418 -258 b 243 -356 418 -303 394 -321 l 243 -358 z "},"ṣ":{"ha":853,"x_min":0,"x_max":0,"o":"m 750 199 b 538 401 750 303 713 367 l 394 429 b 321 481 338 442 321 450 b 443 525 321 510 346 525 b 693 499 494 525 582 517 l 710 660 b 450 682 610 675 511 682 b 115 469 211 682 115 597 b 318 276 115 371 151 308 l 465 249 b 546 190 529 235 546 221 b 413 138 546 160 517 138 b 125 167 358 138 253 146 l 107 6 b 406 -19 207 -10 288 -19 b 750 199 633 -19 750 79 z m 418 -353 b 529 -247 486 -353 529 -315 b 419 -140 529 -178 490 -140 b 310 -247 351 -140 310 -185 b 418 -353 310 -315 350 -353 z "},"ş":{"ha":853,"x_min":0,"x_max":0,"o":"m 750 199 b 538 401 750 303 713 367 l 394 429 b 321 481 338 442 321 450 b 443 525 321 510 346 525 b 693 499 494 525 582 517 l 710 660 b 450 682 610 675 511 682 b 115 469 211 682 115 597 b 318 276 115 371 151 308 l 465 249 b 546 190 529 235 546 221 b 413 138 546 160 517 138 b 125 167 358 138 253 146 l 107 6 b 360 -19 193 -8 265 -17 l 317 -149 l 325 -162 b 501 -211 465 -169 501 -183 b 249 -279 501 -247 460 -261 l 275 -375 b 628 -208 583 -349 628 -301 b 426 -86 628 -147 588 -104 l 447 -18 b 750 199 647 -7 750 86 z "},"ß":{"ha":853,"x_min":0,"x_max":0,"o":"m 576 235 b 511 174 576 197 556 176 l 436 169 l 447 -4 l 528 0 b 785 213 717 10 785 78 b 607 504 785 285 767 351 b 744 781 731 663 744 715 b 449 1007 744 911 646 1007 b 108 682 224 1007 108 861 l 108 0 l 310 0 l 310 682 b 447 840 310 782 353 840 b 539 764 511 840 539 806 b 428 538 539 726 538 686 l 428 450 b 576 235 560 308 576 271 z "},"ť":{"ha":853,"x_min":0,"x_max":0,"o":"m 594 785 l 728 785 l 761 1096 l 594 1096 z m 274 275 b 535 0 274 68 319 10 l 747 -8 l 763 164 l 583 175 b 474 296 496 181 474 206 l 474 493 l 729 493 l 729 663 l 469 663 l 469 889 l 276 889 l 276 663 l 69 663 l 69 493 l 274 493 z "},"ṱ":{"ha":853,"x_min":0,"x_max":0,"o":"m 274 275 b 535 0 274 68 319 10 l 747 -8 l 763 164 l 583 175 b 474 296 496 181 474 206 l 474 493 l 729 493 l 729 663 l 469 663 l 469 889 l 276 889 l 276 663 l 69 663 l 69 493 l 274 493 z m 175 -312 l 240 -390 l 436 -247 l 632 -390 l 697 -312 l 479 -106 l 393 -106 z "},"ț":{"ha":853,"x_min":0,"x_max":0,"o":"m 274 275 b 535 0 274 68 319 10 l 747 -8 l 763 164 l 583 175 b 474 296 496 181 474 206 l 474 493 l 729 493 l 729 663 l 469 663 l 469 889 l 276 889 l 276 663 l 69 663 l 69 493 l 274 493 z m 303 -431 b 608 -251 528 -393 608 -325 b 311 -106 608 -183 550 -132 l 239 -201 l 239 -204 b 436 -274 415 -228 436 -251 b 261 -349 436 -296 413 -314 l 261 -351 z "},"ṭ":{"ha":853,"x_min":0,"x_max":0,"o":"m 274 275 b 535 0 274 68 319 10 l 747 -8 l 763 164 l 583 175 b 474 296 496 181 474 206 l 474 493 l 729 493 l 729 663 l 469 663 l 469 889 l 276 889 l 276 663 l 69 663 l 69 493 l 274 493 z m 436 -346 b 547 -240 504 -346 547 -308 b 438 -133 547 -171 508 -133 b 328 -240 369 -133 328 -178 b 436 -346 328 -308 368 -346 z "},"ṯ":{"ha":853,"x_min":0,"x_max":0,"o":"m 274 275 b 535 0 274 68 319 10 l 747 -8 l 763 164 l 583 175 b 474 296 496 181 474 206 l 474 493 l 729 493 l 729 663 l 469 663 l 469 889 l 276 889 l 276 663 l 69 663 l 69 493 l 274 493 z m 199 -297 l 674 -297 l 674 -161 l 199 -161 z "},"ţ":{"ha":853,"x_min":0,"x_max":0,"o":"m 274 275 b 403 18 274 119 300 49 l 350 -142 l 358 -156 b 535 -204 499 -162 535 -176 b 282 -272 535 -240 493 -254 l 308 -368 b 661 -201 617 -342 661 -294 b 460 -79 661 -140 621 -97 l 485 3 b 535 0 500 1 517 1 l 747 -8 l 763 164 l 583 175 b 474 296 496 181 474 206 l 474 493 l 729 493 l 729 663 l 469 663 l 469 889 l 276 889 l 276 663 l 69 663 l 69 493 l 274 493 z "},"ŧ":{"ha":853,"x_min":0,"x_max":0,"o":"m 146 286 l 274 286 l 274 275 b 535 0 274 68 319 10 l 747 -8 l 761 150 l 582 161 b 474 282 496 167 474 192 l 474 286 l 632 286 l 632 392 l 474 392 l 474 507 l 729 507 l 729 663 l 469 663 l 469 889 l 276 889 l 276 663 l 69 663 l 69 507 l 274 507 l 274 392 l 146 392 z "},"ú":{"ha":853,"x_min":0,"x_max":0,"o":"m 300 869 l 358 761 l 692 921 l 624 1050 z m 744 0 l 744 663 l 543 663 l 543 274 b 368 175 464 208 408 175 b 303 246 321 175 303 199 l 303 663 l 101 663 l 101 208 b 292 -15 101 60 160 -15 b 558 113 374 -15 449 19 l 568 0 z "},"ű":{"ha":853,"x_min":0,"x_max":0,"o":"m 150 853 l 233 768 l 447 960 l 344 1058 z m 496 853 l 579 768 l 792 960 l 690 1058 z m 744 0 l 744 663 l 543 663 l 543 274 b 368 175 464 208 408 175 b 303 246 321 175 303 199 l 303 663 l 101 663 l 101 208 b 292 -15 101 60 160 -15 b 558 113 374 -15 449 19 l 568 0 z "},"ù":{"ha":853,"x_min":0,"x_max":0,"o":"m 586 869 l 263 1050 l 194 921 l 528 761 z m 744 0 l 744 663 l 543 663 l 543 274 b 368 175 464 208 408 175 b 303 246 321 175 303 199 l 303 663 l 101 663 l 101 208 b 292 -15 101 60 160 -15 b 558 113 374 -15 449 19 l 568 0 z "},"û":{"ha":853,"x_min":0,"x_max":0,"o":"m 182 846 l 247 768 l 443 911 l 639 768 l 704 846 l 486 1053 l 400 1053 z m 744 0 l 744 663 l 543 663 l 543 274 b 368 175 464 208 408 175 b 303 246 321 175 303 199 l 303 663 l 101 663 l 101 208 b 292 -15 101 60 160 -15 b 558 113 374 -15 449 19 l 568 0 z "},"ǔ":{"ha":853,"x_min":0,"x_max":0,"o":"m 704 968 l 639 1046 l 443 903 l 247 1046 l 182 968 l 400 761 l 486 761 z m 744 0 l 744 663 l 543 663 l 543 274 b 368 175 464 208 408 175 b 303 246 321 175 303 199 l 303 663 l 101 663 l 101 208 b 292 -15 101 60 160 -15 b 558 113 374 -15 449 19 l 568 0 z "},"ŭ":{"ha":853,"x_min":0,"x_max":0,"o":"m 443 900 b 285 1049 383 900 325 932 l 168 1007 b 443 768 215 831 329 768 b 718 1007 557 768 671 831 l 601 1049 b 443 900 563 933 503 900 z m 744 0 l 744 663 l 543 663 l 543 274 b 368 175 464 208 408 175 b 303 246 321 175 303 199 l 303 663 l 101 663 l 101 208 b 292 -15 101 60 160 -15 b 558 113 374 -15 449 19 l 568 0 z "},"ũ":{"ha":853,"x_min":0,"x_max":0,"o":"m 415 844 b 550 768 488 782 518 768 b 735 1014 607 768 657 786 l 621 1054 b 550 913 579 928 565 913 b 469 969 538 913 528 919 b 335 1046 397 1031 368 1046 b 150 800 278 1046 228 1028 l 267 760 b 335 901 308 886 319 901 b 415 844 347 901 357 896 z m 744 0 l 744 663 l 543 663 l 543 274 b 368 175 464 208 408 175 b 303 246 321 175 303 199 l 303 663 l 101 663 l 101 208 b 292 -15 101 60 160 -15 b 558 113 374 -15 449 19 l 568 0 z "},"ū":{"ha":853,"x_min":0,"x_max":0,"o":"m 206 824 l 681 824 l 681 960 l 206 960 z m 744 0 l 744 663 l 543 663 l 543 274 b 368 175 464 208 408 175 b 303 246 321 175 303 199 l 303 663 l 101 663 l 101 208 b 292 -15 101 60 160 -15 b 558 113 374 -15 449 19 l 568 0 z "},"ü":{"ha":853,"x_min":0,"x_max":0,"o":"m 282 796 b 386 894 346 796 386 831 b 283 994 386 960 350 994 b 181 894 219 994 181 953 b 282 796 181 831 218 796 z m 601 796 b 706 894 665 796 706 831 b 603 994 706 960 669 994 b 500 894 539 994 500 953 b 601 796 500 831 538 796 z m 744 0 l 744 663 l 543 663 l 543 274 b 368 175 464 208 408 175 b 303 246 321 175 303 199 l 303 663 l 101 663 l 101 208 b 292 -15 101 60 160 -15 b 558 113 374 -15 449 19 l 568 0 z "},"ǘ":{"ha":853,"x_min":0,"x_max":0,"o":"m 297 1111 l 344 1004 l 692 1131 l 638 1258 z m 282 796 b 386 881 346 796 386 825 b 283 967 386 936 350 967 b 181 881 219 967 181 931 b 282 796 181 825 218 796 z m 601 796 b 706 881 665 796 706 825 b 603 967 706 936 669 967 b 500 881 539 967 500 931 b 601 796 500 825 538 796 z m 744 0 l 744 663 l 543 663 l 543 274 b 368 175 464 208 408 175 b 303 246 321 175 303 199 l 303 663 l 101 663 l 101 208 b 292 -15 101 60 160 -15 b 558 113 374 -15 449 19 l 568 0 z "},"ǜ":{"ha":853,"x_min":0,"x_max":0,"o":"m 589 1111 l 249 1258 l 194 1131 l 542 1004 z m 282 796 b 386 881 346 796 386 825 b 283 967 386 936 350 967 b 181 881 219 967 181 931 b 282 796 181 825 218 796 z m 601 796 b 706 881 665 796 706 825 b 603 967 706 936 669 967 b 500 881 539 967 500 931 b 601 796 500 825 538 796 z m 744 0 l 744 663 l 543 663 l 543 274 b 368 175 464 208 408 175 b 303 246 321 175 303 199 l 303 663 l 101 663 l 101 208 b 292 -15 101 60 160 -15 b 558 113 374 -15 449 19 l 568 0 z "},"ǚ":{"ha":853,"x_min":0,"x_max":0,"o":"m 704 1188 l 639 1265 l 443 1147 l 247 1265 l 182 1188 l 414 1008 l 472 1008 z m 282 796 b 386 881 346 796 386 825 b 283 967 386 936 350 967 b 181 881 219 967 181 931 b 282 796 181 825 218 796 z m 601 796 b 706 881 665 796 706 825 b 603 967 706 936 669 967 b 500 881 539 967 500 931 b 601 796 500 825 538 796 z m 744 0 l 744 663 l 543 663 l 543 274 b 368 175 464 208 408 175 b 303 246 321 175 303 199 l 303 663 l 101 663 l 101 208 b 292 -15 101 60 160 -15 b 558 113 374 -15 449 19 l 568 0 z "},"ǖ":{"ha":853,"x_min":0,"x_max":0,"o":"m 206 1057 l 681 1057 l 681 1193 l 206 1193 z m 282 796 b 386 881 346 796 386 825 b 283 967 386 936 350 967 b 181 881 219 967 181 931 b 282 796 181 825 218 796 z m 601 796 b 706 881 665 796 706 825 b 603 967 706 936 669 967 b 500 881 539 967 500 931 b 601 796 500 825 538 796 z m 744 0 l 744 663 l 543 663 l 543 274 b 368 175 464 208 408 175 b 303 246 321 175 303 199 l 303 663 l 101 663 l 101 208 b 292 -15 101 60 160 -15 b 558 113 374 -15 449 19 l 568 0 z "},"ů":{"ha":853,"x_min":0,"x_max":0,"o":"m 442 761 b 661 954 565 761 661 831 b 444 1144 661 1071 568 1144 b 225 953 319 1144 225 1072 b 442 761 225 831 319 761 z m 443 871 b 346 951 385 871 346 889 b 442 1035 346 1013 385 1035 b 540 956 503 1035 540 1014 b 443 871 540 894 501 871 z m 744 0 l 744 663 l 543 663 l 543 274 b 368 175 464 208 408 175 b 303 246 321 175 303 199 l 303 663 l 101 663 l 101 208 b 292 -15 101 60 160 -15 b 558 113 374 -15 449 19 l 568 0 z "},"ủ":{"ha":853,"x_min":0,"x_max":0,"o":"m 310 761 b 615 940 535 799 615 867 b 318 1086 615 1008 557 1060 l 246 990 l 246 988 b 443 918 422 964 443 940 b 268 843 443 896 419 878 l 268 840 z m 744 0 l 744 663 l 543 663 l 543 274 b 368 175 464 208 408 175 b 303 246 321 175 303 199 l 303 663 l 101 663 l 101 208 b 292 -15 101 60 160 -15 b 558 113 374 -15 449 19 l 568 0 z "},"ụ":{"ha":853,"x_min":0,"x_max":0,"o":"m 744 0 l 744 663 l 543 663 l 543 274 b 368 175 464 208 408 175 b 303 246 321 175 303 199 l 303 663 l 101 663 l 101 208 b 292 -15 101 60 160 -15 b 558 113 374 -15 449 19 l 568 0 z m 440 -346 b 551 -240 508 -346 551 -308 b 442 -133 551 -171 513 -133 b 332 -240 374 -133 332 -178 b 440 -346 332 -308 372 -346 z "},"ų":{"ha":853,"x_min":0,"x_max":0,"o":"m 488 -219 b 617 -319 488 -282 528 -315 l 751 -325 l 765 -196 l 689 -190 b 632 -147 643 -187 632 -175 b 711 0 632 -132 635 -110 l 744 0 l 744 663 l 543 663 l 543 274 b 368 175 464 208 408 175 b 303 246 321 175 303 199 l 303 663 l 101 663 l 101 208 b 292 -15 101 60 160 -15 b 558 113 374 -15 449 19 l 568 0 l 619 0 b 488 -219 518 -117 488 -176 z "},"ư":{"ha":853,"x_min":0,"x_max":0,"o":"m 744 0 l 744 550 b 926 818 854 550 922 628 l 749 818 b 615 663 743 704 714 663 l 543 663 l 543 274 b 368 175 464 208 408 175 b 303 246 321 175 303 199 l 303 663 l 101 663 l 101 208 b 292 -15 101 60 160 -15 b 558 113 374 -15 449 19 l 568 0 z "},"ứ":{"ha":853,"x_min":0,"x_max":0,"o":"m 300 869 l 358 761 l 692 921 l 624 1050 z m 744 0 l 744 550 b 926 818 854 550 922 628 l 749 818 b 615 663 743 704 714 663 l 543 663 l 543 274 b 368 175 464 208 408 175 b 303 246 321 175 303 199 l 303 663 l 101 663 l 101 208 b 292 -15 101 60 160 -15 b 558 113 374 -15 449 19 l 568 0 z "},"ừ":{"ha":853,"x_min":0,"x_max":0,"o":"m 586 869 l 263 1050 l 194 921 l 528 761 z m 744 0 l 744 550 b 926 818 854 550 922 628 l 749 818 b 615 663 743 704 714 663 l 543 663 l 543 274 b 368 175 464 208 408 175 b 303 246 321 175 303 199 l 303 663 l 101 663 l 101 208 b 292 -15 101 60 160 -15 b 558 113 374 -15 449 19 l 568 0 z "},"ữ":{"ha":853,"x_min":0,"x_max":0,"o":"m 415 844 b 550 768 488 782 518 768 b 735 1014 607 768 657 786 l 621 1054 b 550 913 579 928 565 913 b 469 969 538 913 528 919 b 335 1046 397 1031 368 1046 b 150 800 278 1046 228 1028 l 267 760 b 335 901 308 886 319 901 b 415 844 347 901 357 896 z m 744 0 l 744 550 b 926 818 854 550 922 628 l 749 818 b 615 663 743 704 714 663 l 543 663 l 543 274 b 368 175 464 208 408 175 b 303 246 321 175 303 199 l 303 663 l 101 663 l 101 208 b 292 -15 101 60 160 -15 b 558 113 374 -15 449 19 l 568 0 z "},"ử":{"ha":853,"x_min":0,"x_max":0,"o":"m 310 761 b 615 940 535 799 615 867 b 318 1086 615 1008 557 1060 l 246 990 l 246 988 b 443 918 422 964 443 940 b 268 843 443 896 419 878 l 268 840 z m 744 0 l 744 550 b 926 818 854 550 922 628 l 749 818 b 615 663 743 704 714 663 l 543 663 l 543 274 b 368 175 464 208 408 175 b 303 246 321 175 303 199 l 303 663 l 101 663 l 101 208 b 292 -15 101 60 160 -15 b 558 113 374 -15 449 19 l 568 0 z "},"ự":{"ha":853,"x_min":0,"x_max":0,"o":"m 744 0 l 744 550 b 926 818 854 550 922 628 l 749 818 b 615 663 743 704 714 663 l 543 663 l 543 274 b 368 175 464 208 408 175 b 303 246 321 175 303 199 l 303 663 l 101 663 l 101 208 b 292 -15 101 60 160 -15 b 558 113 374 -15 449 19 l 568 0 z m 440 -346 b 551 -240 508 -346 551 -308 b 442 -133 551 -171 513 -133 b 332 -240 374 -133 332 -178 b 440 -346 332 -308 372 -346 z "},"ṿ":{"ha":853,"x_min":0,"x_max":0,"o":"m 47 663 l 301 0 l 553 0 l 806 663 l 594 663 l 431 178 l 267 663 z m 424 -346 b 535 -240 492 -346 535 -308 b 425 -133 535 -171 496 -133 b 315 -240 357 -133 315 -178 b 424 -346 315 -308 356 -346 z "},"ẃ":{"ha":853,"x_min":0,"x_max":0,"o":"m 281 869 l 339 761 l 672 921 l 604 1050 z m 697 0 l 814 663 l 621 663 l 561 247 l 436 589 l 417 589 l 292 244 l 233 663 l 40 663 l 154 0 l 331 0 l 422 272 l 514 0 z "},"ẁ":{"ha":853,"x_min":0,"x_max":0,"o":"m 567 869 l 243 1050 l 175 921 l 508 761 z m 697 0 l 814 663 l 621 663 l 561 247 l 436 589 l 417 589 l 292 244 l 233 663 l 40 663 l 154 0 l 331 0 l 422 272 l 514 0 z "},"ŵ":{"ha":853,"x_min":0,"x_max":0,"o":"m 163 846 l 228 768 l 424 911 l 619 768 l 685 846 l 467 1053 l 381 1053 z m 697 0 l 814 663 l 621 663 l 561 247 l 436 589 l 417 589 l 292 244 l 233 663 l 40 663 l 154 0 l 331 0 l 422 272 l 514 0 z "},"ẅ":{"ha":853,"x_min":0,"x_max":0,"o":"m 263 796 b 367 894 326 796 367 831 b 264 994 367 960 331 994 b 161 894 200 994 161 953 b 263 796 161 831 199 796 z m 582 796 b 686 894 646 796 686 831 b 583 994 686 960 650 994 b 481 894 519 994 481 953 b 582 796 481 831 518 796 z m 697 0 l 814 663 l 621 663 l 561 247 l 436 589 l 417 589 l 292 244 l 233 663 l 40 663 l 154 0 l 331 0 l 422 272 l 514 0 z "},"ẍ":{"ha":853,"x_min":0,"x_max":0,"o":"m 268 796 b 372 894 332 796 372 831 b 269 994 372 960 336 994 b 167 894 206 994 167 953 b 268 796 167 831 204 796 z m 588 796 b 692 894 651 796 692 831 b 589 994 692 960 656 994 b 486 894 525 994 486 953 b 588 796 486 831 524 796 z m 49 0 l 282 0 l 424 224 l 565 0 l 806 0 l 549 340 l 785 663 l 551 663 l 429 467 l 306 663 l 64 663 l 301 338 z "},"ý":{"ha":853,"x_min":0,"x_max":0,"o":"m 289 876 l 347 768 l 681 928 l 613 1057 z m 496 -126 l 807 663 l 594 663 l 433 208 l 268 663 l 47 663 l 326 -32 l 308 -78 b 171 -150 286 -133 265 -147 l 44 -157 l 49 -328 l 239 -319 b 496 -126 383 -312 436 -278 z "},"ỳ":{"ha":853,"x_min":0,"x_max":0,"o":"m 575 876 l 251 1057 l 183 928 l 517 768 z m 496 -126 l 807 663 l 594 663 l 433 208 l 268 663 l 47 663 l 326 -32 l 308 -78 b 171 -150 286 -133 265 -147 l 44 -157 l 49 -328 l 239 -319 b 496 -126 383 -312 436 -278 z "},"ŷ":{"ha":853,"x_min":0,"x_max":0,"o":"m 171 846 l 236 768 l 432 911 l 628 768 l 693 846 l 475 1053 l 389 1053 z m 496 -126 l 807 663 l 594 663 l 433 208 l 268 663 l 47 663 l 326 -32 l 308 -78 b 171 -150 286 -133 265 -147 l 44 -157 l 49 -328 l 239 -319 b 496 -126 383 -312 436 -278 z "},"ỹ":{"ha":853,"x_min":0,"x_max":0,"o":"m 404 844 b 539 768 476 782 507 768 b 724 1014 596 768 646 786 l 610 1054 b 539 913 568 928 554 913 b 458 969 526 913 517 919 b 324 1046 386 1031 357 1046 b 139 800 267 1046 217 1028 l 256 760 b 324 901 297 886 308 901 b 404 844 336 901 346 896 z m 496 -126 l 807 663 l 594 663 l 433 208 l 268 663 l 47 663 l 326 -32 l 308 -78 b 171 -150 286 -133 265 -147 l 44 -157 l 49 -328 l 239 -319 b 496 -126 383 -312 436 -278 z "},"ȳ":{"ha":853,"x_min":0,"x_max":0,"o":"m 194 824 l 669 824 l 669 960 l 194 960 z m 496 -126 l 807 663 l 594 663 l 433 208 l 268 663 l 47 663 l 326 -32 l 308 -78 b 171 -150 286 -133 265 -147 l 44 -157 l 49 -328 l 239 -319 b 496 -126 383 -312 436 -278 z "},"ÿ":{"ha":853,"x_min":0,"x_max":0,"o":"m 271 796 b 375 894 335 796 375 831 b 272 994 375 960 339 994 b 169 894 208 994 169 953 b 271 796 169 831 207 796 z m 590 796 b 694 894 654 796 694 831 b 592 994 694 960 658 994 b 489 894 528 994 489 953 b 590 796 489 831 526 796 z m 496 -126 l 807 663 l 594 663 l 433 208 l 268 663 l 47 663 l 326 -32 l 308 -78 b 171 -150 286 -133 265 -147 l 44 -157 l 49 -328 l 239 -319 b 496 -126 383 -312 436 -278 z "},"ẏ":{"ha":853,"x_min":0,"x_max":0,"o":"m 432 796 b 543 901 500 796 543 833 b 433 1008 543 971 504 1008 b 324 901 365 1008 324 964 b 432 796 324 833 364 796 z m 496 -126 l 807 663 l 594 663 l 433 208 l 268 663 l 47 663 l 326 -32 l 308 -78 b 171 -150 286 -133 265 -147 l 44 -157 l 49 -328 l 239 -319 b 496 -126 383 -312 436 -278 z "},"ỷ":{"ha":853,"x_min":0,"x_max":0,"o":"m 299 768 b 604 947 524 806 604 874 b 307 1093 604 1015 546 1067 l 235 997 l 235 994 b 432 925 411 971 432 947 b 257 850 432 903 408 885 l 257 847 z m 496 -126 l 807 663 l 594 663 l 433 208 l 268 663 l 47 663 l 326 -32 l 308 -78 b 171 -150 286 -133 265 -147 l 44 -157 l 49 -328 l 239 -319 b 496 -126 383 -312 436 -278 z "},"ỵ":{"ha":853,"x_min":0,"x_max":0,"o":"m 496 -126 l 807 663 l 594 663 l 433 208 l 268 663 l 47 663 l 326 -32 l 308 -78 b 171 -150 286 -133 265 -147 l 44 -157 l 49 -328 l 239 -319 b 496 -126 383 -312 436 -278 z m 707 -346 b 818 -240 775 -346 818 -308 b 708 -133 818 -171 779 -133 b 599 -240 640 -133 599 -178 b 707 -346 599 -308 639 -346 z "},"ź":{"ha":853,"x_min":0,"x_max":0,"o":"m 272 876 l 331 768 l 664 928 l 596 1057 z m 107 0 l 749 0 l 749 157 l 378 157 l 378 161 l 726 524 l 726 663 l 122 663 l 122 506 l 457 506 l 457 501 l 107 138 z "},"ẑ":{"ha":853,"x_min":0,"x_max":0,"o":"m 154 846 l 219 768 l 415 911 l 611 768 l 676 846 l 458 1053 l 372 1053 z m 107 0 l 749 0 l 749 157 l 378 157 l 378 161 l 726 524 l 726 663 l 122 663 l 122 506 l 457 506 l 457 501 l 107 138 z "},"ž":{"ha":853,"x_min":0,"x_max":0,"o":"m 676 975 l 611 1053 l 415 910 l 219 1053 l 154 975 l 372 768 l 458 768 z m 107 0 l 749 0 l 749 157 l 378 157 l 378 161 l 726 524 l 726 663 l 122 663 l 122 506 l 457 506 l 457 501 l 107 138 z "},"ż":{"ha":853,"x_min":0,"x_max":0,"o":"m 415 796 b 526 901 483 796 526 833 b 417 1008 526 971 488 1008 b 307 901 349 1008 307 964 b 415 796 307 833 347 796 z m 107 0 l 749 0 l 749 157 l 378 157 l 378 161 l 726 524 l 726 663 l 122 663 l 122 506 l 457 506 l 457 501 l 107 138 z "},"ẓ":{"ha":853,"x_min":0,"x_max":0,"o":"m 107 0 l 749 0 l 749 157 l 378 157 l 378 161 l 726 524 l 726 663 l 122 663 l 122 506 l 457 506 l 457 501 l 107 138 z m 415 -346 b 526 -240 483 -346 526 -308 b 417 -133 526 -171 488 -133 b 307 -240 349 -133 307 -178 b 415 -346 307 -308 347 -346 z "},"ẕ":{"ha":853,"x_min":0,"x_max":0,"o":"m 107 0 l 749 0 l 749 157 l 378 157 l 378 161 l 726 524 l 726 663 l 122 663 l 122 506 l 457 506 l 457 501 l 107 138 z m 178 -297 l 653 -297 l 653 -161 l 178 -161 z "},"ð":{"ha":853,"x_min":0,"x_max":0,"o":"m 503 1065 l 411 951 b 235 1007 356 975 294 994 l 181 840 b 310 801 228 829 269 818 l 219 699 l 300 635 l 404 763 b 581 549 500 715 557 660 b 393 585 510 581 450 585 b 65 292 204 585 65 446 b 399 -21 65 106 207 -21 b 788 440 638 -21 788 157 b 506 910 788 594 733 782 l 589 1000 z m 274 293 b 433 439 274 371 324 439 b 585 403 478 439 518 435 b 411 146 576 215 501 146 b 274 293 332 146 274 200 z "},"þ":{"ha":853,"x_min":0,"x_max":0,"o":"m 104 -319 l 306 -319 l 306 54 b 478 -7 363 6 417 -7 b 792 347 650 -7 792 135 b 514 678 792 560 663 678 b 306 588 432 678 368 650 l 306 986 l 104 986 z m 426 513 b 583 332 522 513 583 446 b 403 156 583 233 519 156 b 306 185 374 156 343 163 l 306 469 b 426 513 350 500 386 513 z "},"ə":{"ha":853,"x_min":0,"x_max":0,"o":"m 321 526 b 576 399 490 519 557 490 l 88 399 b 79 313 83 378 79 347 b 415 -18 79 118 211 -18 b 774 339 638 -18 774 144 b 388 681 774 557 668 676 l 219 683 l 213 531 z m 414 132 b 271 264 331 132 278 183 l 576 264 b 414 132 557 178 499 132 z "}," ":{"ha":853,"x_min":0,"x_max":0,"o":""}," ":{"ha":853,"x_min":0,"x_max":0,"o":""},"⁄":{"ha":853,"x_min":0,"x_max":0,"o":"m 688 913 l 368 469 l 0 -3 l 165 -3 l 479 438 l 853 913 z "},"‑":{"ha":853,"x_min":0,"x_max":0,"o":"m 167 483 l 167 283 l 686 283 l 686 483 z "},"―":{"ha":853,"x_min":0,"x_max":0,"o":"m 69 483 l 69 283 l 783 283 l 783 483 z "},"́":{"ha":0,"x_min":0,"x_max":0,"o":"m -143 876 l -85 768 l 249 928 l 181 1057 z "},"̋":{"ha":0,"x_min":0,"x_max":0,"o":"m -293 853 l -210 768 l 4 960 l -99 1058 z m 53 853 l 136 768 l 349 960 l 247 1058 z "},"̀":{"ha":0,"x_min":0,"x_max":0,"o":"m 143 876 l -181 1057 l -249 928 l 85 768 z "},"̕":{"ha":0,"x_min":0,"x_max":0,"o":"m 0 675 l 133 675 l 167 986 l 0 986 z "},"̂":{"ha":0,"x_min":0,"x_max":0,"o":"m -261 846 l -196 768 l 0 911 l 196 768 l 261 846 l 43 1053 l -43 1053 z "}}}
